M48
INCH,TZ
VER,1
FMAT,2
DETECT,ON
ATC,ON
T1C0.03500
T2C0.03150
T3C0.03937
T4C0.04037
T5C0.05512
T6C0.05906
T7C0.00100
%
T1
X470000Y-30000
Y-20000
X432000Y10000
Y-3833
X188000Y-10000
Y20000
X270000Y-10000
Y20000
T2
X558000Y-20000
Y10000
X380000Y-10000
Y-20000
Y0
Y20000
Y10000
T3
X354000Y-20000
Y-10000
X558000Y44000
Y54000
X320000Y20000
Y10000
T4
X108000Y40000
X68000
X50000Y22000
Y-18000
X110000Y-38000
X70000
X130000Y20000
Y-20000
T5
X500000Y-4000
Y66000
T6
X12000Y20000
Y0
T7
X12000Y10000
M30
