G04 Generated by Ultiboard 14.1 *
%FSLAX25Y25*%
%MOIN*%

%ADD10C,0.00001*%
%ADD11C,0.01000*%
%ADD12C,0.03000*%
%ADD13C,0.00500*%
%ADD14C,0.00005*%
%ADD15C,0.07200*%
%ADD16R,0.03283X0.03283*%
%ADD17C,0.03917*%
%ADD18R,0.09200X0.09200*%
%ADD19C,0.09200*%
%ADD20R,0.05083X0.05083*%
%ADD21C,0.09000*%
%ADD22C,0.00100*%


G04 ColorRGB 0000FF for the following layer *
%LNCopper Bottom*%
%LPD*%
G54D10*
G36*
X598392Y-68392D02*
X598392Y-68392D01*
X1608Y-68392D01*
X1608Y98619D01*
X598392Y98619D01*
X598392Y-68392D01*
D02*
G37*
%LPC*%
G36*
X470833Y-28461D02*
G75*
D01*
G03X470833Y-28461I-833J-1539*
G01*
D02*
G37*
G36*
X471428Y-25000D02*
G75*
D01*
G03X465836Y-16885I-1428J5000*
G01*
X465836Y-16885D01*
X384899Y-16885D01*
G74*
D01*
G03X381998Y-14801I3257J1473*
G01*
G74*
D01*
G03X384164Y-13115I1998J4801*
G01*
X384164Y-13115D01*
X425833Y-13115D01*
G74*
D01*
G03X428040Y-12198I0J3115*
G01*
X428040Y-12198D01*
X431258Y-8980D01*
G75*
D01*
G03X436164Y-6948I742J5147*
G01*
X436164Y-6948D01*
X493792Y-6948D01*
X493792Y-8600D01*
G75*
D01*
G03X495400Y-10208I1608J0*
G01*
X495400Y-10208D01*
X504600Y-10208D01*
G75*
D01*
G03X506208Y-8600I0J1608*
G01*
X506208Y-8600D01*
X506208Y600D01*
G74*
D01*
G03X504600Y2208I1608J0*
G01*
X504600Y2208D01*
X495400Y2208D01*
G75*
D01*
G03X493792Y600I0J-1608*
G01*
X493792Y600D01*
X493792Y-718D01*
X436164Y-718D01*
G75*
D01*
G03X426853Y-4575I-4164J-3115*
G01*
X426853Y-4575D01*
X424543Y-6885D01*
X384164Y-6885D01*
G75*
D01*
G03X378002Y-14801I-4164J-3115*
G01*
G74*
D01*
G03X375101Y-16885I357J3557*
G01*
X375101Y-16885D01*
X358899Y-16885D01*
G74*
D01*
G03X355998Y-14801I3257J1473*
G01*
G74*
D01*
G03X358862Y-11844I1998J4801*
G01*
X358862Y-11844D01*
X355844Y-11844D01*
X355844Y-14789D01*
G74*
D01*
G03X355642Y-14783I202J3569*
G01*
X355642Y-14783D01*
X352359Y-14783D01*
G75*
D01*
G03X352156Y-14789I0J-3575*
G01*
X352156Y-14789D01*
X352156Y-11844D01*
X349138Y-11844D01*
G74*
D01*
G03X352002Y-14801I4862J1844*
G01*
G74*
D01*
G03X348783Y-18358I357J3557*
G01*
X348783Y-18358D01*
X348783Y-21641D01*
G75*
D01*
G03X352359Y-25217I3576J0*
G01*
X352359Y-25217D01*
X355642Y-25217D01*
G74*
D01*
G03X358899Y-23115I0J3576*
G01*
X358899Y-23115D01*
X375101Y-23115D01*
G75*
D01*
G03X378359Y-25217I3258J1474*
G01*
X378359Y-25217D01*
X381642Y-25217D01*
G74*
D01*
G03X384899Y-23115I0J3576*
G01*
X384899Y-23115D01*
X465836Y-23115D01*
G74*
D01*
G03X468572Y-25000I4164J3115*
G01*
G74*
D01*
G03X467866Y-25258I1428J5000*
G01*
X467866Y-25258D01*
X470000Y-27392D01*
X470833Y-26559D01*
X470833Y-26559D01*
X472134Y-25258D01*
G74*
D01*
G03X471428Y-25000I2134J4742*
G01*
D02*
G37*
G36*
X554885Y39101D02*
X554885Y39101D01*
X554885Y14164D01*
G74*
D01*
G03X553836Y13115I3115J4164*
G01*
X553836Y13115D01*
X541290Y13115D01*
X531525Y22880D01*
X531525Y22880D01*
X522206Y32200D01*
G74*
D01*
G03X520000Y33115I2206J2200*
G01*
X520000Y33115D01*
X450003Y33115D01*
G75*
D01*
G03X447797Y32203I-3J-3115*
G01*
X447797Y32203D01*
X438475Y22880D01*
X438475Y22880D01*
X430604Y15009D01*
G74*
D01*
G03X427836Y13115I1396J5009*
G01*
X427836Y13115D01*
X384164Y13115D01*
G75*
D01*
G03X384164Y6885I-4164J-3115*
G01*
X384164Y6885D01*
X427836Y6885D01*
G75*
D01*
G03X436677Y12272I4164J3115*
G01*
X436677Y12272D01*
X447286Y22880D01*
X447286Y22880D01*
X451290Y26885D01*
X518710Y26885D01*
X522714Y22880D01*
X522714Y22880D01*
X537797Y7797D01*
G75*
D01*
G03X540003Y6885I2203J2203*
G01*
X540003Y6885D01*
X553836Y6885D01*
G75*
D01*
G03X563114Y10940I4164J3115*
G01*
G75*
D01*
G03X563115Y11000I-3114J60*
G01*
X563115Y11000D01*
X563115Y12000D01*
G74*
D01*
G03X561115Y14909I3115J0*
G01*
X561115Y14909D01*
X561115Y39101D01*
G75*
D01*
G03X563217Y42359I-1473J3258*
G01*
X563217Y42359D01*
X563217Y45642D01*
G74*
D01*
G03X559998Y49199I3575J0*
G01*
G74*
D01*
G03X562862Y52156I1998J4801*
G01*
X562862Y52156D01*
X559844Y52156D01*
X559844Y49211D01*
G74*
D01*
G03X559642Y49217I202J3569*
G01*
X559642Y49217D01*
X556359Y49217D01*
G75*
D01*
G03X556156Y49211I0J-3575*
G01*
X556156Y49211D01*
X556156Y52156D01*
X553138Y52156D01*
G74*
D01*
G03X556002Y49199I4862J1844*
G01*
G74*
D01*
G03X552783Y45642I357J3557*
G01*
X552783Y45642D01*
X552783Y42359D01*
G75*
D01*
G03X554885Y39101I3576J0*
G01*
D02*
G37*
G36*
X467866Y-34742D02*
G75*
D01*
G03X472134Y-34742I2134J4742*
G01*
X472134Y-34742D01*
X470833Y-33441D01*
X470000Y-32608D01*
X467866Y-34742D01*
D02*
G37*
G36*
X375138Y21844D02*
X375138Y21844D01*
X378156Y21844D01*
X378156Y24862D01*
G74*
D01*
G03X375138Y21844I1844J4862*
G01*
D02*
G37*
G36*
X384862Y21844D02*
G74*
D01*
G03X381844Y24862I4862J1844*
G01*
X381844Y24862D01*
X381844Y21844D01*
X384862Y21844D01*
D02*
G37*
G36*
X375138Y1844D02*
X375138Y1844D01*
X378156Y1844D01*
X378156Y4862D01*
G74*
D01*
G03X375138Y1844I1844J4862*
G01*
D02*
G37*
G36*
X375138Y-1844D02*
G74*
D01*
G03X378156Y-4862I4862J1844*
G01*
X378156Y-4862D01*
X378156Y-1844D01*
X375138Y-1844D01*
D02*
G37*
G36*
X375138Y18156D02*
G74*
D01*
G03X378156Y15138I4862J1844*
G01*
X378156Y15138D01*
X378156Y18156D01*
X375138Y18156D01*
D02*
G37*
G36*
X321642Y25217D02*
X321642Y25217D01*
X318359Y25217D01*
G75*
D01*
G03X315101Y23115I0J-3575*
G01*
X315101Y23115D01*
X274164Y23115D01*
G75*
D01*
G03X265836Y23115I-4164J-3115*
G01*
X265836Y23115D01*
X192164Y23115D01*
G75*
D01*
G03X183836Y23115I-4164J-3115*
G01*
X183836Y23115D01*
X134164Y23115D01*
G75*
D01*
G03X127728Y24677I-4164J-3115*
G01*
X127728Y24677D01*
X113147Y39258D01*
G75*
D01*
G03X108742Y34853I-5147J742*
G01*
X108742Y34853D01*
X120714Y22880D01*
X120714Y22880D01*
X124991Y18604D01*
G75*
D01*
G03X134164Y16885I5009J1396*
G01*
X134164Y16885D01*
X183836Y16885D01*
G75*
D01*
G03X192164Y16885I4164J3115*
G01*
X192164Y16885D01*
X265836Y16885D01*
G75*
D01*
G03X274164Y16885I4164J3115*
G01*
X274164Y16885D01*
X315101Y16885D01*
G74*
D01*
G03X318002Y14801I3258J1474*
G01*
G74*
D01*
G03X315138Y11844I1998J4801*
G01*
X315138Y11844D01*
X318156Y11844D01*
X318156Y14789D01*
G75*
D01*
G03X318359Y14783I203J3570*
G01*
X318359Y14783D01*
X321642Y14783D01*
G74*
D01*
G03X321844Y14789I0J3576*
G01*
X321844Y14789D01*
X321844Y11844D01*
X324862Y11844D01*
G74*
D01*
G03X321998Y14801I4862J1844*
G01*
G75*
D01*
G03X325217Y18359I-356J3558*
G01*
X325217Y18359D01*
X325217Y21642D01*
G74*
D01*
G03X321642Y25217I3575J0*
G01*
D02*
G37*
G36*
X55147Y22742D02*
X55147Y22742D01*
X55286Y22880D01*
X67258Y34853D01*
G75*
D01*
G03X62853Y39258I742J5147*
G01*
X62853Y39258D01*
X50742Y27147D01*
G75*
D01*
G03X44921Y23115I-742J-5147*
G01*
X44921Y23115D01*
X18071Y23115D01*
G74*
D01*
G03X14542Y26117I3529J573*
G01*
X14542Y26117D01*
X9459Y26117D01*
G75*
D01*
G03X5883Y22542I0J-3575*
G01*
X5883Y22542D01*
X5883Y17459D01*
G75*
D01*
G03X9459Y13883I3576J0*
G01*
X9459Y13883D01*
X14542Y13883D01*
G74*
D01*
G03X18071Y16885I0J3576*
G01*
X18071Y16885D01*
X47997Y16885D01*
G75*
D01*
G03X48701Y16965I3J3115*
G01*
G75*
D01*
G03X55147Y22742I1299J5035*
G01*
D02*
G37*
G36*
X187369Y-11632D02*
G75*
D01*
G03X187369Y-11632I631J1632*
G01*
D02*
G37*
G36*
X185866Y-14742D02*
G75*
D01*
G03X190134Y-14742I2134J4742*
G01*
X190134Y-14742D01*
X188000Y-12608D01*
X187369Y-13239D01*
X187369Y-13239D01*
X185866Y-14742D01*
D02*
G37*
G36*
X185866Y-5258D02*
X185866Y-5258D01*
X187369Y-6761D01*
X187369Y-6761D01*
X188000Y-7392D01*
X190134Y-5258D01*
G75*
D01*
G03X185866Y-5258I-2134J-4742*
G01*
D02*
G37*
G36*
X104853Y-38742D02*
X104853Y-38742D01*
X96710Y-46885D01*
X41290Y-46885D01*
X33115Y-38710D01*
X33115Y-18000D01*
G74*
D01*
G03X32200Y-15794I3115J0*
G01*
X32200Y-15794D01*
X17911Y-1506D01*
G75*
D01*
G03X13506Y-5911I-5911J1506*
G01*
X13506Y-5911D01*
X26885Y-19290D01*
X26885Y-39995D01*
G75*
D01*
G03X27797Y-42203I3115J-5*
G01*
X27797Y-42203D01*
X37797Y-52203D01*
G75*
D01*
G03X40004Y-53115I2203J2203*
G01*
X40004Y-53115D01*
X98000Y-53115D01*
G74*
D01*
G03X100206Y-52200I0J3115*
G01*
X100206Y-52200D01*
X109258Y-43147D01*
G75*
D01*
G03X115009Y-39396I742J5147*
G01*
X115009Y-39396D01*
X129258Y-25147D01*
G75*
D01*
G03X124853Y-20742I742J5147*
G01*
X124853Y-20742D01*
X112272Y-33323D01*
G75*
D01*
G03X104853Y-38742I-2272J-4677*
G01*
D02*
G37*
G36*
X378425Y20000D02*
G75*
D01*
G03X378425Y20000I1575J0*
G01*
D02*
G37*
G36*
X384862Y18156D02*
X384862Y18156D01*
X381844Y18156D01*
X381844Y15138D01*
G74*
D01*
G03X384862Y18156I1844J4862*
G01*
D02*
G37*
G36*
X381844Y4862D02*
X381844Y4862D01*
X381844Y1844D01*
X384862Y1844D01*
G74*
D01*
G03X381844Y4862I4862J1844*
G01*
D02*
G37*
G36*
X384862Y-1844D02*
X384862Y-1844D01*
X381844Y-1844D01*
X381844Y-4862D01*
G74*
D01*
G03X384862Y-1844I1844J4862*
G01*
D02*
G37*
G36*
X378425Y0D02*
G75*
D01*
G03X378425Y0I1575J0*
G01*
D02*
G37*
G36*
X465258Y-27866D02*
G75*
D01*
G03X465258Y-32134I4742J-2134*
G01*
X465258Y-32134D01*
X467392Y-30000D01*
X465258Y-27866D01*
D02*
G37*
G36*
X556031Y54000D02*
G75*
D01*
G03X556031Y54000I1969J0*
G01*
D02*
G37*
G36*
X497801Y60203D02*
X497801Y60203D01*
X497801Y63801D01*
X494203Y63801D01*
G74*
D01*
G03X497801Y60203I5797J2199*
G01*
D02*
G37*
G36*
X505797Y63801D02*
X505797Y63801D01*
X502199Y63801D01*
X502199Y60203D01*
G74*
D01*
G03X505797Y63801I2199J5797*
G01*
D02*
G37*
G36*
X553138Y55844D02*
X553138Y55844D01*
X556156Y55844D01*
X556156Y58862D01*
G74*
D01*
G03X553138Y55844I1844J4862*
G01*
D02*
G37*
G36*
X559844Y58862D02*
X559844Y58862D01*
X559844Y55844D01*
X562862Y55844D01*
G74*
D01*
G03X559844Y58862I4862J1844*
G01*
D02*
G37*
G36*
X494203Y68199D02*
X494203Y68199D01*
X497801Y68199D01*
X497801Y71797D01*
G74*
D01*
G03X494203Y68199I2199J5797*
G01*
D02*
G37*
G36*
X502199Y71797D02*
X502199Y71797D01*
X502199Y68199D01*
X505797Y68199D01*
G74*
D01*
G03X502199Y71797I5797J2199*
G01*
D02*
G37*
G36*
X497244Y66000D02*
G75*
D01*
G03X497244Y66000I2756J0*
G01*
D02*
G37*
G36*
X192742Y-7866D02*
X192742Y-7866D01*
X190608Y-10000D01*
X192742Y-12134D01*
G75*
D01*
G03X192742Y-7866I-4742J2134*
G01*
D02*
G37*
G36*
X265258Y-7866D02*
G75*
D01*
G03X265258Y-12134I4742J-2134*
G01*
X265258Y-12134D01*
X267392Y-10000D01*
X265258Y-7866D01*
D02*
G37*
G36*
X274742Y-7866D02*
X274742Y-7866D01*
X272608Y-10000D01*
X274742Y-12134D01*
G75*
D01*
G03X274742Y-7866I-4742J2134*
G01*
D02*
G37*
G36*
X272134Y-14742D02*
X272134Y-14742D01*
X270000Y-12608D01*
X267866Y-14742D01*
G75*
D01*
G03X272134Y-14742I2134J4742*
G01*
D02*
G37*
G36*
X268250Y-10000D02*
G75*
D01*
G03X268250Y-10000I1750J0*
G01*
D02*
G37*
G36*
X267866Y-5258D02*
X267866Y-5258D01*
X270000Y-7392D01*
X272134Y-5258D01*
G75*
D01*
G03X267866Y-5258I-2134J-4742*
G01*
D02*
G37*
G36*
X65258Y-35866D02*
G75*
D01*
G03X65258Y-40134I4742J-2134*
G01*
X65258Y-40134D01*
X67392Y-38000D01*
X65258Y-35866D01*
D02*
G37*
G36*
X72134Y-42742D02*
X72134Y-42742D01*
X70000Y-40608D01*
X67866Y-42742D01*
G75*
D01*
G03X72134Y-42742I2134J4742*
G01*
D02*
G37*
G36*
X67981Y-38000D02*
G75*
D01*
G03X67981Y-38000I2019J0*
G01*
D02*
G37*
G36*
X74742Y-35866D02*
X74742Y-35866D01*
X72608Y-38000D01*
X74742Y-40134D01*
G75*
D01*
G03X74742Y-35866I-4742J2134*
G01*
D02*
G37*
G36*
X67866Y-33258D02*
X67866Y-33258D01*
X70000Y-35392D01*
X72134Y-33258D01*
G75*
D01*
G03X67866Y-33258I-2134J-4742*
G01*
D02*
G37*
G36*
X45258Y-15866D02*
G75*
D01*
G03X45258Y-20134I4742J-2134*
G01*
X45258Y-20134D01*
X47392Y-18000D01*
X45258Y-15866D01*
D02*
G37*
G36*
X54742Y-15866D02*
X54742Y-15866D01*
X52608Y-18000D01*
X54742Y-20134D01*
G75*
D01*
G03X54742Y-15866I-4742J2134*
G01*
D02*
G37*
G36*
X52134Y-22742D02*
X52134Y-22742D01*
X50000Y-20608D01*
X47866Y-22742D01*
G75*
D01*
G03X52134Y-22742I2134J4742*
G01*
D02*
G37*
G36*
X47981Y-18000D02*
G75*
D01*
G03X47981Y-18000I2019J0*
G01*
D02*
G37*
G36*
X47866Y-13258D02*
X47866Y-13258D01*
X50000Y-15392D01*
X52134Y-13258D01*
G75*
D01*
G03X47866Y-13258I-2134J-4742*
G01*
D02*
G37*
G36*
X10350Y10000D02*
G75*
D01*
G03X10350Y10000I1650J0*
G01*
D02*
G37*
G36*
X474742Y-27866D02*
X474742Y-27866D01*
X472608Y-30000D01*
X474742Y-32134D01*
G75*
D01*
G03X474742Y-27866I-4742J2134*
G01*
D02*
G37*
G36*
X560134Y-24742D02*
X560134Y-24742D01*
X558000Y-22608D01*
X555866Y-24742D01*
G75*
D01*
G03X560134Y-24742I2134J4742*
G01*
D02*
G37*
G36*
X555866Y-15258D02*
X555866Y-15258D01*
X558000Y-17392D01*
X560134Y-15258D01*
G75*
D01*
G03X555866Y-15258I-2134J-4742*
G01*
D02*
G37*
G36*
X556425Y-20000D02*
G75*
D01*
G03X556425Y-20000I1575J0*
G01*
D02*
G37*
G36*
X553258Y-17866D02*
G75*
D01*
G03X553258Y-22134I4742J-2134*
G01*
X553258Y-22134D01*
X555392Y-20000D01*
X553258Y-17866D01*
D02*
G37*
G36*
X562742Y-17866D02*
X562742Y-17866D01*
X560608Y-20000D01*
X562742Y-22134D01*
G75*
D01*
G03X562742Y-17866I-4742J2134*
G01*
D02*
G37*
G36*
X352031Y-10000D02*
G75*
D01*
G03X352031Y-10000I1969J0*
G01*
D02*
G37*
G36*
X349138Y-8156D02*
X349138Y-8156D01*
X352156Y-8156D01*
X352156Y-5138D01*
G74*
D01*
G03X349138Y-8156I1844J4862*
G01*
D02*
G37*
G36*
X355844Y-5138D02*
X355844Y-5138D01*
X355844Y-8156D01*
X358862Y-8156D01*
G74*
D01*
G03X355844Y-5138I4862J1844*
G01*
D02*
G37*
G36*
X324862Y8156D02*
X324862Y8156D01*
X321844Y8156D01*
X321844Y5138D01*
G74*
D01*
G03X324862Y8156I1844J4862*
G01*
D02*
G37*
G36*
X318156Y5138D02*
X318156Y5138D01*
X318156Y8156D01*
X315138Y8156D01*
G74*
D01*
G03X318156Y5138I4862J1844*
G01*
D02*
G37*
G36*
X318031Y10000D02*
G75*
D01*
G03X318031Y10000I1969J0*
G01*
D02*
G37*
G36*
X183258Y-7866D02*
G75*
D01*
G03X183258Y-12134I4742J-2134*
G01*
X183258Y-12134D01*
X185392Y-10000D01*
X183258Y-7866D01*
D02*
G37*
%LPD*%
G54D11*
X470833Y-28461D02*
G75*
D01*
G03X470833Y-28461I-833J-1539*
G01*
X471428Y-25000D02*
G75*
D01*
G03X465836Y-16885I-1428J5000*
G01*
X384899Y-16885D01*
G74*
D01*
G03X381998Y-14801I3257J1473*
G01*
G74*
D01*
G03X384164Y-13115I1998J4801*
G01*
X425833Y-13115D01*
G74*
D01*
G03X428040Y-12198I0J3115*
G01*
X431258Y-8980D01*
G75*
D01*
G03X436164Y-6948I742J5147*
G01*
X493792Y-6948D01*
X493792Y-8600D01*
G75*
D01*
G03X495400Y-10208I1608J0*
G01*
X504600Y-10208D01*
G75*
D01*
G03X506208Y-8600I0J1608*
G01*
X506208Y600D01*
G74*
D01*
G03X504600Y2208I1608J0*
G01*
X495400Y2208D01*
G75*
D01*
G03X493792Y600I0J-1608*
G01*
X493792Y-718D01*
X436164Y-718D01*
G75*
D01*
G03X426853Y-4575I-4164J-3115*
G01*
X424543Y-6885D01*
X384164Y-6885D01*
G75*
D01*
G03X378002Y-14801I-4164J-3115*
G01*
G74*
D01*
G03X375101Y-16885I357J3557*
G01*
X358899Y-16885D01*
G74*
D01*
G03X355998Y-14801I3257J1473*
G01*
G74*
D01*
G03X358862Y-11844I1998J4801*
G01*
X355844Y-11844D01*
X355844Y-14789D01*
G74*
D01*
G03X355642Y-14783I202J3569*
G01*
X352359Y-14783D01*
G75*
D01*
G03X352156Y-14789I0J-3575*
G01*
X352156Y-11844D01*
X349138Y-11844D01*
G74*
D01*
G03X352002Y-14801I4862J1844*
G01*
G74*
D01*
G03X348783Y-18358I357J3557*
G01*
X348783Y-21641D01*
G75*
D01*
G03X352359Y-25217I3576J0*
G01*
X355642Y-25217D01*
G74*
D01*
G03X358899Y-23115I0J3576*
G01*
X375101Y-23115D01*
G75*
D01*
G03X378359Y-25217I3258J1474*
G01*
X381642Y-25217D01*
G74*
D01*
G03X384899Y-23115I0J3576*
G01*
X465836Y-23115D01*
G74*
D01*
G03X468572Y-25000I4164J3115*
G01*
G74*
D01*
G03X467866Y-25258I1428J5000*
G01*
X470000Y-27392D01*
X470833Y-26559D01*
X470833Y-26559D01*
X472134Y-25258D01*
G74*
D01*
G03X471428Y-25000I2134J4742*
G01*
X554885Y39101D02*
X554885Y14164D01*
G74*
D01*
G03X553836Y13115I3115J4164*
G01*
X541290Y13115D01*
X531525Y22880D01*
X531525Y22880D01*
X522206Y32200D01*
G74*
D01*
G03X520000Y33115I2206J2200*
G01*
X450003Y33115D01*
G75*
D01*
G03X447797Y32203I-3J-3115*
G01*
X438475Y22880D01*
X438475Y22880D01*
X430604Y15009D01*
G74*
D01*
G03X427836Y13115I1396J5009*
G01*
X384164Y13115D01*
G75*
D01*
G03X384164Y6885I-4164J-3115*
G01*
X427836Y6885D01*
G75*
D01*
G03X436677Y12272I4164J3115*
G01*
X447286Y22880D01*
X447286Y22880D01*
X451290Y26885D01*
X518710Y26885D01*
X522714Y22880D01*
X522714Y22880D01*
X537797Y7797D01*
G75*
D01*
G03X540003Y6885I2203J2203*
G01*
X553836Y6885D01*
G75*
D01*
G03X563114Y10940I4164J3115*
G01*
G75*
D01*
G03X563115Y11000I-3114J60*
G01*
X563115Y12000D01*
G74*
D01*
G03X561115Y14909I3115J0*
G01*
X561115Y39101D01*
G75*
D01*
G03X563217Y42359I-1473J3258*
G01*
X563217Y45642D01*
G74*
D01*
G03X559998Y49199I3575J0*
G01*
G74*
D01*
G03X562862Y52156I1998J4801*
G01*
X559844Y52156D01*
X559844Y49211D01*
G74*
D01*
G03X559642Y49217I202J3569*
G01*
X556359Y49217D01*
G75*
D01*
G03X556156Y49211I0J-3575*
G01*
X556156Y52156D01*
X553138Y52156D01*
G74*
D01*
G03X556002Y49199I4862J1844*
G01*
G74*
D01*
G03X552783Y45642I357J3557*
G01*
X552783Y42359D01*
G75*
D01*
G03X554885Y39101I3576J0*
G01*
X467866Y-34742D02*
G75*
D01*
G03X472134Y-34742I2134J4742*
G01*
X470833Y-33441D01*
X470000Y-32608D01*
X467866Y-34742D01*
X375138Y21844D02*
X378156Y21844D01*
X378156Y24862D01*
G74*
D01*
G03X375138Y21844I1844J4862*
G01*
X384862Y21844D02*
G74*
D01*
G03X381844Y24862I4862J1844*
G01*
X381844Y21844D01*
X384862Y21844D01*
X375138Y1844D02*
X378156Y1844D01*
X378156Y4862D01*
G74*
D01*
G03X375138Y1844I1844J4862*
G01*
X375138Y-1844D02*
G74*
D01*
G03X378156Y-4862I4862J1844*
G01*
X378156Y-1844D01*
X375138Y-1844D01*
X375138Y18156D02*
G74*
D01*
G03X378156Y15138I4862J1844*
G01*
X378156Y18156D01*
X375138Y18156D01*
X321642Y25217D02*
X318359Y25217D01*
G75*
D01*
G03X315101Y23115I0J-3575*
G01*
X274164Y23115D01*
G75*
D01*
G03X265836Y23115I-4164J-3115*
G01*
X192164Y23115D01*
G75*
D01*
G03X183836Y23115I-4164J-3115*
G01*
X134164Y23115D01*
G75*
D01*
G03X127728Y24677I-4164J-3115*
G01*
X113147Y39258D01*
G75*
D01*
G03X108742Y34853I-5147J742*
G01*
X120714Y22880D01*
X120714Y22880D01*
X124991Y18604D01*
G75*
D01*
G03X134164Y16885I5009J1396*
G01*
X183836Y16885D01*
G75*
D01*
G03X192164Y16885I4164J3115*
G01*
X265836Y16885D01*
G75*
D01*
G03X274164Y16885I4164J3115*
G01*
X315101Y16885D01*
G74*
D01*
G03X318002Y14801I3258J1474*
G01*
G74*
D01*
G03X315138Y11844I1998J4801*
G01*
X318156Y11844D01*
X318156Y14789D01*
G75*
D01*
G03X318359Y14783I203J3570*
G01*
X321642Y14783D01*
G74*
D01*
G03X321844Y14789I0J3576*
G01*
X321844Y11844D01*
X324862Y11844D01*
G74*
D01*
G03X321998Y14801I4862J1844*
G01*
G75*
D01*
G03X325217Y18359I-356J3558*
G01*
X325217Y21642D01*
G74*
D01*
G03X321642Y25217I3575J0*
G01*
X55147Y22742D02*
X55286Y22880D01*
X67258Y34853D01*
G75*
D01*
G03X62853Y39258I742J5147*
G01*
X50742Y27147D01*
G75*
D01*
G03X44921Y23115I-742J-5147*
G01*
X18071Y23115D01*
G74*
D01*
G03X14542Y26117I3529J573*
G01*
X9459Y26117D01*
G75*
D01*
G03X5883Y22542I0J-3575*
G01*
X5883Y17459D01*
G75*
D01*
G03X9459Y13883I3576J0*
G01*
X14542Y13883D01*
G74*
D01*
G03X18071Y16885I0J3576*
G01*
X47997Y16885D01*
G75*
D01*
G03X48701Y16965I3J3115*
G01*
G75*
D01*
G03X55147Y22742I1299J5035*
G01*
X187369Y-11632D02*
G75*
D01*
G03X187369Y-11632I631J1632*
G01*
X185866Y-14742D02*
G75*
D01*
G03X190134Y-14742I2134J4742*
G01*
X188000Y-12608D01*
X187369Y-13239D01*
X187369Y-13239D01*
X185866Y-14742D01*
X185866Y-5258D02*
X187369Y-6761D01*
X187369Y-6761D01*
X188000Y-7392D01*
X190134Y-5258D01*
G75*
D01*
G03X185866Y-5258I-2134J-4742*
G01*
X104853Y-38742D02*
X96710Y-46885D01*
X41290Y-46885D01*
X33115Y-38710D01*
X33115Y-18000D01*
G74*
D01*
G03X32200Y-15794I3115J0*
G01*
X17911Y-1506D01*
G75*
D01*
G03X13506Y-5911I-5911J1506*
G01*
X26885Y-19290D01*
X26885Y-39995D01*
G75*
D01*
G03X27797Y-42203I3115J-5*
G01*
X37797Y-52203D01*
G75*
D01*
G03X40004Y-53115I2203J2203*
G01*
X98000Y-53115D01*
G74*
D01*
G03X100206Y-52200I0J3115*
G01*
X109258Y-43147D01*
G75*
D01*
G03X115009Y-39396I742J5147*
G01*
X129258Y-25147D01*
G75*
D01*
G03X124853Y-20742I742J5147*
G01*
X112272Y-33323D01*
G75*
D01*
G03X104853Y-38742I-2272J-4677*
G01*
X378425Y20000D02*
G75*
D01*
G03X378425Y20000I1575J0*
G01*
X384862Y18156D02*
X381844Y18156D01*
X381844Y15138D01*
G74*
D01*
G03X384862Y18156I1844J4862*
G01*
X381844Y4862D02*
X381844Y1844D01*
X384862Y1844D01*
G74*
D01*
G03X381844Y4862I4862J1844*
G01*
X384862Y-1844D02*
X381844Y-1844D01*
X381844Y-4862D01*
G74*
D01*
G03X384862Y-1844I1844J4862*
G01*
X378425Y0D02*
G75*
D01*
G03X378425Y0I1575J0*
G01*
X465258Y-27866D02*
G75*
D01*
G03X465258Y-32134I4742J-2134*
G01*
X467392Y-30000D01*
X465258Y-27866D01*
X556031Y54000D02*
G75*
D01*
G03X556031Y54000I1969J0*
G01*
X497801Y60203D02*
X497801Y63801D01*
X494203Y63801D01*
G74*
D01*
G03X497801Y60203I5797J2199*
G01*
X505797Y63801D02*
X502199Y63801D01*
X502199Y60203D01*
G74*
D01*
G03X505797Y63801I2199J5797*
G01*
X553138Y55844D02*
X556156Y55844D01*
X556156Y58862D01*
G74*
D01*
G03X553138Y55844I1844J4862*
G01*
X559844Y58862D02*
X559844Y55844D01*
X562862Y55844D01*
G74*
D01*
G03X559844Y58862I4862J1844*
G01*
X494203Y68199D02*
X497801Y68199D01*
X497801Y71797D01*
G74*
D01*
G03X494203Y68199I2199J5797*
G01*
X502199Y71797D02*
X502199Y68199D01*
X505797Y68199D01*
G74*
D01*
G03X502199Y71797I5797J2199*
G01*
X497244Y66000D02*
G75*
D01*
G03X497244Y66000I2756J0*
G01*
X192742Y-7866D02*
X190608Y-10000D01*
X192742Y-12134D01*
G75*
D01*
G03X192742Y-7866I-4742J2134*
G01*
X265258Y-7866D02*
G75*
D01*
G03X265258Y-12134I4742J-2134*
G01*
X267392Y-10000D01*
X265258Y-7866D01*
X274742Y-7866D02*
X272608Y-10000D01*
X274742Y-12134D01*
G75*
D01*
G03X274742Y-7866I-4742J2134*
G01*
X272134Y-14742D02*
X270000Y-12608D01*
X267866Y-14742D01*
G75*
D01*
G03X272134Y-14742I2134J4742*
G01*
X268250Y-10000D02*
G75*
D01*
G03X268250Y-10000I1750J0*
G01*
X267866Y-5258D02*
X270000Y-7392D01*
X272134Y-5258D01*
G75*
D01*
G03X267866Y-5258I-2134J-4742*
G01*
X65258Y-35866D02*
G75*
D01*
G03X65258Y-40134I4742J-2134*
G01*
X67392Y-38000D01*
X65258Y-35866D01*
X72134Y-42742D02*
X70000Y-40608D01*
X67866Y-42742D01*
G75*
D01*
G03X72134Y-42742I2134J4742*
G01*
X67981Y-38000D02*
G75*
D01*
G03X67981Y-38000I2019J0*
G01*
X74742Y-35866D02*
X72608Y-38000D01*
X74742Y-40134D01*
G75*
D01*
G03X74742Y-35866I-4742J2134*
G01*
X67866Y-33258D02*
X70000Y-35392D01*
X72134Y-33258D01*
G75*
D01*
G03X67866Y-33258I-2134J-4742*
G01*
X45258Y-15866D02*
G75*
D01*
G03X45258Y-20134I4742J-2134*
G01*
X47392Y-18000D01*
X45258Y-15866D01*
X54742Y-15866D02*
X52608Y-18000D01*
X54742Y-20134D01*
G75*
D01*
G03X54742Y-15866I-4742J2134*
G01*
X52134Y-22742D02*
X50000Y-20608D01*
X47866Y-22742D01*
G75*
D01*
G03X52134Y-22742I2134J4742*
G01*
X47981Y-18000D02*
G75*
D01*
G03X47981Y-18000I2019J0*
G01*
X47866Y-13258D02*
X50000Y-15392D01*
X52134Y-13258D01*
G75*
D01*
G03X47866Y-13258I-2134J-4742*
G01*
X10350Y10000D02*
G75*
D01*
G03X10350Y10000I1650J0*
G01*
X474742Y-27866D02*
X472608Y-30000D01*
X474742Y-32134D01*
G75*
D01*
G03X474742Y-27866I-4742J2134*
G01*
X560134Y-24742D02*
X558000Y-22608D01*
X555866Y-24742D01*
G75*
D01*
G03X560134Y-24742I2134J4742*
G01*
X555866Y-15258D02*
X558000Y-17392D01*
X560134Y-15258D01*
G75*
D01*
G03X555866Y-15258I-2134J-4742*
G01*
X556425Y-20000D02*
G75*
D01*
G03X556425Y-20000I1575J0*
G01*
X553258Y-17866D02*
G75*
D01*
G03X553258Y-22134I4742J-2134*
G01*
X555392Y-20000D01*
X553258Y-17866D01*
X562742Y-17866D02*
X560608Y-20000D01*
X562742Y-22134D01*
G75*
D01*
G03X562742Y-17866I-4742J2134*
G01*
X352031Y-10000D02*
G75*
D01*
G03X352031Y-10000I1969J0*
G01*
X349138Y-8156D02*
X352156Y-8156D01*
X352156Y-5138D01*
G74*
D01*
G03X349138Y-8156I1844J4862*
G01*
X355844Y-5138D02*
X355844Y-8156D01*
X358862Y-8156D01*
G74*
D01*
G03X355844Y-5138I4862J1844*
G01*
X324862Y8156D02*
X321844Y8156D01*
X321844Y5138D01*
G74*
D01*
G03X324862Y8156I1844J4862*
G01*
X318156Y5138D02*
X318156Y8156D01*
X315138Y8156D01*
G74*
D01*
G03X318156Y5138I4862J1844*
G01*
X318031Y10000D02*
G75*
D01*
G03X318031Y10000I1969J0*
G01*
X183258Y-7866D02*
G75*
D01*
G03X183258Y-12134I4742J-2134*
G01*
X185392Y-10000D01*
X183258Y-7866D01*
X598392Y-68392D02*
X1608Y-68392D01*
X1608Y98619D01*
X598392Y98619D01*
X598392Y-68392D01*
G54D12*
X68000Y40000D02*
X69000Y40000D01*
X68000Y40000D02*
X48000Y20000D01*
X11000Y20000D01*
X108000Y40000D02*
X128000Y20000D01*
X320000Y20000D01*
X112000Y-38000D02*
X130000Y-20000D01*
X98000Y-50000D02*
X110000Y-38000D01*
X112000Y-38000D01*
X40000Y-50000D02*
X98000Y-50000D01*
X30000Y-40000D02*
X40000Y-50000D01*
X30000Y-18000D02*
X30000Y-40000D01*
X12000Y0D02*
X30000Y-18000D01*
X432000Y-3833D02*
X499833Y-3833D01*
X425833Y-10000D02*
X432000Y-3833D01*
X380000Y-10000D02*
X425833Y-10000D01*
X354000Y-20000D02*
X470000Y-20000D01*
X540000Y10000D02*
X559000Y10000D01*
X560000Y11000D01*
X560000Y12000D01*
X558000Y44000D02*
X558000Y10000D01*
X520000Y30000D02*
X540000Y10000D01*
X450000Y30000D02*
X520000Y30000D01*
X430000Y10000D02*
X450000Y30000D01*
X430000Y10000D02*
X380000Y10000D01*
G54D13*
X-1000Y-71000D02*
X-1000Y-53777D01*
X-1000Y-71000D02*
X59200Y-71000D01*
X601000Y-71000D02*
X540800Y-71000D01*
X601000Y-71000D02*
X601000Y-53777D01*
X601000Y101227D02*
X601000Y84004D01*
X601000Y101227D02*
X540800Y101227D01*
X-1000Y101227D02*
X59200Y101227D01*
X-1000Y101227D02*
X-1000Y84004D01*
X-20685Y-71000D02*
X-60055Y-71000D01*
X-40370Y-90685D02*
X-40370Y-51315D01*
X-55134Y-71000D02*
G75*
D01*
G02X-55134Y-71000I14764J0*
G01*
X620685Y-71000D02*
X660055Y-71000D01*
X640370Y-90685D02*
X640370Y-51315D01*
X625606Y-71000D02*
G75*
D01*
G02X625606Y-71000I14764J0*
G01*
X635449Y-71000D02*
G75*
D01*
G02X635449Y-71000I4921J0*
G01*
X-20685Y101227D02*
X-60055Y101227D01*
X-40370Y81542D02*
X-40370Y120912D01*
X-55134Y101227D02*
G75*
D01*
G02X-55134Y101227I14764J0*
G01*
X-50213Y101227D02*
G75*
D01*
G02X-50213Y101227I9843J0*
G01*
X-45291Y101227D02*
G75*
D01*
G02X-45291Y101227I4921J0*
G01*
X-1000Y-71000D02*
X-1000Y-53777D01*
X-1000Y-71000D02*
X59200Y-71000D01*
X601000Y-71000D02*
X540800Y-71000D01*
X601000Y-71000D02*
X601000Y-53777D01*
X601000Y101227D02*
X601000Y84004D01*
X601000Y101227D02*
X540800Y101227D01*
X-1000Y101227D02*
X59200Y101227D01*
X-1000Y101227D02*
X-1000Y84004D01*
X-20685Y-71000D02*
X-60055Y-71000D01*
X-40370Y-90685D02*
X-40370Y-51315D01*
X-55134Y-71000D02*
G75*
D01*
G02X-55134Y-71000I14764J0*
G01*
X620685Y-71000D02*
X660055Y-71000D01*
X640370Y-90685D02*
X640370Y-51315D01*
X625606Y-71000D02*
G75*
D01*
G02X625606Y-71000I14764J0*
G01*
X635449Y-71000D02*
G75*
D01*
G02X635449Y-71000I4921J0*
G01*
X-20685Y101227D02*
X-60055Y101227D01*
X-40370Y81542D02*
X-40370Y120912D01*
X-55134Y101227D02*
G75*
D01*
G02X-55134Y101227I14764J0*
G01*
X-50213Y101227D02*
G75*
D01*
G02X-50213Y101227I9843J0*
G01*
X-45291Y101227D02*
G75*
D01*
G02X-45291Y101227I4921J0*
G01*
G54D14*
X0Y-70000D02*
X600000Y-70000D01*
X600000Y100227D01*
X0Y100227D01*
X0Y-70000D01*
G54D15*
X470000Y-30000D03*
X470000Y-20000D03*
X558000Y-20000D03*
X558000Y10000D03*
X354000Y-10000D03*
X432000Y10000D03*
X432000Y-3833D03*
X558000Y54000D03*
X108000Y40000D03*
X68000Y40000D03*
X50000Y22000D03*
X50000Y-18000D03*
X110000Y-38000D03*
X70000Y-38000D03*
X130000Y20000D03*
X130000Y-20000D03*
X188000Y-10000D03*
X188000Y20000D03*
X270000Y-10000D03*
X270000Y20000D03*
X320000Y10000D03*
X380000Y-10000D03*
X380000Y0D03*
X380000Y20000D03*
X380000Y10000D03*
G54D16*
X354000Y-20000D03*
X558000Y44000D03*
X320000Y20000D03*
X380000Y-20000D03*
G54D17*
X352359Y-21641D02*
X355641Y-21641D01*
X355641Y-18359D01*
X352359Y-18359D01*
X352359Y-21641D01*D02*
X556359Y42359D02*
X559641Y42359D01*
X559641Y45641D01*
X556359Y45641D01*
X556359Y42359D01*D02*
X318359Y18359D02*
X321641Y18359D01*
X321641Y21641D01*
X318359Y21641D01*
X318359Y18359D01*D02*
X378359Y-21641D02*
X381641Y-21641D01*
X381641Y-18359D01*
X378359Y-18359D01*
X378359Y-21641D01*D02*
X9459Y17459D02*
X14541Y17459D01*
X14541Y22541D01*
X9459Y22541D01*
X9459Y17459D01*D02*
G54D18*
X500000Y-4000D03*
G54D19*
X500000Y66000D03*
G54D20*
X12000Y20000D03*
G54D21*
X12000Y0D03*
G54D22*
X12000Y10000D03*

M02*
