G04 Generated by Ultiboard 14.1 *
%FSLAX25Y25*%
%MOIN*%

%ADD10C,0.00001*%
%ADD11C,0.01000*%
%ADD12C,0.03000*%
%ADD13C,0.00500*%
%ADD14C,0.00004*%
%ADD15C,0.07200*%
%ADD16R,0.03283X0.03283*%
%ADD17C,0.03917*%
%ADD18C,0.09500*%
%ADD19R,0.05583X0.05583*%
%ADD20C,0.00100*%
%ADD21C,0.06334*%
%ADD22R,0.02083X0.02083*%
%ADD23C,0.07874*%


G04 ColorRGB 0000FF for the following layer *
%LNCopper Bottom*%
%LPD*%
G54D10*
G36*
X628414Y392194D02*
X628414Y392194D01*
X628414Y1507D01*
X1507Y1507D01*
X1507Y392194D01*
X628414Y392194D01*
D02*
G37*
%LPC*%
G36*
X421809Y375231D02*
G74*
D01*
G03X424769Y378191I1809J4769*
G01*
X424769Y378191D01*
X421809Y378191D01*
X421809Y375231D01*
D02*
G37*
G36*
X418191Y375231D02*
X418191Y375231D01*
X418191Y378191D01*
X415231Y378191D01*
G74*
D01*
G03X418191Y375231I4769J1809*
G01*
D02*
G37*
G36*
X220003Y383015D02*
G75*
D01*
G03X217868Y382132I-3J-3015*
G01*
X217868Y382132D01*
X200777Y365040D01*
G75*
D01*
G03X196985Y355886I-777J-5040*
G01*
X196985Y355886D01*
X196985Y354114D01*
G74*
D01*
G03X195886Y353015I3015J4114*
G01*
X195886Y353015D01*
X163015Y353015D01*
X163015Y355166D01*
G75*
D01*
G03X165117Y358359I-1373J3193*
G01*
X165117Y358359D01*
X165117Y361642D01*
G74*
D01*
G03X161642Y365117I3475J0*
G01*
X161642Y365117D01*
X158359Y365117D01*
G75*
D01*
G03X155161Y363004I0J-3475*
G01*
X155161Y363004D01*
X104114Y363004D01*
G74*
D01*
G03X101471Y364872I4114J3015*
G01*
X101471Y364872D01*
X101642Y364872D01*
G75*
D01*
G03X105117Y368348I0J3476*
G01*
X105117Y368348D01*
X105117Y371631D01*
G74*
D01*
G03X101642Y375106I3475J0*
G01*
X101642Y375106D01*
X98359Y375106D01*
G75*
D01*
G03X94883Y371631I0J-3475*
G01*
X94883Y371631D01*
X94883Y368348D01*
G75*
D01*
G03X98359Y364872I3476J0*
G01*
X98359Y364872D01*
X98529Y364872D01*
G75*
D01*
G03X98995Y354989I1471J-4883*
G01*
G74*
D01*
G03X95886Y353004I1005J5000*
G01*
X95886Y353004D01*
X84839Y353004D01*
G74*
D01*
G03X81642Y355117I3197J1362*
G01*
X81642Y355117D01*
X81471Y355117D01*
G75*
D01*
G03X81005Y365000I-1471J4883*
G01*
G75*
D01*
G03X75886Y373015I-1005J5000*
G01*
X75886Y373015D01*
X26260Y373015D01*
G74*
D01*
G03X22792Y376267I3468J223*
G01*
X22792Y376267D01*
X17209Y376267D01*
G75*
D01*
G03X13733Y372792I0J-3475*
G01*
X13733Y372792D01*
X13733Y367209D01*
G75*
D01*
G03X17209Y363733I3476J0*
G01*
X17209Y363733D01*
X22792Y363733D01*
G74*
D01*
G03X26260Y366985I0J3476*
G01*
X26260Y366985D01*
X36985Y366985D01*
X36985Y340000D01*
G75*
D01*
G03X40000Y336985I3015J0*
G01*
X40000Y336985D01*
X59999Y336985D01*
G75*
D01*
G03X60038Y336986I1J3015*
G01*
G74*
D01*
G03X62134Y337871I38J3014*
G01*
X62134Y337871D01*
X71238Y346974D01*
X75171Y346974D01*
G75*
D01*
G03X78359Y344883I3188J1385*
G01*
X78359Y344883D01*
X81642Y344883D01*
G74*
D01*
G03X84829Y346974I0J3476*
G01*
X84829Y346974D01*
X95886Y346974D01*
G75*
D01*
G03X101005Y354989I4114J3015*
G01*
G74*
D01*
G03X104114Y356974I1005J5000*
G01*
X104114Y356974D01*
X116985Y356974D01*
X116985Y344114D01*
G75*
D01*
G03X116985Y335886I3015J-4114*
G01*
X116985Y335886D01*
X116985Y313015D01*
X100002Y313015D01*
G75*
D01*
G03X97868Y312132I-2J-3015*
G01*
X97868Y312132D01*
X92981Y307244D01*
X92981Y307244D01*
X78751Y293015D01*
X64114Y293015D01*
G75*
D01*
G03X64114Y286985I-4114J-3015*
G01*
X64114Y286985D01*
X74819Y286985D01*
X74819Y134114D01*
G74*
D01*
G03X73917Y133266I3014J4114*
G01*
G75*
D01*
G03X66985Y125886I-3917J-3266*
G01*
X66985Y125886D01*
X66985Y101249D01*
X65259Y99523D01*
G75*
D01*
G03X63015Y104336I-5259J477*
G01*
X63015Y104336D01*
X63015Y120000D01*
G74*
D01*
G03X60000Y123015I3015J0*
G01*
X60000Y123015D01*
X32167Y123015D01*
G75*
D01*
G03X31090Y122816I0J-3015*
G01*
G75*
D01*
G03X26734Y113917I-1090J-4983*
G01*
G75*
D01*
G03X26985Y105886I3266J-3917*
G01*
X26985Y105886D01*
X26985Y100006D01*
G75*
D01*
G03X27868Y97868I3015J-6*
G01*
X27868Y97868D01*
X47868Y77868D01*
G74*
D01*
G03X49294Y77069I2132J2132*
G01*
G75*
D01*
G03X50000Y76985I706J2931*
G01*
X50000Y76985D01*
X55664Y76985D01*
G74*
D01*
G03X58300Y75000I4336J3015*
G01*
G74*
D01*
G03X55664Y73015I1700J5000*
G01*
X55664Y73015D01*
X51249Y73015D01*
X44302Y79961D01*
G74*
D01*
G03X42167Y80848I2135J2128*
G01*
X42167Y80848D01*
X34114Y80848D01*
G75*
D01*
G03X26734Y73917I-4114J-3015*
G01*
G75*
D01*
G03X30777Y64960I3266J-3917*
G01*
X30777Y64960D01*
X37868Y57868D01*
G75*
D01*
G03X40002Y56985I2132J2132*
G01*
X40002Y56985D01*
X55664Y56985D01*
G74*
D01*
G03X58300Y55000I4336J3015*
G01*
G74*
D01*
G03X55664Y53015I1700J5000*
G01*
X55664Y53015D01*
X40000Y53015D01*
G75*
D01*
G03X38731Y52734I0J-3015*
G01*
G74*
D01*
G03X37868Y52132I1269J2734*
G01*
X37868Y52132D01*
X30777Y45040D01*
G75*
D01*
G03X29821Y34903I-777J-5040*
G01*
X29821Y34903D01*
X30000Y34724D01*
X30179Y34903D01*
G75*
D01*
G03X35040Y40777I-179J5097*
G01*
X35040Y40777D01*
X41249Y46985D01*
X55664Y46985D01*
G74*
D01*
G03X58300Y45000I4336J3015*
G01*
G75*
D01*
G03X58300Y35000I1700J-5000*
G01*
G75*
D01*
G03X61700Y35000I1700J-5000*
G01*
G75*
D01*
G03X61700Y45000I-1700J5000*
G01*
G75*
D01*
G03X61700Y55000I-1700J5000*
G01*
G75*
D01*
G03X61700Y65000I-1700J5000*
G01*
G75*
D01*
G03X61700Y75000I-1700J5000*
G01*
G75*
D01*
G03X61700Y85000I-1700J5000*
G01*
G75*
D01*
G03X65198Y90935I-1700J5000*
G01*
X65198Y90935D01*
X67244Y92981D01*
X72129Y97866D01*
G75*
D01*
G03X73015Y100000I-2129J2134*
G01*
X73015Y100000D01*
X73015Y125886D01*
G74*
D01*
G03X73917Y126734I3015J4114*
G01*
G75*
D01*
G03X80236Y125501I3916J3266*
G01*
X80236Y125501D01*
X86985Y118751D01*
X86985Y104336D01*
G75*
D01*
G03X94336Y96985I3015J-4336*
G01*
X94336Y96985D01*
X168751Y96985D01*
X170683Y95054D01*
G75*
D01*
G03X165117Y91471I-683J-5054*
G01*
X165117Y91471D01*
X165117Y91642D01*
G74*
D01*
G03X161642Y95117I3475J0*
G01*
X161642Y95117D01*
X158359Y95117D01*
G75*
D01*
G03X154883Y91642I0J-3475*
G01*
X154883Y91642D01*
X154883Y88359D01*
G75*
D01*
G03X158359Y84883I3476J0*
G01*
X158359Y84883D01*
X158529Y84883D01*
G74*
D01*
G03X155886Y83015I1471J4883*
G01*
X155886Y83015D01*
X94336Y83015D01*
G75*
D01*
G03X88300Y75000I-4336J-3015*
G01*
G75*
D01*
G03X88300Y65000I1700J-5000*
G01*
G75*
D01*
G03X88300Y55000I1700J-5000*
G01*
G75*
D01*
G03X88300Y45000I1700J-5000*
G01*
G75*
D01*
G03X88300Y35000I1700J-5000*
G01*
G75*
D01*
G03X91700Y35000I1700J-5000*
G01*
G75*
D01*
G03X91700Y45000I-1700J5000*
G01*
G74*
D01*
G03X94336Y46985I1700J5000*
G01*
X94336Y46985D01*
X115886Y46985D01*
G75*
D01*
G03X115886Y53015I4114J3015*
G01*
X115886Y53015D01*
X94336Y53015D01*
G74*
D01*
G03X91700Y55000I4336J3015*
G01*
G74*
D01*
G03X94336Y56985I1700J5000*
G01*
X94336Y56985D01*
X105886Y56985D01*
G75*
D01*
G03X105886Y63015I4114J3015*
G01*
X105886Y63015D01*
X94336Y63015D01*
G74*
D01*
G03X91700Y65000I4336J3015*
G01*
G74*
D01*
G03X94336Y66985I1700J5000*
G01*
X94336Y66985D01*
X155886Y66985D01*
G74*
D01*
G03X158995Y65000I4114J3015*
G01*
G75*
D01*
G03X158995Y55000I1005J-5000*
G01*
G75*
D01*
G03X165000Y48995I1005J-5000*
G01*
G75*
D01*
G03X171005Y55000I5000J1005*
G01*
G75*
D01*
G03X171005Y65000I-1005J5000*
G01*
G75*
D01*
G03X171005Y75000I-1005J5000*
G01*
G75*
D01*
G03X171005Y85000I-1005J5000*
G01*
G75*
D01*
G03X175054Y90683I-1005J5000*
G01*
X175054Y90683D01*
X181368Y84368D01*
G75*
D01*
G03X183504Y83485I2132J2132*
G01*
X183504Y83485D01*
X246985Y83485D01*
X246985Y54114D01*
G75*
D01*
G03X253015Y54114I3015J-4114*
G01*
X253015Y54114D01*
X253015Y83485D01*
X286500Y83485D01*
G74*
D01*
G03X288634Y84371I0J3015*
G01*
X288634Y84371D01*
X291249Y86985D01*
X296985Y86985D01*
X296985Y84834D01*
G74*
D01*
G03X294883Y81642I1374J3192*
G01*
X294883Y81642D01*
X294883Y78359D01*
G75*
D01*
G03X298359Y74883I3476J0*
G01*
X298359Y74883D01*
X298529Y74883D01*
G74*
D01*
G03X295886Y73015I1471J4883*
G01*
X295886Y73015D01*
X284114Y73015D01*
G75*
D01*
G03X284114Y66985I-4114J-3015*
G01*
X284114Y66985D01*
X295886Y66985D01*
G75*
D01*
G03X301471Y74883I4114J3015*
G01*
X301471Y74883D01*
X301642Y74883D01*
G75*
D01*
G03X305117Y78359I0J3476*
G01*
X305117Y78359D01*
X305117Y81642D01*
G74*
D01*
G03X303015Y84834I3475J0*
G01*
X303015Y84834D01*
X303015Y86985D01*
X358751Y86985D01*
X364802Y80935D01*
G75*
D01*
G03X368300Y75000I5198J-935*
G01*
G75*
D01*
G03X368300Y65000I1700J-5000*
G01*
G75*
D01*
G03X368300Y55000I1700J-5000*
G01*
G75*
D01*
G03X368300Y45000I1700J-5000*
G01*
G75*
D01*
G03X368300Y35000I1700J-5000*
G01*
G75*
D01*
G03X368300Y25000I1700J-5000*
G01*
G75*
D01*
G03X371700Y25000I1700J-5000*
G01*
G75*
D01*
G03X371700Y35000I-1700J5000*
G01*
G75*
D01*
G03X371700Y45000I-1700J5000*
G01*
G75*
D01*
G03X371700Y55000I-1700J5000*
G01*
G75*
D01*
G03X371700Y65000I-1700J5000*
G01*
G75*
D01*
G03X371700Y75000I-1700J5000*
G01*
G74*
D01*
G03X374336Y76985I1700J5000*
G01*
X374336Y76985D01*
X405886Y76985D01*
G75*
D01*
G03X413015Y84114I4114J3015*
G01*
X413015Y84114D01*
X413015Y85166D01*
G75*
D01*
G03X415117Y88359I-1373J3193*
G01*
X415117Y88359D01*
X415117Y91642D01*
G74*
D01*
G03X413015Y94834I3475J0*
G01*
X413015Y94834D01*
X413015Y105886D01*
G75*
D01*
G03X406985Y105886I-3015J4114*
G01*
X406985Y105886D01*
X406985Y94834D01*
G74*
D01*
G03X404883Y91642I1374J3192*
G01*
X404883Y91642D01*
X404883Y88359D01*
G75*
D01*
G03X406985Y85166I3476J0*
G01*
X406985Y85166D01*
X406985Y84114D01*
G74*
D01*
G03X405886Y83015I3015J4114*
G01*
X405886Y83015D01*
X374336Y83015D01*
G75*
D01*
G03X369065Y85198I-4336J-3015*
G01*
X369065Y85198D01*
X362134Y92129D01*
G74*
D01*
G03X360000Y93015I2134J2129*
G01*
X360000Y93015D01*
X290001Y93015D01*
G75*
D01*
G03X287868Y92132I-1J-3015*
G01*
X287868Y92132D01*
X285251Y89515D01*
X250879Y89515D01*
G75*
D01*
G03X250439Y89482I0J-3015*
G01*
G74*
D01*
G03X250000Y89515I439J2982*
G01*
X250000Y89515D01*
X184749Y89515D01*
X181282Y92981D01*
X181282Y92981D01*
X172134Y102129D01*
G74*
D01*
G03X170000Y103015I2134J2129*
G01*
X170000Y103015D01*
X94336Y103015D01*
G74*
D01*
G03X93015Y104336I4336J3015*
G01*
X93015Y104336D01*
X93015Y120000D01*
G74*
D01*
G03X92129Y122134I3015J0*
G01*
X92129Y122134D01*
X82682Y131581D01*
G74*
D01*
G03X80848Y134114I4849J1581*
G01*
X80848Y134114D01*
X80848Y286585D01*
X82129Y287866D01*
G74*
D01*
G03X82134Y287871I2129J2134*
G01*
X82134Y287871D01*
X92981Y298718D01*
X92981Y298718D01*
X101249Y306985D01*
X116985Y306985D01*
X116985Y283563D01*
G75*
D01*
G03X123015Y283563I3015J-3563*
G01*
X123015Y283563D01*
X123015Y335886D01*
G75*
D01*
G03X123015Y344114I-3015J4114*
G01*
X123015Y344114D01*
X123015Y356974D01*
X155171Y356974D01*
G74*
D01*
G03X156985Y355166I3188J1385*
G01*
X156985Y355166D01*
X156985Y324114D01*
G75*
D01*
G03X158995Y315000I3015J-4114*
G01*
G75*
D01*
G03X158995Y305000I1005J-5000*
G01*
G75*
D01*
G03X158995Y295000I1005J-5000*
G01*
G75*
D01*
G03X158995Y285000I1005J-5000*
G01*
G75*
D01*
G03X158995Y275000I1005J-5000*
G01*
G74*
D01*
G03X155886Y273015I1005J5000*
G01*
X155886Y273015D01*
X123563Y273015D01*
G75*
D01*
G03X123563Y266985I-3563J-3015*
G01*
X123563Y266985D01*
X155886Y266985D01*
G74*
D01*
G03X158995Y265000I4114J3015*
G01*
G74*
D01*
G03X155886Y263015I1005J5000*
G01*
X155886Y263015D01*
X144114Y263015D01*
G75*
D01*
G03X138995Y255000I-4114J-3015*
G01*
G75*
D01*
G03X144114Y246985I1005J-5000*
G01*
X144114Y246985D01*
X155886Y246985D01*
G74*
D01*
G03X158995Y245000I4114J3015*
G01*
G74*
D01*
G03X155886Y243015I1005J5000*
G01*
X155886Y243015D01*
X113015Y243015D01*
X113015Y256437D01*
G75*
D01*
G03X106985Y256437I-3015J3563*
G01*
X106985Y256437D01*
X106985Y240000D01*
G75*
D01*
G03X110000Y236985I3015J0*
G01*
X110000Y236985D01*
X155886Y236985D01*
G74*
D01*
G03X158995Y235000I4114J3015*
G01*
G74*
D01*
G03X155886Y233015I1005J5000*
G01*
X155886Y233015D01*
X130000Y233015D01*
G75*
D01*
G03X128932Y232819I0J-3015*
G01*
G74*
D01*
G03X127868Y232132I1068J2819*
G01*
X127868Y232132D01*
X113015Y217278D01*
X113015Y226886D01*
G75*
D01*
G03X106985Y226886I-3015J4114*
G01*
X106985Y226886D01*
X106985Y213015D01*
X94114Y213015D01*
G75*
D01*
G03X88529Y205117I-4114J-3015*
G01*
X88529Y205117D01*
X88359Y205117D01*
G75*
D01*
G03X84883Y201642I0J-3475*
G01*
X84883Y201642D01*
X84883Y198359D01*
G75*
D01*
G03X88359Y194883I3476J0*
G01*
X88359Y194883D01*
X91642Y194883D01*
G74*
D01*
G03X94834Y196985I0J3476*
G01*
X94834Y196985D01*
X109998Y196985D01*
G75*
D01*
G03X110266Y196997I2J3015*
G01*
G74*
D01*
G03X112134Y197871I266J3003*
G01*
X112134Y197871D01*
X116985Y202722D01*
X116985Y195114D01*
G75*
D01*
G03X123015Y195114I3015J-4114*
G01*
X123015Y195114D01*
X123015Y208751D01*
X131249Y216985D01*
X155886Y216985D01*
G74*
D01*
G03X158995Y215000I4114J3015*
G01*
G74*
D01*
G03X155886Y213015I1005J5000*
G01*
X155886Y213015D01*
X140000Y213015D01*
G75*
D01*
G03X139105Y212879I0J-3015*
G01*
G74*
D01*
G03X137868Y212132I895J2879*
G01*
X137868Y212132D01*
X127868Y202132D01*
G75*
D01*
G03X126985Y199995I2132J-2132*
G01*
X126985Y199995D01*
X126985Y174114D01*
G75*
D01*
G03X135000Y168995I3015J-4114*
G01*
G75*
D01*
G03X144114Y166985I5000J1005*
G01*
X144114Y166985D01*
X155886Y166985D01*
G74*
D01*
G03X158995Y165000I4114J3015*
G01*
G75*
D01*
G03X158995Y155000I1005J-5000*
G01*
G75*
D01*
G03X158995Y145000I1005J-5000*
G01*
G75*
D01*
G03X158995Y135000I1005J-5000*
G01*
G74*
D01*
G03X157907Y134651I1005J5000*
G01*
X157907Y134651D01*
X160000Y132558D01*
X162093Y134651D01*
G74*
D01*
G03X161005Y135000I2093J4651*
G01*
G75*
D01*
G03X161005Y145000I-1005J5000*
G01*
G75*
D01*
G03X161005Y155000I-1005J5000*
G01*
G74*
D01*
G03X164114Y156985I1005J5000*
G01*
X164114Y156985D01*
X168751Y156985D01*
X176985Y148751D01*
X176985Y110006D01*
G75*
D01*
G03X177868Y107868I3015J-6*
G01*
X177868Y107868D01*
X187868Y97868D01*
G74*
D01*
G03X189591Y97013I2132J2132*
G01*
G75*
D01*
G03X190000Y96985I409J2987*
G01*
X190000Y96985D01*
X379996Y96985D01*
G75*
D01*
G03X381007Y97159I4J3015*
G01*
G74*
D01*
G03X382134Y97871I1007J2841*
G01*
X382134Y97871D01*
X389223Y104960D01*
G75*
D01*
G03X384960Y109223I777J5040*
G01*
X384960Y109223D01*
X378751Y103015D01*
X191249Y103015D01*
X183015Y111249D01*
X183015Y150000D01*
G74*
D01*
G03X182129Y152134I3015J0*
G01*
X182129Y152134D01*
X172134Y162129D01*
G74*
D01*
G03X171007Y162841I2134J2129*
G01*
G75*
D01*
G03X169996Y163015I-1007J-2841*
G01*
X169996Y163015D01*
X164114Y163015D01*
G74*
D01*
G03X161005Y165000I4114J3015*
G01*
G75*
D01*
G03X161005Y175000I-1005J5000*
G01*
G75*
D01*
G03X161005Y185000I-1005J5000*
G01*
G75*
D01*
G03X161005Y195000I-1005J5000*
G01*
G75*
D01*
G03X161005Y205000I-1005J5000*
G01*
G75*
D01*
G03X161005Y215000I-1005J5000*
G01*
G75*
D01*
G03X161005Y225000I-1005J5000*
G01*
G75*
D01*
G03X161005Y235000I-1005J5000*
G01*
G75*
D01*
G03X161005Y245000I-1005J5000*
G01*
G75*
D01*
G03X161005Y255000I-1005J5000*
G01*
G75*
D01*
G03X161005Y265000I-1005J5000*
G01*
G75*
D01*
G03X161005Y275000I-1005J5000*
G01*
G75*
D01*
G03X161005Y285000I-1005J5000*
G01*
G75*
D01*
G03X161005Y295000I-1005J5000*
G01*
G75*
D01*
G03X161005Y305000I-1005J5000*
G01*
G75*
D01*
G03X161005Y315000I-1005J5000*
G01*
G75*
D01*
G03X163015Y324114I-1005J5000*
G01*
X163015Y324114D01*
X163015Y346985D01*
X195886Y346985D01*
G74*
D01*
G03X196985Y345886I4114J3015*
G01*
X196985Y345886D01*
X196985Y340004D01*
G75*
D01*
G03X197868Y337868I3015J-4*
G01*
X197868Y337868D01*
X214960Y320777D01*
G75*
D01*
G03X218995Y315000I5040J-777*
G01*
G75*
D01*
G03X218995Y305000I1005J-5000*
G01*
G75*
D01*
G03X218995Y295000I1005J-5000*
G01*
G75*
D01*
G03X218995Y285000I1005J-5000*
G01*
G75*
D01*
G03X218995Y275000I1005J-5000*
G01*
G75*
D01*
G03X218995Y265000I1005J-5000*
G01*
G75*
D01*
G03X218995Y255000I1005J-5000*
G01*
G75*
D01*
G03X218995Y245000I1005J-5000*
G01*
G75*
D01*
G03X218995Y235000I1005J-5000*
G01*
G75*
D01*
G03X218995Y225000I1005J-5000*
G01*
G75*
D01*
G03X218995Y215000I1005J-5000*
G01*
G75*
D01*
G03X218995Y205000I1005J-5000*
G01*
G75*
D01*
G03X218995Y195000I1005J-5000*
G01*
G75*
D01*
G03X218995Y185000I1005J-5000*
G01*
G75*
D01*
G03X218995Y175000I1005J-5000*
G01*
G75*
D01*
G03X218995Y165000I1005J-5000*
G01*
G75*
D01*
G03X218995Y155000I1005J-5000*
G01*
G75*
D01*
G03X218995Y145000I1005J-5000*
G01*
G74*
D01*
G03X215886Y143015I1005J5000*
G01*
X215886Y143015D01*
X210000Y143015D01*
G75*
D01*
G03X209105Y142879I0J-3015*
G01*
G74*
D01*
G03X207868Y142132I895J2879*
G01*
X207868Y142132D01*
X197868Y132132D01*
G75*
D01*
G03X196985Y129995I2132J-2132*
G01*
X196985Y129995D01*
X196985Y120004D01*
G75*
D01*
G03X197868Y117868I3015J-4*
G01*
X197868Y117868D01*
X204960Y110777D01*
G75*
D01*
G03X209223Y115040I5040J-777*
G01*
X209223Y115040D01*
X203015Y121249D01*
X203015Y128751D01*
X211249Y136985D01*
X215886Y136985D01*
G74*
D01*
G03X218995Y135000I4114J3015*
G01*
G75*
D01*
G03X224114Y126985I1005J-5000*
G01*
X224114Y126985D01*
X235886Y126985D01*
G75*
D01*
G03X235886Y133015I4114J3015*
G01*
X235886Y133015D01*
X224114Y133015D01*
G74*
D01*
G03X221005Y135000I4114J3015*
G01*
G75*
D01*
G03X221005Y145000I-1005J5000*
G01*
G75*
D01*
G03X221005Y155000I-1005J5000*
G01*
G75*
D01*
G03X221005Y165000I-1005J5000*
G01*
G74*
D01*
G03X224114Y166985I1005J5000*
G01*
X224114Y166985D01*
X265664Y166985D01*
G74*
D01*
G03X268300Y165000I4336J3015*
G01*
G75*
D01*
G03X268300Y155000I1700J-5000*
G01*
G75*
D01*
G03X268300Y145000I1700J-5000*
G01*
G74*
D01*
G03X265664Y143015I1700J5000*
G01*
X265664Y143015D01*
X254114Y143015D01*
G75*
D01*
G03X254114Y136985I-4114J-3015*
G01*
X254114Y136985D01*
X265664Y136985D01*
G74*
D01*
G03X268300Y135000I4336J3015*
G01*
G75*
D01*
G03X268300Y125000I1700J-5000*
G01*
G74*
D01*
G03X265664Y123015I1700J5000*
G01*
X265664Y123015D01*
X260525Y123015D01*
G75*
D01*
G03X260525Y116985I-4525J-3015*
G01*
X260525Y116985D01*
X265664Y116985D01*
G74*
D01*
G03X268607Y114906I4336J3015*
G01*
G75*
D01*
G03X274114Y106985I1393J-4906*
G01*
X274114Y106985D01*
X365886Y106985D01*
G75*
D01*
G03X371005Y115000I4114J3015*
G01*
G75*
D01*
G03X371005Y125000I-1005J5000*
G01*
G75*
D01*
G03X371005Y135000I-1005J5000*
G01*
G75*
D01*
G03X371005Y145000I-1005J5000*
G01*
G75*
D01*
G03X371005Y155000I-1005J5000*
G01*
G75*
D01*
G03X371005Y165000I-1005J5000*
G01*
G74*
D01*
G03X374114Y166985I1005J5000*
G01*
X374114Y166985D01*
X508751Y166985D01*
X514960Y160777D01*
G75*
D01*
G03X519223Y165040I5040J-777*
G01*
X519223Y165040D01*
X512134Y172129D01*
G74*
D01*
G03X510000Y173015I2134J2129*
G01*
X510000Y173015D01*
X374114Y173015D01*
G74*
D01*
G03X371471Y174883I4114J3015*
G01*
X371471Y174883D01*
X371642Y174883D01*
G75*
D01*
G03X375117Y178359I0J3476*
G01*
X375117Y178359D01*
X375117Y181642D01*
G74*
D01*
G03X371642Y185117I3475J0*
G01*
X371642Y185117D01*
X368359Y185117D01*
G75*
D01*
G03X365166Y183015I0J-3475*
G01*
X365166Y183015D01*
X304336Y183015D01*
G74*
D01*
G03X301700Y185000I4336J3015*
G01*
G74*
D01*
G03X304336Y186985I1700J5000*
G01*
X304336Y186985D01*
X339996Y186985D01*
G75*
D01*
G03X341143Y187211I4J3015*
G01*
G74*
D01*
G03X342134Y187871I1143J2789*
G01*
X342134Y187871D01*
X376445Y222182D01*
X376446Y222182D01*
X431249Y276985D01*
X455886Y276985D01*
G75*
D01*
G03X463015Y284114I4114J3015*
G01*
X463015Y284114D01*
X463015Y298751D01*
X470934Y306671D01*
X471249Y306985D01*
X496985Y306985D01*
X496985Y290006D01*
G75*
D01*
G03X497868Y287868I3015J-6*
G01*
X497868Y287868D01*
X503780Y281957D01*
X507868Y277868D01*
G74*
D01*
G03X509591Y277013I2132J2132*
G01*
G75*
D01*
G03X510000Y276985I409J2987*
G01*
X510000Y276985D01*
X515664Y276985D01*
G74*
D01*
G03X518300Y275000I4336J3015*
G01*
G75*
D01*
G03X518300Y265000I1700J-5000*
G01*
G75*
D01*
G03X518300Y255000I1700J-5000*
G01*
G75*
D01*
G03X518300Y245000I1700J-5000*
G01*
G75*
D01*
G03X518300Y235000I1700J-5000*
G01*
G75*
D01*
G03X518300Y225000I1700J-5000*
G01*
G75*
D01*
G03X518300Y215000I1700J-5000*
G01*
G75*
D01*
G03X518300Y205000I1700J-5000*
G01*
G75*
D01*
G03X518300Y195000I1700J-5000*
G01*
G75*
D01*
G03X524336Y186985I1700J-5000*
G01*
X524336Y186985D01*
X605886Y186985D01*
G75*
D01*
G03X605886Y193015I4114J3015*
G01*
X605886Y193015D01*
X524336Y193015D01*
G74*
D01*
G03X521700Y195000I4336J3015*
G01*
G74*
D01*
G03X524336Y196985I1700J5000*
G01*
X524336Y196985D01*
X595886Y196985D01*
G75*
D01*
G03X595886Y203015I4114J3015*
G01*
X595886Y203015D01*
X524336Y203015D01*
G74*
D01*
G03X521700Y205000I4336J3015*
G01*
G74*
D01*
G03X524336Y206985I1700J5000*
G01*
X524336Y206985D01*
X585886Y206985D01*
G75*
D01*
G03X585886Y213015I4114J3015*
G01*
X585886Y213015D01*
X524336Y213015D01*
G74*
D01*
G03X521700Y215000I4336J3015*
G01*
G74*
D01*
G03X524336Y216985I1700J5000*
G01*
X524336Y216985D01*
X575886Y216985D01*
G75*
D01*
G03X575886Y223015I4114J3015*
G01*
X575886Y223015D01*
X524336Y223015D01*
G74*
D01*
G03X521700Y225000I4336J3015*
G01*
G74*
D01*
G03X524336Y226985I1700J5000*
G01*
X524336Y226985D01*
X565886Y226985D01*
G75*
D01*
G03X565886Y233015I4114J3015*
G01*
X565886Y233015D01*
X524336Y233015D01*
G74*
D01*
G03X521700Y235000I4336J3015*
G01*
G74*
D01*
G03X524336Y236985I1700J5000*
G01*
X524336Y236985D01*
X555886Y236985D01*
G75*
D01*
G03X555886Y243015I4114J3015*
G01*
X555886Y243015D01*
X524336Y243015D01*
G74*
D01*
G03X521700Y245000I4336J3015*
G01*
G74*
D01*
G03X524336Y246985I1700J5000*
G01*
X524336Y246985D01*
X545886Y246985D01*
G75*
D01*
G03X545886Y253015I4114J3015*
G01*
X545886Y253015D01*
X524336Y253015D01*
G74*
D01*
G03X521700Y255000I4336J3015*
G01*
G74*
D01*
G03X524336Y256985I1700J5000*
G01*
X524336Y256985D01*
X535886Y256985D01*
G75*
D01*
G03X535886Y263015I4114J3015*
G01*
X535886Y263015D01*
X524336Y263015D01*
G74*
D01*
G03X521700Y265000I4336J3015*
G01*
G74*
D01*
G03X524336Y266985I1700J5000*
G01*
X524336Y266985D01*
X530000Y266985D01*
G74*
D01*
G03X532134Y267871I0J3015*
G01*
X532134Y267871D01*
X542129Y277866D01*
G75*
D01*
G03X543015Y280000I-2129J2134*
G01*
X543015Y280000D01*
X543015Y290000D01*
G74*
D01*
G03X542129Y292134I3015J0*
G01*
X542129Y292134D01*
X532134Y302129D01*
G74*
D01*
G03X530000Y303015I2134J2129*
G01*
X530000Y303015D01*
X524114Y303015D01*
G75*
D01*
G03X524114Y296985I-4114J-3015*
G01*
X524114Y296985D01*
X528751Y296985D01*
X536985Y288751D01*
X536985Y281249D01*
X528751Y273015D01*
X524336Y273015D01*
G74*
D01*
G03X521700Y275000I4336J3015*
G01*
G75*
D01*
G03X515664Y283015I-1700J5000*
G01*
X515664Y283015D01*
X511249Y283015D01*
X503015Y291249D01*
X503015Y306985D01*
X608751Y306985D01*
X616985Y298751D01*
X616985Y111249D01*
X608751Y103015D01*
X604114Y103015D01*
G75*
D01*
G03X595886Y103015I-4114J-3015*
G01*
X595886Y103015D01*
X554114Y103015D01*
G75*
D01*
G03X545886Y103015I-4114J-3015*
G01*
X545886Y103015D01*
X494336Y103015D01*
G75*
D01*
G03X488300Y95000I-4336J-3015*
G01*
G75*
D01*
G03X488300Y85000I1700J-5000*
G01*
G75*
D01*
G03X488300Y75000I1700J-5000*
G01*
G75*
D01*
G03X488300Y65000I1700J-5000*
G01*
G74*
D01*
G03X485664Y63015I1700J5000*
G01*
X485664Y63015D01*
X483015Y63015D01*
X483015Y115886D01*
G74*
D01*
G03X485000Y118995I3015J4114*
G01*
G75*
D01*
G03X495000Y118995I5000J1005*
G01*
G74*
D01*
G03X496985Y115886I5000J1005*
G01*
X496985Y115886D01*
X496985Y114114D01*
G75*
D01*
G03X505000Y108995I3015J-4114*
G01*
G75*
D01*
G03X513015Y114114I5000J1005*
G01*
X513015Y114114D01*
X513015Y115166D01*
G75*
D01*
G03X515117Y118359I-1374J3193*
G01*
X515117Y118359D01*
X515117Y121642D01*
G74*
D01*
G03X511641Y125117I3476J0*
G01*
X511641Y125117D01*
X508359Y125117D01*
G75*
D01*
G03X504883Y121642I0J-3475*
G01*
X504883Y121642D01*
X504883Y121471D01*
G75*
D01*
G03X495000Y121005I-4883J-1471*
G01*
G74*
D01*
G03X493015Y124114I5000J1005*
G01*
X493015Y124114D01*
X493015Y126985D01*
X515886Y126985D01*
G75*
D01*
G03X515886Y133015I4114J3015*
G01*
X515886Y133015D01*
X490000Y133015D01*
G75*
D01*
G03X486985Y130000I0J-3015*
G01*
X486985Y130000D01*
X486985Y124114D01*
G74*
D01*
G03X485000Y121005I3015J4114*
G01*
G75*
D01*
G03X475000Y121005I-5000J-1005*
G01*
G75*
D01*
G03X465000Y121005I-5000J-1005*
G01*
G74*
D01*
G03X463015Y124114I5000J1005*
G01*
X463015Y124114D01*
X463015Y130000D01*
G74*
D01*
G03X460000Y133015I3015J0*
G01*
X460000Y133015D01*
X404114Y133015D01*
G75*
D01*
G03X404114Y126985I-4114J-3015*
G01*
X404114Y126985D01*
X456985Y126985D01*
X456985Y124114D01*
G74*
D01*
G03X455000Y121005I3015J4114*
G01*
G75*
D01*
G03X445000Y121005I-5000J-1005*
G01*
G75*
D01*
G03X436985Y115886I-5000J-1005*
G01*
X436985Y115886D01*
X436985Y104114D01*
G75*
D01*
G03X443015Y104114I3015J-4114*
G01*
X443015Y104114D01*
X443015Y115886D01*
G74*
D01*
G03X445000Y118995I3015J4114*
G01*
G74*
D01*
G03X446985Y115886I5000J1005*
G01*
X446985Y115886D01*
X446985Y90879D01*
G75*
D01*
G03X450000Y87864I3015J0*
G01*
X450000Y87864D01*
X455170Y87864D01*
G74*
D01*
G03X458300Y85000I4830J2136*
G01*
G74*
D01*
G03X455664Y83015I1700J5000*
G01*
X455664Y83015D01*
X434114Y83015D01*
G75*
D01*
G03X434114Y76985I-4114J-3015*
G01*
X434114Y76985D01*
X455664Y76985D01*
G74*
D01*
G03X458300Y75000I4336J3015*
G01*
G74*
D01*
G03X455664Y73015I1700J5000*
G01*
X455664Y73015D01*
X444114Y73015D01*
G75*
D01*
G03X444114Y66985I-4114J-3015*
G01*
X444114Y66985D01*
X455664Y66985D01*
G74*
D01*
G03X458300Y65000I4336J3015*
G01*
G74*
D01*
G03X455664Y63015I1700J5000*
G01*
X455664Y63015D01*
X404114Y63015D01*
G75*
D01*
G03X404114Y56985I-4114J-3015*
G01*
X404114Y56985D01*
X455664Y56985D01*
G74*
D01*
G03X458300Y55000I4336J3015*
G01*
G74*
D01*
G03X455664Y53015I1700J5000*
G01*
X455664Y53015D01*
X444834Y53015D01*
G74*
D01*
G03X441641Y55117I3193J1373*
G01*
X441641Y55117D01*
X438359Y55117D01*
G75*
D01*
G03X435166Y53015I0J-3475*
G01*
X435166Y53015D01*
X434114Y53015D01*
G75*
D01*
G03X434114Y46985I-4114J-3015*
G01*
X434114Y46985D01*
X435166Y46985D01*
G75*
D01*
G03X438359Y44883I3193J1374*
G01*
X438359Y44883D01*
X438529Y44883D01*
G75*
D01*
G03X434960Y39223I1471J-4883*
G01*
X434960Y39223D01*
X430777Y35040D01*
G75*
D01*
G03X435040Y30777I-777J-5040*
G01*
X435040Y30777D01*
X439223Y34960D01*
G75*
D01*
G03X444114Y36985I777J5040*
G01*
X444114Y36985D01*
X455664Y36985D01*
G75*
D01*
G03X461700Y45000I4336J3015*
G01*
G75*
D01*
G03X461700Y55000I-1700J5000*
G01*
G75*
D01*
G03X461700Y65000I-1700J5000*
G01*
G75*
D01*
G03X461700Y75000I-1700J5000*
G01*
G75*
D01*
G03X461700Y85000I-1700J5000*
G01*
G75*
D01*
G03X461700Y95000I-1700J5000*
G01*
G75*
D01*
G03X465198Y100935I-1700J5000*
G01*
X465198Y100935D01*
X470934Y106671D01*
X470934Y106671D01*
X472129Y107866D01*
G75*
D01*
G03X473015Y110000I-2129J2134*
G01*
X473015Y110000D01*
X473015Y115886D01*
G74*
D01*
G03X475000Y118995I3015J4114*
G01*
G74*
D01*
G03X476985Y115886I5000J1005*
G01*
X476985Y115886D01*
X476985Y60000D01*
G75*
D01*
G03X480000Y56985I3015J0*
G01*
X480000Y56985D01*
X485664Y56985D01*
G74*
D01*
G03X488300Y55000I4336J3015*
G01*
G74*
D01*
G03X485664Y53015I1700J5000*
G01*
X485664Y53015D01*
X480004Y53015D01*
G75*
D01*
G03X477868Y52132I-4J-3015*
G01*
X477868Y52132D01*
X470934Y45197D01*
X470934Y45197D01*
X467868Y42132D01*
G75*
D01*
G03X466985Y39996I2132J-2132*
G01*
X466985Y39996D01*
X466985Y21249D01*
X458751Y13015D01*
X214114Y13015D01*
G75*
D01*
G03X214114Y6985I-4114J-3015*
G01*
X214114Y6985D01*
X460000Y6985D01*
G74*
D01*
G03X462134Y7871I0J3015*
G01*
X462134Y7871D01*
X470934Y16671D01*
X472129Y17866D01*
G75*
D01*
G03X473015Y20000I-2129J2134*
G01*
X473015Y20000D01*
X473015Y38751D01*
X481249Y46985D01*
X485664Y46985D01*
G74*
D01*
G03X488300Y45000I4336J3015*
G01*
G75*
D01*
G03X488300Y35000I1700J-5000*
G01*
G75*
D01*
G03X494336Y26985I1700J-5000*
G01*
X494336Y26985D01*
X535166Y26985D01*
G75*
D01*
G03X538359Y24883I3193J1374*
G01*
X538359Y24883D01*
X541642Y24883D01*
G74*
D01*
G03X544834Y26985I0J3476*
G01*
X544834Y26985D01*
X555886Y26985D01*
G75*
D01*
G03X555886Y33015I4114J3015*
G01*
X555886Y33015D01*
X544834Y33015D01*
G74*
D01*
G03X541642Y35117I3192J1373*
G01*
X541642Y35117D01*
X541471Y35117D01*
G74*
D01*
G03X544114Y36985I1471J4883*
G01*
X544114Y36985D01*
X550000Y36985D01*
G74*
D01*
G03X552134Y37871I0J3015*
G01*
X552134Y37871D01*
X559223Y44960D01*
G75*
D01*
G03X554960Y49223I777J5040*
G01*
X554960Y49223D01*
X548751Y43015D01*
X544114Y43015D01*
G74*
D01*
G03X541005Y45000I4114J3015*
G01*
G75*
D01*
G03X535886Y53015I-1005J5000*
G01*
X535886Y53015D01*
X494336Y53015D01*
G74*
D01*
G03X491700Y55000I4336J3015*
G01*
G75*
D01*
G03X491700Y65000I-1700J5000*
G01*
G74*
D01*
G03X494336Y66985I1700J5000*
G01*
X494336Y66985D01*
X505886Y66985D01*
G75*
D01*
G03X514114Y66985I4114J3015*
G01*
X514114Y66985D01*
X569997Y66985D01*
G75*
D01*
G03X570814Y67098I3J3015*
G01*
G74*
D01*
G03X572134Y67871I814J2902*
G01*
X572134Y67871D01*
X591249Y86985D01*
X595886Y86985D01*
G75*
D01*
G03X601005Y95000I4114J3015*
G01*
G74*
D01*
G03X604114Y96985I1005J5000*
G01*
X604114Y96985D01*
X610000Y96985D01*
G74*
D01*
G03X612134Y97871I0J3015*
G01*
X612134Y97871D01*
X622129Y107866D01*
G75*
D01*
G03X623015Y110000I-2129J2134*
G01*
X623015Y110000D01*
X623015Y300000D01*
G74*
D01*
G03X622129Y302134I3015J0*
G01*
X622129Y302134D01*
X612134Y312129D01*
G74*
D01*
G03X611007Y312841I2134J2129*
G01*
G75*
D01*
G03X609996Y313015I-1007J-2841*
G01*
X609996Y313015D01*
X471249Y313015D01*
X470934Y313329D01*
X407818Y376445D01*
X402134Y382129D01*
G74*
D01*
G03X400000Y383015I2134J2129*
G01*
X400000Y383015D01*
X220003Y383015D01*
D02*
G37*
G36*
X195141Y376446D02*
G75*
D01*
G03X195141Y376446I-5141J3554*
G01*
D02*
G37*
G36*
X164525Y383015D02*
X164525Y383015D01*
X124114Y383015D01*
G75*
D01*
G03X124114Y376985I-4114J-3015*
G01*
X124114Y376985D01*
X164525Y376985D01*
G75*
D01*
G03X164525Y383015I5475J3015*
G01*
D02*
G37*
G36*
X94938Y91873D02*
G74*
D01*
G03X91873Y94938I4938J1873*
G01*
X91873Y94938D01*
X91873Y91873D01*
X94938Y91873D01*
D02*
G37*
G36*
X91873Y85062D02*
G74*
D01*
G03X94938Y88127I1873J4938*
G01*
X94938Y88127D01*
X91873Y88127D01*
X91873Y85062D01*
D02*
G37*
G36*
X85062Y91873D02*
X85062Y91873D01*
X88127Y91873D01*
X88127Y94938D01*
G74*
D01*
G03X85062Y91873I1873J4938*
G01*
D02*
G37*
G36*
X384114Y213015D02*
G75*
D01*
G03X384114Y206985I-4114J-3015*
G01*
X384114Y206985D01*
X395886Y206985D01*
G75*
D01*
G03X395886Y213015I4114J3015*
G01*
X395886Y213015D01*
X384114Y213015D01*
D02*
G37*
G36*
X494938Y188127D02*
X494938Y188127D01*
X491873Y188127D01*
X491873Y185062D01*
G74*
D01*
G03X494938Y188127I1873J4938*
G01*
D02*
G37*
G36*
X485062Y188127D02*
G74*
D01*
G03X488127Y185062I4938J1873*
G01*
X488127Y185062D01*
X488127Y188127D01*
X485062Y188127D01*
D02*
G37*
G36*
X483015Y295886D02*
G75*
D01*
G03X476985Y295886I-3015J4114*
G01*
X476985Y295886D01*
X476985Y263015D01*
X434114Y263015D01*
G75*
D01*
G03X429821Y254903I-4114J-3015*
G01*
X429821Y254903D01*
X430000Y254724D01*
X430179Y254903D01*
G74*
D01*
G03X434114Y256985I179J5097*
G01*
X434114Y256985D01*
X478751Y256985D01*
X484802Y250935D01*
G75*
D01*
G03X488300Y245000I5198J-935*
G01*
G74*
D01*
G03X485664Y243015I1700J5000*
G01*
X485664Y243015D01*
X464114Y243015D01*
G75*
D01*
G03X454960Y239223I-4114J-3015*
G01*
X454960Y239223D01*
X418751Y203015D01*
X414114Y203015D01*
G75*
D01*
G03X414114Y196985I-4114J-3015*
G01*
X414114Y196985D01*
X420000Y196985D01*
G74*
D01*
G03X422134Y197871I0J3015*
G01*
X422134Y197871D01*
X459223Y234960D01*
G75*
D01*
G03X464114Y236985I777J5040*
G01*
X464114Y236985D01*
X485664Y236985D01*
G74*
D01*
G03X488300Y235000I4336J3015*
G01*
G74*
D01*
G03X485664Y233015I1700J5000*
G01*
X485664Y233015D01*
X470001Y233015D01*
G75*
D01*
G03X467868Y232132I-1J-3015*
G01*
X467868Y232132D01*
X430777Y195040D01*
G75*
D01*
G03X435040Y190777I-777J-5040*
G01*
X435040Y190777D01*
X470934Y226671D01*
X471249Y226985D01*
X485664Y226985D01*
G75*
D01*
G03X491700Y235000I4336J3015*
G01*
G74*
D01*
G03X494336Y236985I1700J5000*
G01*
X494336Y236985D01*
X494997Y236985D01*
G75*
D01*
G03X495634Y237053I3J3015*
G01*
G74*
D01*
G03X497134Y237871I634J2947*
G01*
X497134Y237871D01*
X502129Y242866D01*
G75*
D01*
G03X503015Y245000I-2129J2134*
G01*
X503015Y245000D01*
X503015Y255000D01*
G74*
D01*
G03X502129Y257134I3015J0*
G01*
X502129Y257134D01*
X497134Y262129D01*
G74*
D01*
G03X495000Y263015I2134J2129*
G01*
X495000Y263015D01*
X494336Y263015D01*
G74*
D01*
G03X491700Y265000I4336J3015*
G01*
G74*
D01*
G03X494336Y266985I1700J5000*
G01*
X494336Y266985D01*
X498751Y266985D01*
X506985Y258751D01*
X506985Y191249D01*
X503206Y187469D01*
X498751Y183015D01*
X394114Y183015D01*
G75*
D01*
G03X394114Y176985I-4114J-3015*
G01*
X394114Y176985D01*
X499996Y176985D01*
G75*
D01*
G03X501007Y177159I4J3015*
G01*
G74*
D01*
G03X502134Y177871I1007J2841*
G01*
X502134Y177871D01*
X511732Y187469D01*
X512129Y187866D01*
G75*
D01*
G03X513015Y190000I-2129J2134*
G01*
X513015Y190000D01*
X513015Y260000D01*
G74*
D01*
G03X512129Y262134I3015J0*
G01*
X512129Y262134D01*
X502134Y272129D01*
G74*
D01*
G03X500000Y273015I2134J2129*
G01*
X500000Y273015D01*
X494336Y273015D01*
G74*
D01*
G03X491700Y275000I4336J3015*
G01*
G75*
D01*
G03X493015Y284336I-1700J5000*
G01*
X493015Y284336D01*
X493015Y285886D01*
G75*
D01*
G03X486985Y285886I-3015J4114*
G01*
X486985Y285886D01*
X486985Y284336D01*
G75*
D01*
G03X488300Y275000I3015J-4336*
G01*
G75*
D01*
G03X488300Y265000I1700J-5000*
G01*
G75*
D01*
G03X484741Y259523I1700J-5000*
G01*
X484741Y259523D01*
X483015Y261249D01*
X483015Y295886D01*
D02*
G37*
G36*
X188191Y54769D02*
G74*
D01*
G03X185231Y51809I1809J4769*
G01*
X185231Y51809D01*
X188191Y51809D01*
X188191Y54769D01*
D02*
G37*
G36*
X188191Y45231D02*
X188191Y45231D01*
X188191Y48191D01*
X185231Y48191D01*
G74*
D01*
G03X188191Y45231I4769J1809*
G01*
D02*
G37*
G36*
X134114Y26985D02*
X134114Y26985D01*
X240000Y26985D01*
G74*
D01*
G03X240439Y27018I0J3015*
G01*
G75*
D01*
G03X240879Y26985I440J2982*
G01*
X240879Y26985D01*
X275886Y26985D01*
G75*
D01*
G03X275886Y33015I4114J3015*
G01*
X275886Y33015D01*
X243015Y33015D01*
X243015Y35886D01*
G75*
D01*
G03X236985Y35886I-3015J4114*
G01*
X236985Y35886D01*
X236985Y33015D01*
X134114Y33015D01*
G75*
D01*
G03X134114Y26985I-4114J-3015*
G01*
D02*
G37*
G36*
X144114Y23015D02*
G75*
D01*
G03X144114Y16985I-4114J-3015*
G01*
X144114Y16985D01*
X290000Y16985D01*
G74*
D01*
G03X292134Y17871I0J3015*
G01*
X292134Y17871D01*
X311249Y36985D01*
X335664Y36985D01*
G74*
D01*
G03X338300Y35000I4336J3015*
G01*
G74*
D01*
G03X335664Y33015I1700J5000*
G01*
X335664Y33015D01*
X324114Y33015D01*
G75*
D01*
G03X324114Y26985I-4114J-3015*
G01*
X324114Y26985D01*
X335664Y26985D01*
G75*
D01*
G03X341700Y35000I4336J3015*
G01*
G74*
D01*
G03X344336Y36985I1700J5000*
G01*
X344336Y36985D01*
X350000Y36985D01*
G74*
D01*
G03X352134Y37871I0J3015*
G01*
X352134Y37871D01*
X362129Y47866D01*
G75*
D01*
G03X363015Y50000I-2129J2134*
G01*
X363015Y50000D01*
X363015Y60000D01*
G74*
D01*
G03X362129Y62134I3015J0*
G01*
X362129Y62134D01*
X352134Y72129D01*
G74*
D01*
G03X350000Y73015I2134J2129*
G01*
X350000Y73015D01*
X344336Y73015D01*
G74*
D01*
G03X341700Y75000I4336J3015*
G01*
G75*
D01*
G03X335664Y83015I-1700J5000*
G01*
X335664Y83015D01*
X334114Y83015D01*
G75*
D01*
G03X334114Y76985I-4114J-3015*
G01*
X334114Y76985D01*
X335664Y76985D01*
G74*
D01*
G03X338300Y75000I4336J3015*
G01*
G75*
D01*
G03X338300Y65000I1700J-5000*
G01*
G74*
D01*
G03X335664Y63015I1700J5000*
G01*
X335664Y63015D01*
X314114Y63015D01*
G75*
D01*
G03X314114Y56985I-4114J-3015*
G01*
X314114Y56985D01*
X335664Y56985D01*
G74*
D01*
G03X338300Y55000I4336J3015*
G01*
G74*
D01*
G03X335664Y53015I1700J5000*
G01*
X335664Y53015D01*
X274114Y53015D01*
G75*
D01*
G03X274114Y46985I-4114J-3015*
G01*
X274114Y46985D01*
X335664Y46985D01*
G74*
D01*
G03X338300Y45000I4336J3015*
G01*
G74*
D01*
G03X335664Y43015I1700J5000*
G01*
X335664Y43015D01*
X310003Y43015D01*
G75*
D01*
G03X307868Y42132I-3J-3015*
G01*
X307868Y42132D01*
X288751Y23015D01*
X144114Y23015D01*
D02*
G37*
G36*
X565231Y121809D02*
X565231Y121809D01*
X568191Y121809D01*
X568191Y124769D01*
G74*
D01*
G03X565231Y121809I1809J4769*
G01*
D02*
G37*
G36*
X565231Y118191D02*
G74*
D01*
G03X568191Y115231I4769J1809*
G01*
X568191Y115231D01*
X568191Y118191D01*
X565231Y118191D01*
D02*
G37*
G36*
X534114Y146985D02*
X534114Y146985D01*
X565886Y146985D01*
G75*
D01*
G03X573015Y154114I4114J3015*
G01*
X573015Y154114D01*
X573015Y165886D01*
G75*
D01*
G03X566985Y165886I-3015J4114*
G01*
X566985Y165886D01*
X566985Y154114D01*
G74*
D01*
G03X565886Y153015I3015J4114*
G01*
X565886Y153015D01*
X534114Y153015D01*
G75*
D01*
G03X525886Y153015I-4114J-3015*
G01*
X525886Y153015D01*
X414114Y153015D01*
G75*
D01*
G03X414114Y146985I-4114J-3015*
G01*
X414114Y146985D01*
X525886Y146985D01*
G75*
D01*
G03X534114Y146985I4114J3015*
G01*
D02*
G37*
G36*
X94114Y273015D02*
G75*
D01*
G03X94114Y266985I-4114J-3015*
G01*
X94114Y266985D01*
X106437Y266985D01*
G75*
D01*
G03X106437Y273015I3563J3015*
G01*
X106437Y273015D01*
X94114Y273015D01*
D02*
G37*
G36*
X106985Y283902D02*
G74*
D01*
G03X105483Y281042I1974J2860*
G01*
X105483Y281042D01*
X105483Y278959D01*
G75*
D01*
G03X108959Y275483I3476J0*
G01*
X108959Y275483D01*
X111042Y275483D01*
G75*
D01*
G03X114517Y278959I0J3476*
G01*
X114517Y278959D01*
X114517Y281042D01*
G74*
D01*
G03X113015Y283902I3475J0*
G01*
X113015Y283902D01*
X113015Y295886D01*
G75*
D01*
G03X106985Y295886I-3015J4114*
G01*
X106985Y295886D01*
X106985Y283902D01*
D02*
G37*
G36*
X418191Y94769D02*
G74*
D01*
G03X415231Y91809I1809J4769*
G01*
X415231Y91809D01*
X418191Y91809D01*
X418191Y94769D01*
D02*
G37*
G36*
X421809Y94769D02*
X421809Y94769D01*
X421809Y91809D01*
X424769Y91809D01*
G74*
D01*
G03X421809Y94769I4769J1809*
G01*
D02*
G37*
G36*
X415231Y381809D02*
X415231Y381809D01*
X418191Y381809D01*
X418191Y384769D01*
G74*
D01*
G03X415231Y381809I1809J4769*
G01*
D02*
G37*
G36*
X421809Y384769D02*
X421809Y384769D01*
X421809Y381809D01*
X424769Y381809D01*
G74*
D01*
G03X421809Y384769I4769J1809*
G01*
D02*
G37*
G36*
X418425Y380000D02*
G75*
D01*
G03X418425Y380000I1575J0*
G01*
D02*
G37*
G36*
X165231Y361809D02*
X165231Y361809D01*
X168191Y361809D01*
X168191Y364769D01*
G74*
D01*
G03X165231Y361809I1809J4769*
G01*
D02*
G37*
G36*
X168191Y355231D02*
X168191Y355231D01*
X168191Y358191D01*
X165231Y358191D01*
G74*
D01*
G03X168191Y355231I4769J1809*
G01*
D02*
G37*
G36*
X171809Y364769D02*
X171809Y364769D01*
X171809Y361809D01*
X174769Y361809D01*
G74*
D01*
G03X171809Y364769I4769J1809*
G01*
D02*
G37*
G36*
X174769Y358191D02*
X174769Y358191D01*
X171809Y358191D01*
X171809Y355231D01*
G74*
D01*
G03X174769Y358191I1809J4769*
G01*
D02*
G37*
G36*
X168031Y360000D02*
G75*
D01*
G03X168031Y360000I1969J0*
G01*
D02*
G37*
G36*
X485062Y221873D02*
X485062Y221873D01*
X488127Y221873D01*
X488127Y224938D01*
G74*
D01*
G03X485062Y221873I1873J4938*
G01*
D02*
G37*
G36*
X491873Y224938D02*
X491873Y224938D01*
X491873Y221873D01*
X494938Y221873D01*
G74*
D01*
G03X491873Y224938I4938J1873*
G01*
D02*
G37*
G36*
X494938Y218127D02*
X494938Y218127D01*
X491873Y218127D01*
X491873Y215062D01*
G74*
D01*
G03X494938Y218127I1873J4938*
G01*
D02*
G37*
G36*
X488425Y220000D02*
G75*
D01*
G03X488425Y220000I1575J0*
G01*
D02*
G37*
G36*
X488127Y215062D02*
X488127Y215062D01*
X488127Y218127D01*
X485062Y218127D01*
G74*
D01*
G03X488127Y215062I4938J1873*
G01*
D02*
G37*
G36*
X488425Y210000D02*
G75*
D01*
G03X488425Y210000I1575J0*
G01*
D02*
G37*
G36*
X488127Y205062D02*
X488127Y205062D01*
X488127Y208127D01*
X485062Y208127D01*
G74*
D01*
G03X488127Y205062I4938J1873*
G01*
D02*
G37*
G36*
X491873Y194938D02*
X491873Y194938D01*
X491873Y191873D01*
X494938Y191873D01*
G74*
D01*
G03X491873Y194938I4938J1873*
G01*
D02*
G37*
G36*
X485062Y191873D02*
X485062Y191873D01*
X488127Y191873D01*
X488127Y194938D01*
G74*
D01*
G03X485062Y191873I1873J4938*
G01*
D02*
G37*
G36*
X484719Y200000D02*
G75*
D01*
G03X484719Y200000I5281J0*
G01*
D02*
G37*
G36*
X494938Y208127D02*
X494938Y208127D01*
X491873Y208127D01*
X491873Y205062D01*
G74*
D01*
G03X494938Y208127I1873J4938*
G01*
D02*
G37*
G36*
X491873Y214938D02*
X491873Y214938D01*
X491873Y211873D01*
X494938Y211873D01*
G74*
D01*
G03X491873Y214938I4938J1873*
G01*
D02*
G37*
G36*
X485062Y211873D02*
X485062Y211873D01*
X488127Y211873D01*
X488127Y214938D01*
G74*
D01*
G03X485062Y211873I1873J4938*
G01*
D02*
G37*
G36*
X488425Y190000D02*
G75*
D01*
G03X488425Y190000I1575J0*
G01*
D02*
G37*
G36*
X532093Y165349D02*
X532093Y165349D01*
X530000Y167442D01*
X527907Y165349D01*
G75*
D01*
G03X532093Y165349I2093J4651*
G01*
D02*
G37*
G36*
X525349Y172093D02*
G75*
D01*
G03X525349Y167907I4651J-2093*
G01*
X525349Y167907D01*
X527442Y170000D01*
X525349Y172093D01*
D02*
G37*
G36*
X527907Y174651D02*
X527907Y174651D01*
X530000Y172558D01*
X532093Y174651D01*
G75*
D01*
G03X527907Y174651I-2093J-4651*
G01*
D02*
G37*
G36*
X534651Y172093D02*
X534651Y172093D01*
X532558Y170000D01*
X534651Y167907D01*
G75*
D01*
G03X534651Y172093I-4651J2093*
G01*
D02*
G37*
G36*
X528425Y170000D02*
G75*
D01*
G03X528425Y170000I1575J0*
G01*
D02*
G37*
G36*
X574769Y118191D02*
X574769Y118191D01*
X571809Y118191D01*
X571809Y115231D01*
G74*
D01*
G03X574769Y118191I1809J4769*
G01*
D02*
G37*
G36*
X571809Y124769D02*
X571809Y124769D01*
X571809Y121809D01*
X574769Y121809D01*
G74*
D01*
G03X571809Y124769I4769J1809*
G01*
D02*
G37*
G36*
X568425Y120000D02*
G75*
D01*
G03X568425Y120000I1575J0*
G01*
D02*
G37*
G36*
X568450Y140000D02*
G75*
D01*
G03X568450Y140000I1550J0*
G01*
D02*
G37*
G36*
X598450Y140000D02*
G75*
D01*
G03X598450Y140000I1550J0*
G01*
D02*
G37*
G36*
X595349Y152093D02*
G75*
D01*
G03X595349Y147907I4651J-2093*
G01*
X595349Y147907D01*
X597442Y150000D01*
X595349Y152093D01*
D02*
G37*
G36*
X602093Y145349D02*
X602093Y145349D01*
X600000Y147442D01*
X597907Y145349D01*
G75*
D01*
G03X602093Y145349I2093J4651*
G01*
D02*
G37*
G36*
X598031Y150000D02*
G75*
D01*
G03X598031Y150000I1969J0*
G01*
D02*
G37*
G36*
X604651Y152093D02*
X604651Y152093D01*
X602558Y150000D01*
X604651Y147907D01*
G75*
D01*
G03X604651Y152093I-4651J2093*
G01*
D02*
G37*
G36*
X597907Y154651D02*
X597907Y154651D01*
X600000Y152558D01*
X602093Y154651D01*
G75*
D01*
G03X597907Y154651I-2093J-4651*
G01*
D02*
G37*
G36*
X574888Y168186D02*
G74*
D01*
G03X578186Y164888I3471J173*
G01*
X578186Y164888D01*
X578186Y168186D01*
X574888Y168186D01*
D02*
G37*
G36*
X581814Y164888D02*
G74*
D01*
G03X585112Y168186I172J3471*
G01*
X585112Y168186D01*
X581814Y168186D01*
X581814Y164888D01*
D02*
G37*
G36*
X585112Y171814D02*
G74*
D01*
G03X581814Y175112I3470J172*
G01*
X581814Y175112D01*
X581814Y171814D01*
X585112Y171814D01*
D02*
G37*
G36*
X578186Y175112D02*
G74*
D01*
G03X574888Y171814I173J3470*
G01*
X574888Y171814D01*
X578186Y171814D01*
X578186Y175112D01*
D02*
G37*
G36*
X578031Y170000D02*
G75*
D01*
G03X578031Y170000I1969J0*
G01*
D02*
G37*
G36*
X118345Y255636D02*
X118345Y255636D01*
X118345Y258345D01*
X115636Y258345D01*
G74*
D01*
G03X118345Y255636I4364J1655*
G01*
D02*
G37*
G36*
X118031Y260000D02*
G75*
D01*
G03X118031Y260000I1969J0*
G01*
D02*
G37*
G36*
X124364Y258345D02*
X124364Y258345D01*
X121655Y258345D01*
X121655Y255636D01*
G74*
D01*
G03X124364Y258345I1655J4364*
G01*
D02*
G37*
G36*
X115636Y261655D02*
X115636Y261655D01*
X118345Y261655D01*
X118345Y264364D01*
G74*
D01*
G03X115636Y261655I1655J4364*
G01*
D02*
G37*
G36*
X121655Y264364D02*
X121655Y264364D01*
X121655Y261655D01*
X124364Y261655D01*
G74*
D01*
G03X121655Y264364I4364J1655*
G01*
D02*
G37*
G36*
X194769Y48191D02*
X194769Y48191D01*
X191809Y48191D01*
X191809Y45231D01*
G74*
D01*
G03X194769Y48191I1809J4769*
G01*
D02*
G37*
G36*
X225886Y53015D02*
X225886Y53015D01*
X204114Y53015D01*
G75*
D01*
G03X204114Y46985I-4114J-3015*
G01*
X204114Y46985D01*
X225886Y46985D01*
G75*
D01*
G03X225886Y53015I4114J3015*
G01*
D02*
G37*
G36*
X188425Y50000D02*
G75*
D01*
G03X188425Y50000I1575J0*
G01*
D02*
G37*
G36*
X191809Y54769D02*
X191809Y54769D01*
X191809Y51809D01*
X194769Y51809D01*
G74*
D01*
G03X191809Y54769I4769J1809*
G01*
D02*
G37*
G36*
X595349Y32093D02*
G75*
D01*
G03X595349Y27907I4651J-2093*
G01*
X595349Y27907D01*
X597442Y30000D01*
X595349Y32093D01*
D02*
G37*
G36*
X602093Y25349D02*
X602093Y25349D01*
X600000Y27442D01*
X597907Y25349D01*
G75*
D01*
G03X602093Y25349I2093J4651*
G01*
D02*
G37*
G36*
X604651Y32093D02*
X604651Y32093D01*
X602558Y30000D01*
X604651Y27907D01*
G75*
D01*
G03X604651Y32093I-4651J2093*
G01*
D02*
G37*
G36*
X598425Y30000D02*
G75*
D01*
G03X598425Y30000I1575J0*
G01*
D02*
G37*
G36*
X597907Y34651D02*
X597907Y34651D01*
X600000Y32558D01*
X602093Y34651D01*
G75*
D01*
G03X597907Y34651I-2093J-4651*
G01*
D02*
G37*
G36*
X602093Y45349D02*
X602093Y45349D01*
X600000Y47442D01*
X597907Y45349D01*
G75*
D01*
G03X602093Y45349I2093J4651*
G01*
D02*
G37*
G36*
X597907Y54651D02*
X597907Y54651D01*
X600000Y52558D01*
X602093Y54651D01*
G75*
D01*
G03X597907Y54651I-2093J-4651*
G01*
D02*
G37*
G36*
X595349Y52093D02*
G75*
D01*
G03X595349Y47907I4651J-2093*
G01*
X595349Y47907D01*
X597442Y50000D01*
X595349Y52093D01*
D02*
G37*
G36*
X604651Y52093D02*
X604651Y52093D01*
X602558Y50000D01*
X604651Y47907D01*
G75*
D01*
G03X604651Y52093I-4651J2093*
G01*
D02*
G37*
G36*
X598425Y50000D02*
G75*
D01*
G03X598425Y50000I1575J0*
G01*
D02*
G37*
G36*
X598031Y80000D02*
G75*
D01*
G03X598031Y80000I1969J0*
G01*
D02*
G37*
G36*
X594888Y78186D02*
G74*
D01*
G03X598186Y74888I3471J173*
G01*
X598186Y74888D01*
X598186Y78186D01*
X594888Y78186D01*
D02*
G37*
G36*
X601814Y74888D02*
G74*
D01*
G03X605112Y78186I172J3471*
G01*
X605112Y78186D01*
X601814Y78186D01*
X601814Y74888D01*
D02*
G37*
G36*
X598186Y85112D02*
G74*
D01*
G03X594888Y81814I173J3470*
G01*
X594888Y81814D01*
X598186Y81814D01*
X598186Y85112D01*
D02*
G37*
G36*
X605112Y81814D02*
G74*
D01*
G03X601814Y85112I3470J172*
G01*
X601814Y85112D01*
X601814Y81814D01*
X605112Y81814D01*
D02*
G37*
G36*
X15231Y251809D02*
X15231Y251809D01*
X18191Y251809D01*
X18191Y254769D01*
G74*
D01*
G03X15231Y251809I1809J4769*
G01*
D02*
G37*
G36*
X18191Y245231D02*
X18191Y245231D01*
X18191Y248191D01*
X15231Y248191D01*
G74*
D01*
G03X18191Y245231I4769J1809*
G01*
D02*
G37*
G36*
X21809Y254769D02*
X21809Y254769D01*
X21809Y251809D01*
X24769Y251809D01*
G74*
D01*
G03X21809Y254769I4769J1809*
G01*
D02*
G37*
G36*
X24769Y248191D02*
X24769Y248191D01*
X21809Y248191D01*
X21809Y245231D01*
G74*
D01*
G03X24769Y248191I1809J4769*
G01*
D02*
G37*
G36*
X18425Y250000D02*
G75*
D01*
G03X18425Y250000I1575J0*
G01*
D02*
G37*
G36*
X55886Y253015D02*
X55886Y253015D01*
X34114Y253015D01*
G75*
D01*
G03X34114Y246985I-4114J-3015*
G01*
X34114Y246985D01*
X55886Y246985D01*
G75*
D01*
G03X55886Y253015I4114J3015*
G01*
D02*
G37*
G36*
X335062Y21873D02*
X335062Y21873D01*
X338127Y21873D01*
X338127Y24938D01*
G74*
D01*
G03X335062Y21873I1873J4938*
G01*
D02*
G37*
G36*
X341873Y24938D02*
X341873Y24938D01*
X341873Y21873D01*
X344938Y21873D01*
G74*
D01*
G03X341873Y24938I4938J1873*
G01*
D02*
G37*
G36*
X301809Y64769D02*
X301809Y64769D01*
X301809Y61809D01*
X304769Y61809D01*
G74*
D01*
G03X301809Y64769I4769J1809*
G01*
D02*
G37*
G36*
X298191Y55231D02*
X298191Y55231D01*
X298191Y58191D01*
X295231Y58191D01*
G74*
D01*
G03X298191Y55231I4769J1809*
G01*
D02*
G37*
G36*
X295231Y61809D02*
X295231Y61809D01*
X298191Y61809D01*
X298191Y64769D01*
G74*
D01*
G03X295231Y61809I1809J4769*
G01*
D02*
G37*
G36*
X298031Y60000D02*
G75*
D01*
G03X298031Y60000I1969J0*
G01*
D02*
G37*
G36*
X304769Y58191D02*
X304769Y58191D01*
X301809Y58191D01*
X301809Y55231D01*
G74*
D01*
G03X304769Y58191I1809J4769*
G01*
D02*
G37*
G36*
X338425Y20000D02*
G75*
D01*
G03X338425Y20000I1575J0*
G01*
D02*
G37*
G36*
X344938Y18127D02*
X344938Y18127D01*
X341873Y18127D01*
X341873Y15062D01*
G74*
D01*
G03X344938Y18127I1873J4938*
G01*
D02*
G37*
G36*
X338127Y15062D02*
X338127Y15062D01*
X338127Y18127D01*
X335062Y18127D01*
G74*
D01*
G03X338127Y15062I4938J1873*
G01*
D02*
G37*
G36*
X455062Y31873D02*
X455062Y31873D01*
X458127Y31873D01*
X458127Y34938D01*
G74*
D01*
G03X455062Y31873I1873J4938*
G01*
D02*
G37*
G36*
X461873Y34938D02*
X461873Y34938D01*
X461873Y31873D01*
X464938Y31873D01*
G74*
D01*
G03X461873Y34938I4938J1873*
G01*
D02*
G37*
G36*
X418191Y85231D02*
X418191Y85231D01*
X418191Y88191D01*
X415231Y88191D01*
G74*
D01*
G03X418191Y85231I4769J1809*
G01*
D02*
G37*
G36*
X424769Y88191D02*
X424769Y88191D01*
X421809Y88191D01*
X421809Y85231D01*
G74*
D01*
G03X424769Y88191I1809J4769*
G01*
D02*
G37*
G36*
X418031Y90000D02*
G75*
D01*
G03X418031Y90000I1969J0*
G01*
D02*
G37*
G36*
X415231Y81809D02*
X415231Y81809D01*
X418191Y81809D01*
X418191Y84769D01*
G74*
D01*
G03X415231Y81809I1809J4769*
G01*
D02*
G37*
G36*
X424769Y78191D02*
X424769Y78191D01*
X421809Y78191D01*
X421809Y75231D01*
G74*
D01*
G03X424769Y78191I1809J4769*
G01*
D02*
G37*
G36*
X418191Y75231D02*
X418191Y75231D01*
X418191Y78191D01*
X415231Y78191D01*
G74*
D01*
G03X418191Y75231I4769J1809*
G01*
D02*
G37*
G36*
X418031Y80000D02*
G75*
D01*
G03X418031Y80000I1969J0*
G01*
D02*
G37*
G36*
X421809Y84769D02*
X421809Y84769D01*
X421809Y81809D01*
X424769Y81809D01*
G74*
D01*
G03X421809Y84769I4769J1809*
G01*
D02*
G37*
G36*
X388425Y50000D02*
G75*
D01*
G03X388425Y50000I1575J0*
G01*
D02*
G37*
G36*
X387907Y54651D02*
X387907Y54651D01*
X390000Y52558D01*
X392093Y54651D01*
G75*
D01*
G03X387907Y54651I-2093J-4651*
G01*
D02*
G37*
G36*
X394651Y52093D02*
X394651Y52093D01*
X392558Y50000D01*
X394651Y47907D01*
G75*
D01*
G03X394651Y52093I-4651J2093*
G01*
D02*
G37*
G36*
X385349Y52093D02*
G75*
D01*
G03X385349Y47907I4651J-2093*
G01*
X385349Y47907D01*
X387442Y50000D01*
X385349Y52093D01*
D02*
G37*
G36*
X392093Y45349D02*
X392093Y45349D01*
X390000Y47442D01*
X387907Y45349D01*
G75*
D01*
G03X392093Y45349I2093J4651*
G01*
D02*
G37*
G36*
X387907Y34651D02*
X387907Y34651D01*
X390000Y32558D01*
X392093Y34651D01*
G75*
D01*
G03X387907Y34651I-2093J-4651*
G01*
D02*
G37*
G36*
X458425Y30000D02*
G75*
D01*
G03X458425Y30000I1575J0*
G01*
D02*
G37*
G36*
X464938Y28127D02*
X464938Y28127D01*
X461873Y28127D01*
X461873Y25062D01*
G74*
D01*
G03X464938Y28127I1873J4938*
G01*
D02*
G37*
G36*
X458127Y25062D02*
X458127Y25062D01*
X458127Y28127D01*
X455062Y28127D01*
G74*
D01*
G03X458127Y25062I4938J1873*
G01*
D02*
G37*
G36*
X392093Y25349D02*
X392093Y25349D01*
X390000Y27442D01*
X387907Y25349D01*
G75*
D01*
G03X392093Y25349I2093J4651*
G01*
D02*
G37*
G36*
X388425Y30000D02*
G75*
D01*
G03X388425Y30000I1575J0*
G01*
D02*
G37*
G36*
X394651Y32093D02*
X394651Y32093D01*
X392558Y30000D01*
X394651Y27907D01*
G75*
D01*
G03X394651Y32093I-4651J2093*
G01*
D02*
G37*
G36*
X385349Y32093D02*
G75*
D01*
G03X385349Y27907I4651J-2093*
G01*
X385349Y27907D01*
X387442Y30000D01*
X385349Y32093D01*
D02*
G37*
G36*
X88425Y90000D02*
G75*
D01*
G03X88425Y90000I1575J0*
G01*
D02*
G37*
G36*
X25349Y34260D02*
G75*
D01*
G03X25349Y30074I4651J-2093*
G01*
X25349Y30074D01*
X27442Y32167D01*
X25349Y34260D01*
D02*
G37*
G36*
X32093Y27516D02*
X32093Y27516D01*
X30000Y29609D01*
X27907Y27516D01*
G75*
D01*
G03X32093Y27516I2093J4651*
G01*
D02*
G37*
G36*
X28425Y32167D02*
G75*
D01*
G03X28425Y32167I1575J0*
G01*
D02*
G37*
G36*
X34651Y34260D02*
X34651Y34260D01*
X32558Y32167D01*
X34651Y30074D01*
G75*
D01*
G03X34651Y34260I-4651J2093*
G01*
D02*
G37*
G36*
X88127Y85062D02*
X88127Y85062D01*
X88127Y88127D01*
X85062Y88127D01*
G74*
D01*
G03X88127Y85062I4938J1873*
G01*
D02*
G37*
G36*
X55886Y323015D02*
X55886Y323015D01*
X34114Y323015D01*
G75*
D01*
G03X34114Y316985I-4114J-3015*
G01*
X34114Y316985D01*
X55886Y316985D01*
G75*
D01*
G03X55886Y323015I4114J3015*
G01*
D02*
G37*
G36*
X15231Y321809D02*
X15231Y321809D01*
X18191Y321809D01*
X18191Y324769D01*
G74*
D01*
G03X15231Y321809I1809J4769*
G01*
D02*
G37*
G36*
X18191Y315231D02*
X18191Y315231D01*
X18191Y318191D01*
X15231Y318191D01*
G74*
D01*
G03X18191Y315231I4769J1809*
G01*
D02*
G37*
G36*
X21809Y324769D02*
X21809Y324769D01*
X21809Y321809D01*
X24769Y321809D01*
G74*
D01*
G03X21809Y324769I4769J1809*
G01*
D02*
G37*
G36*
X24769Y318191D02*
X24769Y318191D01*
X21809Y318191D01*
X21809Y315231D01*
G74*
D01*
G03X24769Y318191I1809J4769*
G01*
D02*
G37*
G36*
X18425Y320000D02*
G75*
D01*
G03X18425Y320000I1575J0*
G01*
D02*
G37*
G36*
X17784Y344156D02*
X17784Y344156D01*
X17784Y347784D01*
X14156Y347784D01*
G74*
D01*
G03X17784Y344156I5844J2216*
G01*
D02*
G37*
G36*
X25844Y347784D02*
X25844Y347784D01*
X22216Y347784D01*
X22216Y344156D01*
G74*
D01*
G03X25844Y347784I2216J5844*
G01*
D02*
G37*
G36*
X14156Y352216D02*
X14156Y352216D01*
X17784Y352216D01*
X17784Y355844D01*
G74*
D01*
G03X14156Y352216I2216J5844*
G01*
D02*
G37*
G36*
X22216Y355844D02*
X22216Y355844D01*
X22216Y352216D01*
X25844Y352216D01*
G74*
D01*
G03X22216Y355844I5844J2216*
G01*
D02*
G37*
G36*
X17047Y350000D02*
G75*
D01*
G03X17047Y350000I2953J0*
G01*
D02*
G37*
G36*
X18450Y360000D02*
G75*
D01*
G03X18450Y360000I1550J0*
G01*
D02*
G37*
G36*
X432093Y247516D02*
X432093Y247516D01*
X430000Y249609D01*
X427907Y247516D01*
G75*
D01*
G03X432093Y247516I2093J4651*
G01*
D02*
G37*
G36*
X428425Y252167D02*
G75*
D01*
G03X428425Y252167I1575J0*
G01*
D02*
G37*
G36*
X434651Y254260D02*
X434651Y254260D01*
X432558Y252167D01*
X434651Y250074D01*
G75*
D01*
G03X434651Y254260I-4651J2093*
G01*
D02*
G37*
G36*
X425349Y254260D02*
G75*
D01*
G03X425349Y250074I4651J-2093*
G01*
X425349Y250074D01*
X427442Y252167D01*
X425349Y254260D01*
D02*
G37*
G36*
X407907Y224651D02*
X407907Y224651D01*
X410000Y222558D01*
X412093Y224651D01*
G75*
D01*
G03X407907Y224651I-2093J-4651*
G01*
D02*
G37*
G36*
X405349Y222093D02*
G75*
D01*
G03X405349Y217907I4651J-2093*
G01*
X405349Y217907D01*
X407442Y220000D01*
X405349Y222093D01*
D02*
G37*
G36*
X412093Y215349D02*
X412093Y215349D01*
X410000Y217442D01*
X407907Y215349D01*
G75*
D01*
G03X412093Y215349I2093J4651*
G01*
D02*
G37*
G36*
X408425Y220000D02*
G75*
D01*
G03X408425Y220000I1575J0*
G01*
D02*
G37*
G36*
X414651Y222093D02*
X414651Y222093D01*
X412558Y220000D01*
X414651Y217907D01*
G75*
D01*
G03X414651Y222093I-4651J2093*
G01*
D02*
G37*
G36*
X162093Y125349D02*
X162093Y125349D01*
X160000Y127442D01*
X157907Y125349D01*
G75*
D01*
G03X162093Y125349I2093J4651*
G01*
D02*
G37*
G36*
X155349Y132093D02*
G75*
D01*
G03X155349Y127907I4651J-2093*
G01*
X155349Y127907D01*
X157442Y130000D01*
X155349Y132093D01*
D02*
G37*
G36*
X164651Y132093D02*
X164651Y132093D01*
X162558Y130000D01*
X164651Y127907D01*
G75*
D01*
G03X164651Y132093I-4651J2093*
G01*
D02*
G37*
G36*
X158425Y130000D02*
G75*
D01*
G03X158425Y130000I1575J0*
G01*
D02*
G37*
%LPD*%
G36*
X300000Y196985D02*
G74*
D01*
G03X302134Y197871I0J3015*
G01*
X302134Y197871D01*
X341249Y236985D01*
X370000Y236985D01*
G74*
D01*
G03X372134Y237871I0J3015*
G01*
X372134Y237871D01*
X376445Y242182D01*
X376446Y242182D01*
X416220Y281957D01*
X421249Y286985D01*
X426886Y286985D01*
G75*
D01*
G03X431367Y295087I4114J3015*
G01*
G75*
D01*
G03X425886Y303015I-1367J4913*
G01*
X425886Y303015D01*
X294114Y303015D01*
G74*
D01*
G03X291005Y305000I4114J3015*
G01*
G74*
D01*
G03X294114Y306985I1005J5000*
G01*
X294114Y306985D01*
X445886Y306985D01*
G75*
D01*
G03X445886Y313015I4114J3015*
G01*
X445886Y313015D01*
X294114Y313015D01*
G74*
D01*
G03X291005Y315000I4114J3015*
G01*
G75*
D01*
G03X285886Y323015I-1005J5000*
G01*
X285886Y323015D01*
X274114Y323015D01*
G75*
D01*
G03X265000Y321005I-4114J-3015*
G01*
G75*
D01*
G03X255886Y323015I-5000J-1005*
G01*
X255886Y323015D01*
X224114Y323015D01*
G75*
D01*
G03X219223Y325040I-4114J-3015*
G01*
X219223Y325040D01*
X203015Y341249D01*
X203015Y345886D01*
G75*
D01*
G03X203015Y354114I-3015J4114*
G01*
X203015Y354114D01*
X203015Y355886D01*
G75*
D01*
G03X205040Y360777I-3015J4114*
G01*
X205040Y360777D01*
X221249Y376985D01*
X398751Y376985D01*
X465737Y310000D01*
X457868Y302132D01*
G75*
D01*
G03X456985Y299996I2132J-2132*
G01*
X456985Y299996D01*
X456985Y284114D01*
G74*
D01*
G03X455886Y283015I3015J4114*
G01*
X455886Y283015D01*
X430000Y283015D01*
G75*
D01*
G03X429962Y283014I0J-3015*
G01*
G74*
D01*
G03X427868Y282132I38J3014*
G01*
X427868Y282132D01*
X338751Y193015D01*
X304336Y193015D01*
G75*
D01*
G03X298300Y185000I-4336J-3015*
G01*
G75*
D01*
G03X298300Y175000I1700J-5000*
G01*
G75*
D01*
G03X298300Y165000I1700J-5000*
G01*
G75*
D01*
G03X298300Y155000I1700J-5000*
G01*
G75*
D01*
G03X298300Y145000I1700J-5000*
G01*
G75*
D01*
G03X298300Y135000I1700J-5000*
G01*
G75*
D01*
G03X298300Y125000I1700J-5000*
G01*
G75*
D01*
G03X304336Y116985I1700J-5000*
G01*
X304336Y116985D01*
X365886Y116985D01*
G74*
D01*
G03X368995Y115000I4114J3015*
G01*
G74*
D01*
G03X365886Y113015I1005J5000*
G01*
X365886Y113015D01*
X283015Y113015D01*
X283015Y188751D01*
X291249Y196985D01*
X300000Y196985D01*
D02*
G37*
%LPC*%
G36*
X250000Y353015D02*
G75*
D01*
G03X246985Y350000I0J-3015*
G01*
X246985Y350000D01*
X246985Y334114D01*
G75*
D01*
G03X253015Y334114I3015J-4114*
G01*
X253015Y334114D01*
X253015Y346985D01*
X285886Y346985D01*
G74*
D01*
G03X288995Y345000I4114J3015*
G01*
G75*
D01*
G03X294114Y336985I1005J-5000*
G01*
X294114Y336985D01*
X295886Y336985D01*
G75*
D01*
G03X295886Y343015I4114J3015*
G01*
X295886Y343015D01*
X294114Y343015D01*
G74*
D01*
G03X291005Y345000I4114J3015*
G01*
G75*
D01*
G03X291005Y355000I-1005J5000*
G01*
G75*
D01*
G03X285886Y363015I-1005J5000*
G01*
X285886Y363015D01*
X234114Y363015D01*
G75*
D01*
G03X228995Y355000I-4114J-3015*
G01*
G75*
D01*
G03X234114Y346985I1005J-5000*
G01*
X234114Y346985D01*
X235886Y346985D01*
G75*
D01*
G03X235886Y353015I4114J3015*
G01*
X235886Y353015D01*
X234114Y353015D01*
G74*
D01*
G03X231005Y355000I4114J3015*
G01*
G74*
D01*
G03X234114Y356985I1005J5000*
G01*
X234114Y356985D01*
X285886Y356985D01*
G74*
D01*
G03X288995Y355000I4114J3015*
G01*
G74*
D01*
G03X285886Y353015I1005J5000*
G01*
X285886Y353015D01*
X250000Y353015D01*
D02*
G37*
G36*
X258031Y340000D02*
G75*
D01*
G03X258031Y340000I1969J0*
G01*
D02*
G37*
G36*
X258191Y335231D02*
X258191Y335231D01*
X258191Y338191D01*
X255231Y338191D01*
G74*
D01*
G03X258191Y335231I4769J1809*
G01*
D02*
G37*
G36*
X264769Y338191D02*
X264769Y338191D01*
X261809Y338191D01*
X261809Y335231D01*
G74*
D01*
G03X264769Y338191I1809J4769*
G01*
D02*
G37*
G36*
X255231Y341809D02*
X255231Y341809D01*
X258191Y341809D01*
X258191Y344769D01*
G74*
D01*
G03X255231Y341809I1809J4769*
G01*
D02*
G37*
G36*
X261809Y344769D02*
X261809Y344769D01*
X261809Y341809D01*
X264769Y341809D01*
G74*
D01*
G03X261809Y344769I4769J1809*
G01*
D02*
G37*
G36*
X335886Y213015D02*
X335886Y213015D01*
X330000Y213015D01*
G75*
D01*
G03X329591Y212987I0J-3015*
G01*
G74*
D01*
G03X327868Y212132I409J2987*
G01*
X327868Y212132D01*
X320777Y205040D01*
G75*
D01*
G03X325040Y200777I-777J-5040*
G01*
X325040Y200777D01*
X331249Y206985D01*
X335886Y206985D01*
G75*
D01*
G03X335886Y213015I4114J3015*
G01*
D02*
G37*
G36*
X291809Y374769D02*
X291809Y374769D01*
X291809Y371809D01*
X294769Y371809D01*
G74*
D01*
G03X291809Y374769I4769J1809*
G01*
D02*
G37*
G36*
X288031Y330000D02*
G75*
D01*
G03X288031Y330000I1969J0*
G01*
D02*
G37*
G36*
X288191Y325231D02*
X288191Y325231D01*
X288191Y328191D01*
X285231Y328191D01*
G74*
D01*
G03X288191Y325231I4769J1809*
G01*
D02*
G37*
G36*
X294769Y328191D02*
X294769Y328191D01*
X291809Y328191D01*
X291809Y325231D01*
G74*
D01*
G03X294769Y328191I1809J4769*
G01*
D02*
G37*
G36*
X285231Y331809D02*
X285231Y331809D01*
X288191Y331809D01*
X288191Y334769D01*
G74*
D01*
G03X285231Y331809I1809J4769*
G01*
D02*
G37*
G36*
X291809Y334769D02*
X291809Y334769D01*
X291809Y331809D01*
X294769Y331809D01*
G74*
D01*
G03X291809Y334769I4769J1809*
G01*
D02*
G37*
G36*
X288031Y370000D02*
G75*
D01*
G03X288031Y370000I1969J0*
G01*
D02*
G37*
G36*
X288191Y365231D02*
X288191Y365231D01*
X288191Y368191D01*
X285231Y368191D01*
G74*
D01*
G03X288191Y365231I4769J1809*
G01*
D02*
G37*
G36*
X294769Y368191D02*
X294769Y368191D01*
X291809Y368191D01*
X291809Y365231D01*
G74*
D01*
G03X294769Y368191I1809J4769*
G01*
D02*
G37*
G36*
X285231Y371809D02*
X285231Y371809D01*
X288191Y371809D01*
X288191Y374769D01*
G74*
D01*
G03X285231Y371809I1809J4769*
G01*
D02*
G37*
G36*
X395231Y361809D02*
X395231Y361809D01*
X398191Y361809D01*
X398191Y364769D01*
G74*
D01*
G03X395231Y361809I1809J4769*
G01*
D02*
G37*
G36*
X398425Y360000D02*
G75*
D01*
G03X398425Y360000I1575J0*
G01*
D02*
G37*
G36*
X398191Y355231D02*
X398191Y355231D01*
X398191Y358191D01*
X395231Y358191D01*
G74*
D01*
G03X398191Y355231I4769J1809*
G01*
D02*
G37*
G36*
X401809Y364769D02*
X401809Y364769D01*
X401809Y361809D01*
X404769Y361809D01*
G74*
D01*
G03X401809Y364769I4769J1809*
G01*
D02*
G37*
G36*
X404769Y358191D02*
X404769Y358191D01*
X401809Y358191D01*
X401809Y355231D01*
G74*
D01*
G03X404769Y358191I1809J4769*
G01*
D02*
G37*
%LPD*%
G36*
X276985Y189996D02*
X276985Y189996D01*
X276985Y133015D01*
X274336Y133015D01*
G74*
D01*
G03X271700Y135000I4336J3015*
G01*
G75*
D01*
G03X271700Y145000I-1700J5000*
G01*
G75*
D01*
G03X271700Y155000I-1700J5000*
G01*
G75*
D01*
G03X271700Y165000I-1700J5000*
G01*
G75*
D01*
G03X271700Y175000I-1700J5000*
G01*
G75*
D01*
G03X271700Y185000I-1700J5000*
G01*
G75*
D01*
G03X265664Y193015I-1700J5000*
G01*
X265664Y193015D01*
X224114Y193015D01*
G74*
D01*
G03X221005Y195000I4114J3015*
G01*
G74*
D01*
G03X224114Y196985I1005J5000*
G01*
X224114Y196985D01*
X245886Y196985D01*
G75*
D01*
G03X245886Y203015I4114J3015*
G01*
X245886Y203015D01*
X224114Y203015D01*
G74*
D01*
G03X221005Y205000I4114J3015*
G01*
G75*
D01*
G03X221005Y215000I-1005J5000*
G01*
G75*
D01*
G03X221005Y225000I-1005J5000*
G01*
G75*
D01*
G03X221005Y235000I-1005J5000*
G01*
G74*
D01*
G03X224114Y236985I1005J5000*
G01*
X224114Y236985D01*
X285886Y236985D01*
G74*
D01*
G03X288995Y235000I4114J3015*
G01*
G74*
D01*
G03X285886Y233015I1005J5000*
G01*
X285886Y233015D01*
X244114Y233015D01*
G75*
D01*
G03X244114Y226985I-4114J-3015*
G01*
X244114Y226985D01*
X285886Y226985D01*
G75*
D01*
G03X291005Y235000I4114J3015*
G01*
G74*
D01*
G03X294114Y236985I1005J5000*
G01*
X294114Y236985D01*
X305886Y236985D01*
G75*
D01*
G03X305886Y243015I4114J3015*
G01*
X305886Y243015D01*
X294114Y243015D01*
G74*
D01*
G03X291005Y245000I4114J3015*
G01*
G74*
D01*
G03X294114Y246985I1005J5000*
G01*
X294114Y246985D01*
X325886Y246985D01*
G75*
D01*
G03X325886Y253015I4114J3015*
G01*
X325886Y253015D01*
X294114Y253015D01*
G74*
D01*
G03X291005Y255000I4114J3015*
G01*
G74*
D01*
G03X294114Y256985I1005J5000*
G01*
X294114Y256985D01*
X345886Y256985D01*
G75*
D01*
G03X345886Y263015I4114J3015*
G01*
X345886Y263015D01*
X294114Y263015D01*
G74*
D01*
G03X291005Y265000I4114J3015*
G01*
G74*
D01*
G03X294114Y266985I1005J5000*
G01*
X294114Y266985D01*
X365886Y266985D01*
G75*
D01*
G03X365886Y273015I4114J3015*
G01*
X365886Y273015D01*
X294114Y273015D01*
G74*
D01*
G03X291005Y275000I4114J3015*
G01*
G74*
D01*
G03X294114Y276985I1005J5000*
G01*
X294114Y276985D01*
X385886Y276985D01*
G75*
D01*
G03X385886Y283015I4114J3015*
G01*
X385886Y283015D01*
X294114Y283015D01*
G74*
D01*
G03X291005Y285000I4114J3015*
G01*
G74*
D01*
G03X294114Y286985I1005J5000*
G01*
X294114Y286985D01*
X405886Y286985D01*
G75*
D01*
G03X410683Y284946I4114J3015*
G01*
X410683Y284946D01*
X407694Y281957D01*
X376446Y250709D01*
X368751Y243015D01*
X340001Y243015D01*
G75*
D01*
G03X337868Y242132I-1J-3015*
G01*
X337868Y242132D01*
X305054Y209317D01*
G75*
D01*
G03X295886Y213015I-5054J683*
G01*
X295886Y213015D01*
X244114Y213015D01*
G75*
D01*
G03X244114Y206985I-4114J-3015*
G01*
X244114Y206985D01*
X295886Y206985D01*
G75*
D01*
G03X300683Y204946I4114J3015*
G01*
X300683Y204946D01*
X298751Y203015D01*
X290004Y203015D01*
G75*
D01*
G03X287868Y202132I-4J-3015*
G01*
X287868Y202132D01*
X282142Y196405D01*
X277868Y192132D01*
G75*
D01*
G03X276985Y189996I2132J-2132*
G01*
D02*
G37*
%LPC*%
G36*
X295112Y221814D02*
G74*
D01*
G03X291814Y225112I3470J172*
G01*
X291814Y225112D01*
X291814Y221814D01*
X295112Y221814D01*
D02*
G37*
G36*
X288186Y225112D02*
G74*
D01*
G03X284888Y221814I173J3470*
G01*
X284888Y221814D01*
X288186Y221814D01*
X288186Y225112D01*
D02*
G37*
G36*
X288031Y220000D02*
G75*
D01*
G03X288031Y220000I1969J0*
G01*
D02*
G37*
G36*
X284888Y218186D02*
G74*
D01*
G03X288186Y214888I3471J172*
G01*
X288186Y214888D01*
X288186Y218186D01*
X284888Y218186D01*
D02*
G37*
G36*
X291814Y214888D02*
G74*
D01*
G03X295112Y218186I172J3470*
G01*
X295112Y218186D01*
X291814Y218186D01*
X291814Y214888D01*
D02*
G37*
%LPD*%
G36*
X595886Y96985D02*
G74*
D01*
G03X598995Y95000I4114J3015*
G01*
G74*
D01*
G03X595886Y93015I1005J5000*
G01*
X595886Y93015D01*
X590000Y93015D01*
G75*
D01*
G03X589294Y92931I0J-3015*
G01*
G74*
D01*
G03X587868Y92132I706J2931*
G01*
X587868Y92132D01*
X568751Y73015D01*
X514114Y73015D01*
G75*
D01*
G03X505886Y73015I-4114J-3015*
G01*
X505886Y73015D01*
X494336Y73015D01*
G74*
D01*
G03X491700Y75000I4336J3015*
G01*
G74*
D01*
G03X494336Y76985I1700J5000*
G01*
X494336Y76985D01*
X495886Y76985D01*
G75*
D01*
G03X504114Y76985I4114J3015*
G01*
X504114Y76985D01*
X529996Y76985D01*
G75*
D01*
G03X531007Y77159I4J3015*
G01*
G74*
D01*
G03X532134Y77871I1007J2841*
G01*
X532134Y77871D01*
X541249Y86985D01*
X545886Y86985D01*
G75*
D01*
G03X551005Y95000I4114J3015*
G01*
G74*
D01*
G03X554114Y96985I1005J5000*
G01*
X554114Y96985D01*
X595886Y96985D01*
D02*
G37*
%LPC*%
G36*
X574769Y91809D02*
G74*
D01*
G03X571809Y94769I4769J1809*
G01*
X571809Y94769D01*
X571809Y91809D01*
X574769Y91809D01*
D02*
G37*
G36*
X565231Y91809D02*
X565231Y91809D01*
X568191Y91809D01*
X568191Y94769D01*
G74*
D01*
G03X565231Y91809I1809J4769*
G01*
D02*
G37*
G36*
X565231Y88191D02*
G74*
D01*
G03X568191Y85231I4769J1809*
G01*
X568191Y85231D01*
X568191Y88191D01*
X565231Y88191D01*
D02*
G37*
G36*
X574769Y88191D02*
X574769Y88191D01*
X571809Y88191D01*
X571809Y85231D01*
G74*
D01*
G03X574769Y88191I1809J4769*
G01*
D02*
G37*
G36*
X568425Y90000D02*
G75*
D01*
G03X568425Y90000I1575J0*
G01*
D02*
G37*
G36*
X555112Y81814D02*
G74*
D01*
G03X551814Y85112I3470J172*
G01*
X551814Y85112D01*
X551814Y81814D01*
X555112Y81814D01*
D02*
G37*
G36*
X548186Y85112D02*
G74*
D01*
G03X544888Y81814I173J3470*
G01*
X544888Y81814D01*
X548186Y81814D01*
X548186Y85112D01*
D02*
G37*
G36*
X548031Y80000D02*
G75*
D01*
G03X548031Y80000I1969J0*
G01*
D02*
G37*
G36*
X544888Y78186D02*
G74*
D01*
G03X548186Y74888I3471J173*
G01*
X548186Y74888D01*
X548186Y78186D01*
X544888Y78186D01*
D02*
G37*
G36*
X551814Y74888D02*
G74*
D01*
G03X555112Y78186I172J3471*
G01*
X555112Y78186D01*
X551814Y78186D01*
X551814Y74888D01*
D02*
G37*
%LPD*%
G36*
X91471Y205117D02*
G74*
D01*
G03X94114Y206985I1471J4883*
G01*
X94114Y206985D01*
X109998Y206985D01*
G75*
D01*
G03X110266Y206997I2J3015*
G01*
G74*
D01*
G03X112134Y207871I266J3003*
G01*
X112134Y207871D01*
X131249Y226985D01*
X155886Y226985D01*
G74*
D01*
G03X158995Y225000I4114J3015*
G01*
G74*
D01*
G03X155886Y223015I1005J5000*
G01*
X155886Y223015D01*
X130000Y223015D01*
G75*
D01*
G03X128932Y222819I0J-3015*
G01*
G74*
D01*
G03X127868Y222132I1068J2819*
G01*
X127868Y222132D01*
X108751Y203015D01*
X94834Y203015D01*
G74*
D01*
G03X91642Y205117I3192J1373*
G01*
X91642Y205117D01*
X91471Y205117D01*
D02*
G37*
G36*
X425886Y296985D02*
X425886Y296985D01*
X294114Y296985D01*
G74*
D01*
G02X291005Y295000I4114J3015*
G01*
G74*
D01*
G02X294114Y293015I1005J5000*
G01*
X294114Y293015D01*
X405886Y293015D01*
G75*
D01*
G02X415054Y289317I4114J-3015*
G01*
X415054Y289317D01*
X417868Y292132D01*
G75*
D01*
G02X420004Y293015I2132J-2132*
G01*
X420004Y293015D01*
X426886Y293015D01*
G74*
D01*
G02X429633Y294913I4114J3015*
G01*
G74*
D01*
G02X425886Y296985I367J5087*
G01*
D02*
G37*
G36*
X133015Y174114D02*
X133015Y174114D01*
X133015Y198751D01*
X141249Y206985D01*
X155886Y206985D01*
G74*
D01*
G03X158995Y205000I4114J3015*
G01*
G75*
D01*
G03X158995Y195000I1005J-5000*
G01*
G75*
D01*
G03X158995Y185000I1005J-5000*
G01*
G75*
D01*
G03X158995Y175000I1005J-5000*
G01*
G74*
D01*
G03X155886Y173015I1005J5000*
G01*
X155886Y173015D01*
X144114Y173015D01*
G75*
D01*
G03X135000Y171005I-4114J-3015*
G01*
G74*
D01*
G03X133015Y174114I5000J1005*
G01*
D02*
G37*
G36*
X75886Y366985D02*
G74*
D01*
G03X78995Y365000I4114J3015*
G01*
G74*
D01*
G03X75886Y363015I1005J5000*
G01*
X75886Y363015D01*
X64114Y363015D01*
G75*
D01*
G03X64114Y356985I-4114J-3015*
G01*
X64114Y356985D01*
X75886Y356985D01*
G74*
D01*
G03X78529Y355117I4114J3015*
G01*
X78529Y355117D01*
X78359Y355117D01*
G75*
D01*
G03X75161Y353004I0J-3475*
G01*
X75161Y353004D01*
X69989Y353004D01*
G75*
D01*
G03X68846Y352778I0J-3015*
G01*
G74*
D01*
G03X67857Y352121I1143J2789*
G01*
X67857Y352121D01*
X58751Y343015D01*
X43015Y343015D01*
X43015Y366985D01*
X75886Y366985D01*
D02*
G37*
G36*
X58300Y85000D02*
G75*
D01*
G02X58300Y95000I1700J5000*
G01*
G75*
D01*
G02X56985Y104336I1700J5000*
G01*
X56985Y104336D01*
X56985Y116985D01*
X35029Y116985D01*
G74*
D01*
G02X33266Y113917I5029J848*
G01*
G75*
D01*
G02X33015Y105886I-3266J-3917*
G01*
X33015Y105886D01*
X33015Y101249D01*
X41282Y92981D01*
X41282Y92981D01*
X51249Y83015D01*
X55664Y83015D01*
G74*
D01*
G02X58300Y85000I4336J3015*
G01*
D02*
G37*
G36*
X515886Y86985D02*
G75*
D01*
G03X515886Y93015I4114J3015*
G01*
X515886Y93015D01*
X494336Y93015D01*
G74*
D01*
G03X491700Y95000I4336J3015*
G01*
G74*
D01*
G03X494336Y96985I1700J5000*
G01*
X494336Y96985D01*
X545886Y96985D01*
G74*
D01*
G03X548995Y95000I4114J3015*
G01*
G74*
D01*
G03X545886Y93015I1005J5000*
G01*
X545886Y93015D01*
X540000Y93015D01*
G75*
D01*
G03X539591Y92987I0J-3015*
G01*
G74*
D01*
G03X537868Y92132I409J2987*
G01*
X537868Y92132D01*
X528751Y83015D01*
X504114Y83015D01*
G75*
D01*
G03X495886Y83015I-4114J-3015*
G01*
X495886Y83015D01*
X494336Y83015D01*
G74*
D01*
G03X491700Y85000I4336J3015*
G01*
G74*
D01*
G03X494336Y86985I1700J5000*
G01*
X494336Y86985D01*
X515886Y86985D01*
D02*
G37*
G36*
X274114Y316985D02*
X274114Y316985D01*
X285886Y316985D01*
G74*
D01*
G03X288995Y315000I4114J3015*
G01*
G74*
D01*
G03X285886Y313015I1005J5000*
G01*
X285886Y313015D01*
X280007Y313015D01*
X280000Y313015D01*
X280000Y313015D01*
X224114Y313015D01*
G74*
D01*
G03X221005Y315000I4114J3015*
G01*
G74*
D01*
G03X224114Y316985I1005J5000*
G01*
X224114Y316985D01*
X255886Y316985D01*
G75*
D01*
G03X265000Y318995I4114J3015*
G01*
G75*
D01*
G03X274114Y316985I5000J1005*
G01*
D02*
G37*
G36*
X344336Y66985D02*
G74*
D01*
G02X341700Y65000I4336J3015*
G01*
G75*
D01*
G02X341700Y55000I-1700J-5000*
G01*
G75*
D01*
G02X341700Y45000I-1700J-5000*
G01*
G74*
D01*
G02X344336Y43015I1700J5000*
G01*
X344336Y43015D01*
X348751Y43015D01*
X356985Y51249D01*
X356985Y58751D01*
X348751Y66985D01*
X344336Y66985D01*
D02*
G37*
G36*
X465000Y118995D02*
G75*
D01*
G02X455000Y118995I-5000J1005*
G01*
G74*
D01*
G02X453015Y115886I5000J1005*
G01*
X453015Y115886D01*
X453015Y93893D01*
X456432Y93893D01*
G74*
D01*
G02X458300Y95000I3568J3893*
G01*
G75*
D01*
G02X460935Y105198I1700J5000*
G01*
X460935Y105198D01*
X466985Y111249D01*
X466985Y115886D01*
G74*
D01*
G02X465000Y118995I3015J4114*
G01*
D02*
G37*
G36*
X47868Y67868D02*
X47868Y67868D01*
X40918Y74819D01*
X34114Y74819D01*
G74*
D01*
G02X33266Y73917I4114J3014*
G01*
G75*
D01*
G02X35040Y69223I-3266J-3917*
G01*
X35040Y69223D01*
X41249Y63015D01*
X55664Y63015D01*
G74*
D01*
G02X58300Y65000I4336J3015*
G01*
G74*
D01*
G02X55664Y66985I1700J5000*
G01*
X55664Y66985D01*
X50001Y66985D01*
G75*
D01*
G02X47868Y67868I-1J3015*
G01*
D02*
G37*
G36*
X224114Y266985D02*
X224114Y266985D01*
X285886Y266985D01*
G74*
D01*
G03X288995Y265000I4114J3015*
G01*
G74*
D01*
G03X285886Y263015I1005J5000*
G01*
X285886Y263015D01*
X224114Y263015D01*
G74*
D01*
G03X221005Y265000I4114J3015*
G01*
G74*
D01*
G03X224114Y266985I1005J5000*
G01*
D02*
G37*
G36*
X224114Y246985D02*
X224114Y246985D01*
X285886Y246985D01*
G74*
D01*
G03X288995Y245000I4114J3015*
G01*
G74*
D01*
G03X285886Y243015I1005J5000*
G01*
X285886Y243015D01*
X224114Y243015D01*
G74*
D01*
G03X221005Y245000I4114J3015*
G01*
G74*
D01*
G03X224114Y246985I1005J5000*
G01*
D02*
G37*
G36*
X224114Y296985D02*
X224114Y296985D01*
X285886Y296985D01*
G74*
D01*
G03X288995Y295000I4114J3015*
G01*
G74*
D01*
G03X285886Y293015I1005J5000*
G01*
X285886Y293015D01*
X224114Y293015D01*
G74*
D01*
G03X221005Y295000I4114J3015*
G01*
G74*
D01*
G03X224114Y296985I1005J5000*
G01*
D02*
G37*
G36*
X224114Y286985D02*
X224114Y286985D01*
X285886Y286985D01*
G74*
D01*
G03X288995Y285000I4114J3015*
G01*
G74*
D01*
G03X285886Y283015I1005J5000*
G01*
X285886Y283015D01*
X224114Y283015D01*
G74*
D01*
G03X221005Y285000I4114J3015*
G01*
G74*
D01*
G03X224114Y286985I1005J5000*
G01*
D02*
G37*
G36*
X224114Y276985D02*
X224114Y276985D01*
X285886Y276985D01*
G74*
D01*
G03X288995Y275000I4114J3015*
G01*
G74*
D01*
G03X285886Y273015I1005J5000*
G01*
X285886Y273015D01*
X224114Y273015D01*
G74*
D01*
G03X221005Y275000I4114J3015*
G01*
G74*
D01*
G03X224114Y276985I1005J5000*
G01*
D02*
G37*
G36*
X280000Y306985D02*
X280000Y306985D01*
X285886Y306985D01*
G74*
D01*
G03X288995Y305000I4114J3015*
G01*
G74*
D01*
G03X285886Y303015I1005J5000*
G01*
X285886Y303015D01*
X224114Y303015D01*
G74*
D01*
G03X221005Y305000I4114J3015*
G01*
G74*
D01*
G03X224114Y306985I1005J5000*
G01*
X224114Y306985D01*
X279993Y306985D01*
G75*
D01*
G03X280000Y306985I7J3015*
G01*
D02*
G37*
G36*
X224114Y256985D02*
X224114Y256985D01*
X285886Y256985D01*
G74*
D01*
G03X288995Y255000I4114J3015*
G01*
G74*
D01*
G03X285886Y253015I1005J5000*
G01*
X285886Y253015D01*
X224114Y253015D01*
G74*
D01*
G03X221005Y255000I4114J3015*
G01*
G74*
D01*
G03X224114Y256985I1005J5000*
G01*
D02*
G37*
G36*
X368995Y145000D02*
G74*
D01*
G02X365886Y146985I1005J5000*
G01*
X365886Y146985D01*
X304336Y146985D01*
G74*
D01*
G02X301700Y145000I4336J3015*
G01*
G74*
D01*
G02X304336Y143015I1700J5000*
G01*
X304336Y143015D01*
X365886Y143015D01*
G74*
D01*
G02X368995Y145000I4114J3015*
G01*
D02*
G37*
G36*
X368995Y155000D02*
G74*
D01*
G02X365886Y156985I1005J5000*
G01*
X365886Y156985D01*
X334114Y156985D01*
G75*
D01*
G02X325886Y156985I-4114J3015*
G01*
X325886Y156985D01*
X304336Y156985D01*
G74*
D01*
G02X301700Y155000I4336J3015*
G01*
G74*
D01*
G02X304336Y153015I1700J5000*
G01*
X304336Y153015D01*
X365886Y153015D01*
G74*
D01*
G02X368995Y155000I4114J3015*
G01*
D02*
G37*
G36*
X325886Y163015D02*
G75*
D01*
G02X334114Y163015I4114J-3015*
G01*
X334114Y163015D01*
X365886Y163015D01*
G74*
D01*
G02X368995Y165000I4114J3015*
G01*
G74*
D01*
G02X365886Y166985I1005J5000*
G01*
X365886Y166985D01*
X304336Y166985D01*
G74*
D01*
G02X301700Y165000I4336J3015*
G01*
G74*
D01*
G02X304336Y163015I1700J5000*
G01*
X304336Y163015D01*
X325886Y163015D01*
D02*
G37*
G36*
X368995Y135000D02*
G74*
D01*
G02X365886Y136985I1005J5000*
G01*
X365886Y136985D01*
X304336Y136985D01*
G74*
D01*
G02X301700Y135000I4336J3015*
G01*
G74*
D01*
G02X304336Y133015I1700J5000*
G01*
X304336Y133015D01*
X365886Y133015D01*
G74*
D01*
G02X368995Y135000I4114J3015*
G01*
D02*
G37*
G36*
X368995Y125000D02*
G74*
D01*
G02X365886Y126985I1005J5000*
G01*
X365886Y126985D01*
X304336Y126985D01*
G74*
D01*
G02X301700Y125000I4336J3015*
G01*
G74*
D01*
G02X304336Y123015I1700J5000*
G01*
X304336Y123015D01*
X365886Y123015D01*
G74*
D01*
G02X368995Y125000I4114J3015*
G01*
D02*
G37*
G36*
X91700Y75000D02*
G74*
D01*
G02X94336Y73015I1700J5000*
G01*
X94336Y73015D01*
X155886Y73015D01*
G74*
D01*
G02X158995Y75000I4114J3015*
G01*
G74*
D01*
G02X155886Y76985I1005J5000*
G01*
X155886Y76985D01*
X94336Y76985D01*
G74*
D01*
G02X91700Y75000I4336J3015*
G01*
D02*
G37*
G36*
X368529Y174883D02*
X368529Y174883D01*
X368359Y174883D01*
G75*
D01*
G02X365166Y176985I0J3476*
G01*
X365166Y176985D01*
X304336Y176985D01*
G74*
D01*
G02X301700Y175000I4336J3015*
G01*
G74*
D01*
G02X304336Y173015I1700J5000*
G01*
X304336Y173015D01*
X365886Y173015D01*
G74*
D01*
G02X368529Y174883I4114J3015*
G01*
D02*
G37*
G36*
X221005Y185000D02*
G74*
D01*
G02X224114Y183015I1005J5000*
G01*
X224114Y183015D01*
X265664Y183015D01*
G74*
D01*
G02X268300Y185000I4336J3015*
G01*
G74*
D01*
G02X265664Y186985I1700J5000*
G01*
X265664Y186985D01*
X224114Y186985D01*
G74*
D01*
G02X221005Y185000I4114J3015*
G01*
D02*
G37*
G36*
X494336Y43015D02*
G74*
D01*
G03X491700Y45000I4336J3015*
G01*
G74*
D01*
G03X494336Y46985I1700J5000*
G01*
X494336Y46985D01*
X535886Y46985D01*
G74*
D01*
G03X538995Y45000I4114J3015*
G01*
G74*
D01*
G03X535886Y43015I1005J5000*
G01*
X535886Y43015D01*
X494336Y43015D01*
D02*
G37*
G36*
X221005Y175000D02*
G74*
D01*
G02X224114Y173015I1005J5000*
G01*
X224114Y173015D01*
X265664Y173015D01*
G74*
D01*
G02X268300Y175000I4336J3015*
G01*
G74*
D01*
G02X265664Y176985I1700J5000*
G01*
X265664Y176985D01*
X224114Y176985D01*
G74*
D01*
G02X221005Y175000I4114J3015*
G01*
D02*
G37*
G36*
X494336Y33015D02*
G74*
D01*
G03X491700Y35000I4336J3015*
G01*
G74*
D01*
G03X494336Y36985I1700J5000*
G01*
X494336Y36985D01*
X535886Y36985D01*
G74*
D01*
G03X538529Y35117I4114J3015*
G01*
X538529Y35117D01*
X538359Y35117D01*
G75*
D01*
G03X535166Y33015I0J-3475*
G01*
X535166Y33015D01*
X494336Y33015D01*
D02*
G37*
G36*
X271393Y114906D02*
G74*
D01*
G02X274114Y113015I1393J4906*
G01*
X274114Y113015D01*
X276985Y113015D01*
X276985Y126985D01*
X274336Y126985D01*
G74*
D01*
G02X271700Y125000I4336J3015*
G01*
G75*
D01*
G02X271393Y114906I-1700J-5000*
G01*
D02*
G37*
G36*
X141005Y255000D02*
G74*
D01*
G02X144114Y253015I1005J5000*
G01*
X144114Y253015D01*
X155886Y253015D01*
G74*
D01*
G02X158995Y255000I4114J3015*
G01*
G74*
D01*
G02X155886Y256985I1005J5000*
G01*
X155886Y256985D01*
X144114Y256985D01*
G74*
D01*
G02X141005Y255000I4114J3015*
G01*
D02*
G37*
G36*
X491700Y245000D02*
G75*
D01*
G03X491700Y255000I-1700J5000*
G01*
G74*
D01*
G03X494085Y256652I1700J5000*
G01*
X494085Y256652D01*
X496985Y253751D01*
X496985Y246249D01*
X494085Y243348D01*
G74*
D01*
G03X491700Y245000I4085J3348*
G01*
D02*
G37*
G36*
X444114Y43015D02*
X444114Y43015D01*
X455664Y43015D01*
G74*
D01*
G02X458300Y45000I4336J3015*
G01*
G74*
D01*
G02X455664Y46985I1700J5000*
G01*
X455664Y46985D01*
X444834Y46985D01*
G74*
D01*
G02X441641Y44883I3193J1374*
G01*
X441641Y44883D01*
X441471Y44883D01*
G74*
D01*
G02X444114Y43015I1471J4883*
G01*
D02*
G37*
G36*
X165000Y78995D02*
G74*
D01*
G02X161005Y75000I5000J1005*
G01*
G74*
D01*
G02X165000Y71005I1005J5000*
G01*
G74*
D01*
G02X168995Y75000I5000J1005*
G01*
G74*
D01*
G02X165000Y78995I1005J5000*
G01*
D02*
G37*
G36*
X165000Y68995D02*
G74*
D01*
G02X161005Y65000I5000J1005*
G01*
G74*
D01*
G02X165000Y61005I1005J5000*
G01*
G74*
D01*
G02X168995Y65000I5000J1005*
G01*
G74*
D01*
G02X165000Y68995I1005J5000*
G01*
D02*
G37*
G36*
X165000Y58995D02*
G74*
D01*
G02X161005Y55000I5000J1005*
G01*
G74*
D01*
G02X165000Y51005I1005J5000*
G01*
G74*
D01*
G02X168995Y55000I5000J1005*
G01*
G74*
D01*
G02X165000Y58995I1005J5000*
G01*
D02*
G37*
G36*
X165117Y88529D02*
X165117Y88529D01*
X165117Y88359D01*
G75*
D01*
G02X161642Y84883I-3475J0*
G01*
X161642Y84883D01*
X161471Y84883D01*
G74*
D01*
G02X165000Y81005I1471J4883*
G01*
G74*
D01*
G02X168995Y85000I5000J1005*
G01*
G74*
D01*
G02X165117Y88529I1005J5000*
G01*
D02*
G37*
G36*
X503015Y114114D02*
X503015Y114114D01*
X503015Y115886D01*
G74*
D01*
G03X504883Y118529I3015J4114*
G01*
X504883Y118529D01*
X504883Y118359D01*
G75*
D01*
G03X506985Y115166I3476J0*
G01*
X506985Y115166D01*
X506985Y114114D01*
G74*
D01*
G03X505000Y111005I3015J4114*
G01*
G74*
D01*
G03X503015Y114114I5000J1005*
G01*
D02*
G37*
G54D11*
X421809Y375231D02*
G74*
D01*
G03X424769Y378191I1809J4769*
G01*
X421809Y378191D01*
X421809Y375231D01*
X418191Y375231D02*
X418191Y378191D01*
X415231Y378191D01*
G74*
D01*
G03X418191Y375231I4769J1809*
G01*
X220003Y383015D02*
G75*
D01*
G03X217868Y382132I-3J-3015*
G01*
X200777Y365040D01*
G75*
D01*
G03X196985Y355886I-777J-5040*
G01*
X196985Y354114D01*
G74*
D01*
G03X195886Y353015I3015J4114*
G01*
X163015Y353015D01*
X163015Y355166D01*
G75*
D01*
G03X165117Y358359I-1373J3193*
G01*
X165117Y361642D01*
G74*
D01*
G03X161642Y365117I3475J0*
G01*
X158359Y365117D01*
G75*
D01*
G03X155161Y363004I0J-3475*
G01*
X104114Y363004D01*
G74*
D01*
G03X101471Y364872I4114J3015*
G01*
X101642Y364872D01*
G75*
D01*
G03X105117Y368348I0J3476*
G01*
X105117Y371631D01*
G74*
D01*
G03X101642Y375106I3475J0*
G01*
X98359Y375106D01*
G75*
D01*
G03X94883Y371631I0J-3475*
G01*
X94883Y368348D01*
G75*
D01*
G03X98359Y364872I3476J0*
G01*
X98529Y364872D01*
G75*
D01*
G03X98995Y354989I1471J-4883*
G01*
G74*
D01*
G03X95886Y353004I1005J5000*
G01*
X84839Y353004D01*
G74*
D01*
G03X81642Y355117I3197J1362*
G01*
X81471Y355117D01*
G75*
D01*
G03X81005Y365000I-1471J4883*
G01*
G75*
D01*
G03X75886Y373015I-1005J5000*
G01*
X26260Y373015D01*
G74*
D01*
G03X22792Y376267I3468J223*
G01*
X17209Y376267D01*
G75*
D01*
G03X13733Y372792I0J-3475*
G01*
X13733Y367209D01*
G75*
D01*
G03X17209Y363733I3476J0*
G01*
X22792Y363733D01*
G74*
D01*
G03X26260Y366985I0J3476*
G01*
X36985Y366985D01*
X36985Y340000D01*
G75*
D01*
G03X40000Y336985I3015J0*
G01*
X59999Y336985D01*
G75*
D01*
G03X60038Y336986I1J3015*
G01*
G74*
D01*
G03X62134Y337871I38J3014*
G01*
X71238Y346974D01*
X75171Y346974D01*
G75*
D01*
G03X78359Y344883I3188J1385*
G01*
X81642Y344883D01*
G74*
D01*
G03X84829Y346974I0J3476*
G01*
X95886Y346974D01*
G75*
D01*
G03X101005Y354989I4114J3015*
G01*
G74*
D01*
G03X104114Y356974I1005J5000*
G01*
X116985Y356974D01*
X116985Y344114D01*
G75*
D01*
G03X116985Y335886I3015J-4114*
G01*
X116985Y313015D01*
X100002Y313015D01*
G75*
D01*
G03X97868Y312132I-2J-3015*
G01*
X92981Y307244D01*
X92981Y307244D01*
X78751Y293015D01*
X64114Y293015D01*
G75*
D01*
G03X64114Y286985I-4114J-3015*
G01*
X74819Y286985D01*
X74819Y134114D01*
G74*
D01*
G03X73917Y133266I3014J4114*
G01*
G75*
D01*
G03X66985Y125886I-3917J-3266*
G01*
X66985Y101249D01*
X65259Y99523D01*
G75*
D01*
G03X63015Y104336I-5259J477*
G01*
X63015Y120000D01*
G74*
D01*
G03X60000Y123015I3015J0*
G01*
X32167Y123015D01*
G75*
D01*
G03X31090Y122816I0J-3015*
G01*
G75*
D01*
G03X26734Y113917I-1090J-4983*
G01*
G75*
D01*
G03X26985Y105886I3266J-3917*
G01*
X26985Y100006D01*
G75*
D01*
G03X27868Y97868I3015J-6*
G01*
X47868Y77868D01*
G74*
D01*
G03X49294Y77069I2132J2132*
G01*
G75*
D01*
G03X50000Y76985I706J2931*
G01*
X55664Y76985D01*
G74*
D01*
G03X58300Y75000I4336J3015*
G01*
G74*
D01*
G03X55664Y73015I1700J5000*
G01*
X51249Y73015D01*
X44302Y79961D01*
G74*
D01*
G03X42167Y80848I2135J2128*
G01*
X34114Y80848D01*
G75*
D01*
G03X26734Y73917I-4114J-3015*
G01*
G75*
D01*
G03X30777Y64960I3266J-3917*
G01*
X37868Y57868D01*
G75*
D01*
G03X40002Y56985I2132J2132*
G01*
X55664Y56985D01*
G74*
D01*
G03X58300Y55000I4336J3015*
G01*
G74*
D01*
G03X55664Y53015I1700J5000*
G01*
X40000Y53015D01*
G75*
D01*
G03X38731Y52734I0J-3015*
G01*
G74*
D01*
G03X37868Y52132I1269J2734*
G01*
X30777Y45040D01*
G75*
D01*
G03X29821Y34903I-777J-5040*
G01*
X30000Y34724D01*
X30179Y34903D01*
G75*
D01*
G03X35040Y40777I-179J5097*
G01*
X41249Y46985D01*
X55664Y46985D01*
G74*
D01*
G03X58300Y45000I4336J3015*
G01*
G75*
D01*
G03X58300Y35000I1700J-5000*
G01*
G75*
D01*
G03X61700Y35000I1700J-5000*
G01*
G75*
D01*
G03X61700Y45000I-1700J5000*
G01*
G75*
D01*
G03X61700Y55000I-1700J5000*
G01*
G75*
D01*
G03X61700Y65000I-1700J5000*
G01*
G75*
D01*
G03X61700Y75000I-1700J5000*
G01*
G75*
D01*
G03X61700Y85000I-1700J5000*
G01*
G75*
D01*
G03X65198Y90935I-1700J5000*
G01*
X67244Y92981D01*
X72129Y97866D01*
G75*
D01*
G03X73015Y100000I-2129J2134*
G01*
X73015Y125886D01*
G74*
D01*
G03X73917Y126734I3015J4114*
G01*
G75*
D01*
G03X80236Y125501I3916J3266*
G01*
X86985Y118751D01*
X86985Y104336D01*
G75*
D01*
G03X94336Y96985I3015J-4336*
G01*
X168751Y96985D01*
X170683Y95054D01*
G75*
D01*
G03X165117Y91471I-683J-5054*
G01*
X165117Y91642D01*
G74*
D01*
G03X161642Y95117I3475J0*
G01*
X158359Y95117D01*
G75*
D01*
G03X154883Y91642I0J-3475*
G01*
X154883Y88359D01*
G75*
D01*
G03X158359Y84883I3476J0*
G01*
X158529Y84883D01*
G74*
D01*
G03X155886Y83015I1471J4883*
G01*
X94336Y83015D01*
G75*
D01*
G03X88300Y75000I-4336J-3015*
G01*
G75*
D01*
G03X88300Y65000I1700J-5000*
G01*
G75*
D01*
G03X88300Y55000I1700J-5000*
G01*
G75*
D01*
G03X88300Y45000I1700J-5000*
G01*
G75*
D01*
G03X88300Y35000I1700J-5000*
G01*
G75*
D01*
G03X91700Y35000I1700J-5000*
G01*
G75*
D01*
G03X91700Y45000I-1700J5000*
G01*
G74*
D01*
G03X94336Y46985I1700J5000*
G01*
X115886Y46985D01*
G75*
D01*
G03X115886Y53015I4114J3015*
G01*
X94336Y53015D01*
G74*
D01*
G03X91700Y55000I4336J3015*
G01*
G74*
D01*
G03X94336Y56985I1700J5000*
G01*
X105886Y56985D01*
G75*
D01*
G03X105886Y63015I4114J3015*
G01*
X94336Y63015D01*
G74*
D01*
G03X91700Y65000I4336J3015*
G01*
G74*
D01*
G03X94336Y66985I1700J5000*
G01*
X155886Y66985D01*
G74*
D01*
G03X158995Y65000I4114J3015*
G01*
G75*
D01*
G03X158995Y55000I1005J-5000*
G01*
G75*
D01*
G03X165000Y48995I1005J-5000*
G01*
G75*
D01*
G03X171005Y55000I5000J1005*
G01*
G75*
D01*
G03X171005Y65000I-1005J5000*
G01*
G75*
D01*
G03X171005Y75000I-1005J5000*
G01*
G75*
D01*
G03X171005Y85000I-1005J5000*
G01*
G75*
D01*
G03X175054Y90683I-1005J5000*
G01*
X181368Y84368D01*
G75*
D01*
G03X183504Y83485I2132J2132*
G01*
X246985Y83485D01*
X246985Y54114D01*
G75*
D01*
G03X253015Y54114I3015J-4114*
G01*
X253015Y83485D01*
X286500Y83485D01*
G74*
D01*
G03X288634Y84371I0J3015*
G01*
X291249Y86985D01*
X296985Y86985D01*
X296985Y84834D01*
G74*
D01*
G03X294883Y81642I1374J3192*
G01*
X294883Y78359D01*
G75*
D01*
G03X298359Y74883I3476J0*
G01*
X298529Y74883D01*
G74*
D01*
G03X295886Y73015I1471J4883*
G01*
X284114Y73015D01*
G75*
D01*
G03X284114Y66985I-4114J-3015*
G01*
X295886Y66985D01*
G75*
D01*
G03X301471Y74883I4114J3015*
G01*
X301642Y74883D01*
G75*
D01*
G03X305117Y78359I0J3476*
G01*
X305117Y81642D01*
G74*
D01*
G03X303015Y84834I3475J0*
G01*
X303015Y86985D01*
X358751Y86985D01*
X364802Y80935D01*
G75*
D01*
G03X368300Y75000I5198J-935*
G01*
G75*
D01*
G03X368300Y65000I1700J-5000*
G01*
G75*
D01*
G03X368300Y55000I1700J-5000*
G01*
G75*
D01*
G03X368300Y45000I1700J-5000*
G01*
G75*
D01*
G03X368300Y35000I1700J-5000*
G01*
G75*
D01*
G03X368300Y25000I1700J-5000*
G01*
G75*
D01*
G03X371700Y25000I1700J-5000*
G01*
G75*
D01*
G03X371700Y35000I-1700J5000*
G01*
G75*
D01*
G03X371700Y45000I-1700J5000*
G01*
G75*
D01*
G03X371700Y55000I-1700J5000*
G01*
G75*
D01*
G03X371700Y65000I-1700J5000*
G01*
G75*
D01*
G03X371700Y75000I-1700J5000*
G01*
G74*
D01*
G03X374336Y76985I1700J5000*
G01*
X405886Y76985D01*
G75*
D01*
G03X413015Y84114I4114J3015*
G01*
X413015Y85166D01*
G75*
D01*
G03X415117Y88359I-1373J3193*
G01*
X415117Y91642D01*
G74*
D01*
G03X413015Y94834I3475J0*
G01*
X413015Y105886D01*
G75*
D01*
G03X406985Y105886I-3015J4114*
G01*
X406985Y94834D01*
G74*
D01*
G03X404883Y91642I1374J3192*
G01*
X404883Y88359D01*
G75*
D01*
G03X406985Y85166I3476J0*
G01*
X406985Y84114D01*
G74*
D01*
G03X405886Y83015I3015J4114*
G01*
X374336Y83015D01*
G75*
D01*
G03X369065Y85198I-4336J-3015*
G01*
X362134Y92129D01*
G74*
D01*
G03X360000Y93015I2134J2129*
G01*
X290001Y93015D01*
G75*
D01*
G03X287868Y92132I-1J-3015*
G01*
X285251Y89515D01*
X250879Y89515D01*
G75*
D01*
G03X250439Y89482I0J-3015*
G01*
G74*
D01*
G03X250000Y89515I439J2982*
G01*
X184749Y89515D01*
X181282Y92981D01*
X181282Y92981D01*
X172134Y102129D01*
G74*
D01*
G03X170000Y103015I2134J2129*
G01*
X94336Y103015D01*
G74*
D01*
G03X93015Y104336I4336J3015*
G01*
X93015Y120000D01*
G74*
D01*
G03X92129Y122134I3015J0*
G01*
X82682Y131581D01*
G74*
D01*
G03X80848Y134114I4849J1581*
G01*
X80848Y286585D01*
X82129Y287866D01*
G74*
D01*
G03X82134Y287871I2129J2134*
G01*
X92981Y298718D01*
X92981Y298718D01*
X101249Y306985D01*
X116985Y306985D01*
X116985Y283563D01*
G75*
D01*
G03X123015Y283563I3015J-3563*
G01*
X123015Y335886D01*
G75*
D01*
G03X123015Y344114I-3015J4114*
G01*
X123015Y356974D01*
X155171Y356974D01*
G74*
D01*
G03X156985Y355166I3188J1385*
G01*
X156985Y324114D01*
G75*
D01*
G03X158995Y315000I3015J-4114*
G01*
G75*
D01*
G03X158995Y305000I1005J-5000*
G01*
G75*
D01*
G03X158995Y295000I1005J-5000*
G01*
G75*
D01*
G03X158995Y285000I1005J-5000*
G01*
G75*
D01*
G03X158995Y275000I1005J-5000*
G01*
G74*
D01*
G03X155886Y273015I1005J5000*
G01*
X123563Y273015D01*
G75*
D01*
G03X123563Y266985I-3563J-3015*
G01*
X155886Y266985D01*
G74*
D01*
G03X158995Y265000I4114J3015*
G01*
G74*
D01*
G03X155886Y263015I1005J5000*
G01*
X144114Y263015D01*
G75*
D01*
G03X138995Y255000I-4114J-3015*
G01*
G75*
D01*
G03X144114Y246985I1005J-5000*
G01*
X155886Y246985D01*
G74*
D01*
G03X158995Y245000I4114J3015*
G01*
G74*
D01*
G03X155886Y243015I1005J5000*
G01*
X113015Y243015D01*
X113015Y256437D01*
G75*
D01*
G03X106985Y256437I-3015J3563*
G01*
X106985Y240000D01*
G75*
D01*
G03X110000Y236985I3015J0*
G01*
X155886Y236985D01*
G74*
D01*
G03X158995Y235000I4114J3015*
G01*
G74*
D01*
G03X155886Y233015I1005J5000*
G01*
X130000Y233015D01*
G75*
D01*
G03X128932Y232819I0J-3015*
G01*
G74*
D01*
G03X127868Y232132I1068J2819*
G01*
X113015Y217278D01*
X113015Y226886D01*
G75*
D01*
G03X106985Y226886I-3015J4114*
G01*
X106985Y213015D01*
X94114Y213015D01*
G75*
D01*
G03X88529Y205117I-4114J-3015*
G01*
X88359Y205117D01*
G75*
D01*
G03X84883Y201642I0J-3475*
G01*
X84883Y198359D01*
G75*
D01*
G03X88359Y194883I3476J0*
G01*
X91642Y194883D01*
G74*
D01*
G03X94834Y196985I0J3476*
G01*
X109998Y196985D01*
G75*
D01*
G03X110266Y196997I2J3015*
G01*
G74*
D01*
G03X112134Y197871I266J3003*
G01*
X116985Y202722D01*
X116985Y195114D01*
G75*
D01*
G03X123015Y195114I3015J-4114*
G01*
X123015Y208751D01*
X131249Y216985D01*
X155886Y216985D01*
G74*
D01*
G03X158995Y215000I4114J3015*
G01*
G74*
D01*
G03X155886Y213015I1005J5000*
G01*
X140000Y213015D01*
G75*
D01*
G03X139105Y212879I0J-3015*
G01*
G74*
D01*
G03X137868Y212132I895J2879*
G01*
X127868Y202132D01*
G75*
D01*
G03X126985Y199995I2132J-2132*
G01*
X126985Y174114D01*
G75*
D01*
G03X135000Y168995I3015J-4114*
G01*
G75*
D01*
G03X144114Y166985I5000J1005*
G01*
X155886Y166985D01*
G74*
D01*
G03X158995Y165000I4114J3015*
G01*
G75*
D01*
G03X158995Y155000I1005J-5000*
G01*
G75*
D01*
G03X158995Y145000I1005J-5000*
G01*
G75*
D01*
G03X158995Y135000I1005J-5000*
G01*
G74*
D01*
G03X157907Y134651I1005J5000*
G01*
X160000Y132558D01*
X162093Y134651D01*
G74*
D01*
G03X161005Y135000I2093J4651*
G01*
G75*
D01*
G03X161005Y145000I-1005J5000*
G01*
G75*
D01*
G03X161005Y155000I-1005J5000*
G01*
G74*
D01*
G03X164114Y156985I1005J5000*
G01*
X168751Y156985D01*
X176985Y148751D01*
X176985Y110006D01*
G75*
D01*
G03X177868Y107868I3015J-6*
G01*
X187868Y97868D01*
G74*
D01*
G03X189591Y97013I2132J2132*
G01*
G75*
D01*
G03X190000Y96985I409J2987*
G01*
X379996Y96985D01*
G75*
D01*
G03X381007Y97159I4J3015*
G01*
G74*
D01*
G03X382134Y97871I1007J2841*
G01*
X389223Y104960D01*
G75*
D01*
G03X384960Y109223I777J5040*
G01*
X378751Y103015D01*
X191249Y103015D01*
X183015Y111249D01*
X183015Y150000D01*
G74*
D01*
G03X182129Y152134I3015J0*
G01*
X172134Y162129D01*
G74*
D01*
G03X171007Y162841I2134J2129*
G01*
G75*
D01*
G03X169996Y163015I-1007J-2841*
G01*
X164114Y163015D01*
G74*
D01*
G03X161005Y165000I4114J3015*
G01*
G75*
D01*
G03X161005Y175000I-1005J5000*
G01*
G75*
D01*
G03X161005Y185000I-1005J5000*
G01*
G75*
D01*
G03X161005Y195000I-1005J5000*
G01*
G75*
D01*
G03X161005Y205000I-1005J5000*
G01*
G75*
D01*
G03X161005Y215000I-1005J5000*
G01*
G75*
D01*
G03X161005Y225000I-1005J5000*
G01*
G75*
D01*
G03X161005Y235000I-1005J5000*
G01*
G75*
D01*
G03X161005Y245000I-1005J5000*
G01*
G75*
D01*
G03X161005Y255000I-1005J5000*
G01*
G75*
D01*
G03X161005Y265000I-1005J5000*
G01*
G75*
D01*
G03X161005Y275000I-1005J5000*
G01*
G75*
D01*
G03X161005Y285000I-1005J5000*
G01*
G75*
D01*
G03X161005Y295000I-1005J5000*
G01*
G75*
D01*
G03X161005Y305000I-1005J5000*
G01*
G75*
D01*
G03X161005Y315000I-1005J5000*
G01*
G75*
D01*
G03X163015Y324114I-1005J5000*
G01*
X163015Y346985D01*
X195886Y346985D01*
G74*
D01*
G03X196985Y345886I4114J3015*
G01*
X196985Y340004D01*
G75*
D01*
G03X197868Y337868I3015J-4*
G01*
X214960Y320777D01*
G75*
D01*
G03X218995Y315000I5040J-777*
G01*
G75*
D01*
G03X218995Y305000I1005J-5000*
G01*
G75*
D01*
G03X218995Y295000I1005J-5000*
G01*
G75*
D01*
G03X218995Y285000I1005J-5000*
G01*
G75*
D01*
G03X218995Y275000I1005J-5000*
G01*
G75*
D01*
G03X218995Y265000I1005J-5000*
G01*
G75*
D01*
G03X218995Y255000I1005J-5000*
G01*
G75*
D01*
G03X218995Y245000I1005J-5000*
G01*
G75*
D01*
G03X218995Y235000I1005J-5000*
G01*
G75*
D01*
G03X218995Y225000I1005J-5000*
G01*
G75*
D01*
G03X218995Y215000I1005J-5000*
G01*
G75*
D01*
G03X218995Y205000I1005J-5000*
G01*
G75*
D01*
G03X218995Y195000I1005J-5000*
G01*
G75*
D01*
G03X218995Y185000I1005J-5000*
G01*
G75*
D01*
G03X218995Y175000I1005J-5000*
G01*
G75*
D01*
G03X218995Y165000I1005J-5000*
G01*
G75*
D01*
G03X218995Y155000I1005J-5000*
G01*
G75*
D01*
G03X218995Y145000I1005J-5000*
G01*
G74*
D01*
G03X215886Y143015I1005J5000*
G01*
X210000Y143015D01*
G75*
D01*
G03X209105Y142879I0J-3015*
G01*
G74*
D01*
G03X207868Y142132I895J2879*
G01*
X197868Y132132D01*
G75*
D01*
G03X196985Y129995I2132J-2132*
G01*
X196985Y120004D01*
G75*
D01*
G03X197868Y117868I3015J-4*
G01*
X204960Y110777D01*
G75*
D01*
G03X209223Y115040I5040J-777*
G01*
X203015Y121249D01*
X203015Y128751D01*
X211249Y136985D01*
X215886Y136985D01*
G74*
D01*
G03X218995Y135000I4114J3015*
G01*
G75*
D01*
G03X224114Y126985I1005J-5000*
G01*
X235886Y126985D01*
G75*
D01*
G03X235886Y133015I4114J3015*
G01*
X224114Y133015D01*
G74*
D01*
G03X221005Y135000I4114J3015*
G01*
G75*
D01*
G03X221005Y145000I-1005J5000*
G01*
G75*
D01*
G03X221005Y155000I-1005J5000*
G01*
G75*
D01*
G03X221005Y165000I-1005J5000*
G01*
G74*
D01*
G03X224114Y166985I1005J5000*
G01*
X265664Y166985D01*
G74*
D01*
G03X268300Y165000I4336J3015*
G01*
G75*
D01*
G03X268300Y155000I1700J-5000*
G01*
G75*
D01*
G03X268300Y145000I1700J-5000*
G01*
G74*
D01*
G03X265664Y143015I1700J5000*
G01*
X254114Y143015D01*
G75*
D01*
G03X254114Y136985I-4114J-3015*
G01*
X265664Y136985D01*
G74*
D01*
G03X268300Y135000I4336J3015*
G01*
G75*
D01*
G03X268300Y125000I1700J-5000*
G01*
G74*
D01*
G03X265664Y123015I1700J5000*
G01*
X260525Y123015D01*
G75*
D01*
G03X260525Y116985I-4525J-3015*
G01*
X265664Y116985D01*
G74*
D01*
G03X268607Y114906I4336J3015*
G01*
G75*
D01*
G03X274114Y106985I1393J-4906*
G01*
X365886Y106985D01*
G75*
D01*
G03X371005Y115000I4114J3015*
G01*
G75*
D01*
G03X371005Y125000I-1005J5000*
G01*
G75*
D01*
G03X371005Y135000I-1005J5000*
G01*
G75*
D01*
G03X371005Y145000I-1005J5000*
G01*
G75*
D01*
G03X371005Y155000I-1005J5000*
G01*
G75*
D01*
G03X371005Y165000I-1005J5000*
G01*
G74*
D01*
G03X374114Y166985I1005J5000*
G01*
X508751Y166985D01*
X514960Y160777D01*
G75*
D01*
G03X519223Y165040I5040J-777*
G01*
X512134Y172129D01*
G74*
D01*
G03X510000Y173015I2134J2129*
G01*
X374114Y173015D01*
G74*
D01*
G03X371471Y174883I4114J3015*
G01*
X371642Y174883D01*
G75*
D01*
G03X375117Y178359I0J3476*
G01*
X375117Y181642D01*
G74*
D01*
G03X371642Y185117I3475J0*
G01*
X368359Y185117D01*
G75*
D01*
G03X365166Y183015I0J-3475*
G01*
X304336Y183015D01*
G74*
D01*
G03X301700Y185000I4336J3015*
G01*
G74*
D01*
G03X304336Y186985I1700J5000*
G01*
X339996Y186985D01*
G75*
D01*
G03X341143Y187211I4J3015*
G01*
G74*
D01*
G03X342134Y187871I1143J2789*
G01*
X376445Y222182D01*
X376446Y222182D01*
X431249Y276985D01*
X455886Y276985D01*
G75*
D01*
G03X463015Y284114I4114J3015*
G01*
X463015Y298751D01*
X470934Y306671D01*
X471249Y306985D01*
X496985Y306985D01*
X496985Y290006D01*
G75*
D01*
G03X497868Y287868I3015J-6*
G01*
X503780Y281957D01*
X507868Y277868D01*
G74*
D01*
G03X509591Y277013I2132J2132*
G01*
G75*
D01*
G03X510000Y276985I409J2987*
G01*
X515664Y276985D01*
G74*
D01*
G03X518300Y275000I4336J3015*
G01*
G75*
D01*
G03X518300Y265000I1700J-5000*
G01*
G75*
D01*
G03X518300Y255000I1700J-5000*
G01*
G75*
D01*
G03X518300Y245000I1700J-5000*
G01*
G75*
D01*
G03X518300Y235000I1700J-5000*
G01*
G75*
D01*
G03X518300Y225000I1700J-5000*
G01*
G75*
D01*
G03X518300Y215000I1700J-5000*
G01*
G75*
D01*
G03X518300Y205000I1700J-5000*
G01*
G75*
D01*
G03X518300Y195000I1700J-5000*
G01*
G75*
D01*
G03X524336Y186985I1700J-5000*
G01*
X605886Y186985D01*
G75*
D01*
G03X605886Y193015I4114J3015*
G01*
X524336Y193015D01*
G74*
D01*
G03X521700Y195000I4336J3015*
G01*
G74*
D01*
G03X524336Y196985I1700J5000*
G01*
X595886Y196985D01*
G75*
D01*
G03X595886Y203015I4114J3015*
G01*
X524336Y203015D01*
G74*
D01*
G03X521700Y205000I4336J3015*
G01*
G74*
D01*
G03X524336Y206985I1700J5000*
G01*
X585886Y206985D01*
G75*
D01*
G03X585886Y213015I4114J3015*
G01*
X524336Y213015D01*
G74*
D01*
G03X521700Y215000I4336J3015*
G01*
G74*
D01*
G03X524336Y216985I1700J5000*
G01*
X575886Y216985D01*
G75*
D01*
G03X575886Y223015I4114J3015*
G01*
X524336Y223015D01*
G74*
D01*
G03X521700Y225000I4336J3015*
G01*
G74*
D01*
G03X524336Y226985I1700J5000*
G01*
X565886Y226985D01*
G75*
D01*
G03X565886Y233015I4114J3015*
G01*
X524336Y233015D01*
G74*
D01*
G03X521700Y235000I4336J3015*
G01*
G74*
D01*
G03X524336Y236985I1700J5000*
G01*
X555886Y236985D01*
G75*
D01*
G03X555886Y243015I4114J3015*
G01*
X524336Y243015D01*
G74*
D01*
G03X521700Y245000I4336J3015*
G01*
G74*
D01*
G03X524336Y246985I1700J5000*
G01*
X545886Y246985D01*
G75*
D01*
G03X545886Y253015I4114J3015*
G01*
X524336Y253015D01*
G74*
D01*
G03X521700Y255000I4336J3015*
G01*
G74*
D01*
G03X524336Y256985I1700J5000*
G01*
X535886Y256985D01*
G75*
D01*
G03X535886Y263015I4114J3015*
G01*
X524336Y263015D01*
G74*
D01*
G03X521700Y265000I4336J3015*
G01*
G74*
D01*
G03X524336Y266985I1700J5000*
G01*
X530000Y266985D01*
G74*
D01*
G03X532134Y267871I0J3015*
G01*
X542129Y277866D01*
G75*
D01*
G03X543015Y280000I-2129J2134*
G01*
X543015Y290000D01*
G74*
D01*
G03X542129Y292134I3015J0*
G01*
X532134Y302129D01*
G74*
D01*
G03X530000Y303015I2134J2129*
G01*
X524114Y303015D01*
G75*
D01*
G03X524114Y296985I-4114J-3015*
G01*
X528751Y296985D01*
X536985Y288751D01*
X536985Y281249D01*
X528751Y273015D01*
X524336Y273015D01*
G74*
D01*
G03X521700Y275000I4336J3015*
G01*
G75*
D01*
G03X515664Y283015I-1700J5000*
G01*
X511249Y283015D01*
X503015Y291249D01*
X503015Y306985D01*
X608751Y306985D01*
X616985Y298751D01*
X616985Y111249D01*
X608751Y103015D01*
X604114Y103015D01*
G75*
D01*
G03X595886Y103015I-4114J-3015*
G01*
X554114Y103015D01*
G75*
D01*
G03X545886Y103015I-4114J-3015*
G01*
X494336Y103015D01*
G75*
D01*
G03X488300Y95000I-4336J-3015*
G01*
G75*
D01*
G03X488300Y85000I1700J-5000*
G01*
G75*
D01*
G03X488300Y75000I1700J-5000*
G01*
G75*
D01*
G03X488300Y65000I1700J-5000*
G01*
G74*
D01*
G03X485664Y63015I1700J5000*
G01*
X483015Y63015D01*
X483015Y115886D01*
G74*
D01*
G03X485000Y118995I3015J4114*
G01*
G75*
D01*
G03X495000Y118995I5000J1005*
G01*
G74*
D01*
G03X496985Y115886I5000J1005*
G01*
X496985Y114114D01*
G75*
D01*
G03X505000Y108995I3015J-4114*
G01*
G75*
D01*
G03X513015Y114114I5000J1005*
G01*
X513015Y115166D01*
G75*
D01*
G03X515117Y118359I-1374J3193*
G01*
X515117Y121642D01*
G74*
D01*
G03X511641Y125117I3476J0*
G01*
X508359Y125117D01*
G75*
D01*
G03X504883Y121642I0J-3475*
G01*
X504883Y121471D01*
G75*
D01*
G03X495000Y121005I-4883J-1471*
G01*
G74*
D01*
G03X493015Y124114I5000J1005*
G01*
X493015Y126985D01*
X515886Y126985D01*
G75*
D01*
G03X515886Y133015I4114J3015*
G01*
X490000Y133015D01*
G75*
D01*
G03X486985Y130000I0J-3015*
G01*
X486985Y124114D01*
G74*
D01*
G03X485000Y121005I3015J4114*
G01*
G75*
D01*
G03X475000Y121005I-5000J-1005*
G01*
G75*
D01*
G03X465000Y121005I-5000J-1005*
G01*
G74*
D01*
G03X463015Y124114I5000J1005*
G01*
X463015Y130000D01*
G74*
D01*
G03X460000Y133015I3015J0*
G01*
X404114Y133015D01*
G75*
D01*
G03X404114Y126985I-4114J-3015*
G01*
X456985Y126985D01*
X456985Y124114D01*
G74*
D01*
G03X455000Y121005I3015J4114*
G01*
G75*
D01*
G03X445000Y121005I-5000J-1005*
G01*
G75*
D01*
G03X436985Y115886I-5000J-1005*
G01*
X436985Y104114D01*
G75*
D01*
G03X443015Y104114I3015J-4114*
G01*
X443015Y115886D01*
G74*
D01*
G03X445000Y118995I3015J4114*
G01*
G74*
D01*
G03X446985Y115886I5000J1005*
G01*
X446985Y90879D01*
G75*
D01*
G03X450000Y87864I3015J0*
G01*
X455170Y87864D01*
G74*
D01*
G03X458300Y85000I4830J2136*
G01*
G74*
D01*
G03X455664Y83015I1700J5000*
G01*
X434114Y83015D01*
G75*
D01*
G03X434114Y76985I-4114J-3015*
G01*
X455664Y76985D01*
G74*
D01*
G03X458300Y75000I4336J3015*
G01*
G74*
D01*
G03X455664Y73015I1700J5000*
G01*
X444114Y73015D01*
G75*
D01*
G03X444114Y66985I-4114J-3015*
G01*
X455664Y66985D01*
G74*
D01*
G03X458300Y65000I4336J3015*
G01*
G74*
D01*
G03X455664Y63015I1700J5000*
G01*
X404114Y63015D01*
G75*
D01*
G03X404114Y56985I-4114J-3015*
G01*
X455664Y56985D01*
G74*
D01*
G03X458300Y55000I4336J3015*
G01*
G74*
D01*
G03X455664Y53015I1700J5000*
G01*
X444834Y53015D01*
G74*
D01*
G03X441641Y55117I3193J1373*
G01*
X438359Y55117D01*
G75*
D01*
G03X435166Y53015I0J-3475*
G01*
X434114Y53015D01*
G75*
D01*
G03X434114Y46985I-4114J-3015*
G01*
X435166Y46985D01*
G75*
D01*
G03X438359Y44883I3193J1374*
G01*
X438529Y44883D01*
G75*
D01*
G03X434960Y39223I1471J-4883*
G01*
X430777Y35040D01*
G75*
D01*
G03X435040Y30777I-777J-5040*
G01*
X439223Y34960D01*
G75*
D01*
G03X444114Y36985I777J5040*
G01*
X455664Y36985D01*
G75*
D01*
G03X461700Y45000I4336J3015*
G01*
G75*
D01*
G03X461700Y55000I-1700J5000*
G01*
G75*
D01*
G03X461700Y65000I-1700J5000*
G01*
G75*
D01*
G03X461700Y75000I-1700J5000*
G01*
G75*
D01*
G03X461700Y85000I-1700J5000*
G01*
G75*
D01*
G03X461700Y95000I-1700J5000*
G01*
G75*
D01*
G03X465198Y100935I-1700J5000*
G01*
X470934Y106671D01*
X470934Y106671D01*
X472129Y107866D01*
G75*
D01*
G03X473015Y110000I-2129J2134*
G01*
X473015Y115886D01*
G74*
D01*
G03X475000Y118995I3015J4114*
G01*
G74*
D01*
G03X476985Y115886I5000J1005*
G01*
X476985Y60000D01*
G75*
D01*
G03X480000Y56985I3015J0*
G01*
X485664Y56985D01*
G74*
D01*
G03X488300Y55000I4336J3015*
G01*
G74*
D01*
G03X485664Y53015I1700J5000*
G01*
X480004Y53015D01*
G75*
D01*
G03X477868Y52132I-4J-3015*
G01*
X470934Y45197D01*
X470934Y45197D01*
X467868Y42132D01*
G75*
D01*
G03X466985Y39996I2132J-2132*
G01*
X466985Y21249D01*
X458751Y13015D01*
X214114Y13015D01*
G75*
D01*
G03X214114Y6985I-4114J-3015*
G01*
X460000Y6985D01*
G74*
D01*
G03X462134Y7871I0J3015*
G01*
X470934Y16671D01*
X472129Y17866D01*
G75*
D01*
G03X473015Y20000I-2129J2134*
G01*
X473015Y38751D01*
X481249Y46985D01*
X485664Y46985D01*
G74*
D01*
G03X488300Y45000I4336J3015*
G01*
G75*
D01*
G03X488300Y35000I1700J-5000*
G01*
G75*
D01*
G03X494336Y26985I1700J-5000*
G01*
X535166Y26985D01*
G75*
D01*
G03X538359Y24883I3193J1374*
G01*
X541642Y24883D01*
G74*
D01*
G03X544834Y26985I0J3476*
G01*
X555886Y26985D01*
G75*
D01*
G03X555886Y33015I4114J3015*
G01*
X544834Y33015D01*
G74*
D01*
G03X541642Y35117I3192J1373*
G01*
X541471Y35117D01*
G74*
D01*
G03X544114Y36985I1471J4883*
G01*
X550000Y36985D01*
G74*
D01*
G03X552134Y37871I0J3015*
G01*
X559223Y44960D01*
G75*
D01*
G03X554960Y49223I777J5040*
G01*
X548751Y43015D01*
X544114Y43015D01*
G74*
D01*
G03X541005Y45000I4114J3015*
G01*
G75*
D01*
G03X535886Y53015I-1005J5000*
G01*
X494336Y53015D01*
G74*
D01*
G03X491700Y55000I4336J3015*
G01*
G75*
D01*
G03X491700Y65000I-1700J5000*
G01*
G74*
D01*
G03X494336Y66985I1700J5000*
G01*
X505886Y66985D01*
G75*
D01*
G03X514114Y66985I4114J3015*
G01*
X569997Y66985D01*
G75*
D01*
G03X570814Y67098I3J3015*
G01*
G74*
D01*
G03X572134Y67871I814J2902*
G01*
X591249Y86985D01*
X595886Y86985D01*
G75*
D01*
G03X601005Y95000I4114J3015*
G01*
G74*
D01*
G03X604114Y96985I1005J5000*
G01*
X610000Y96985D01*
G74*
D01*
G03X612134Y97871I0J3015*
G01*
X622129Y107866D01*
G75*
D01*
G03X623015Y110000I-2129J2134*
G01*
X623015Y300000D01*
G74*
D01*
G03X622129Y302134I3015J0*
G01*
X612134Y312129D01*
G74*
D01*
G03X611007Y312841I2134J2129*
G01*
G75*
D01*
G03X609996Y313015I-1007J-2841*
G01*
X471249Y313015D01*
X470934Y313329D01*
X407818Y376445D01*
X402134Y382129D01*
G74*
D01*
G03X400000Y383015I2134J2129*
G01*
X220003Y383015D01*
X195141Y376446D02*
G75*
D01*
G03X195141Y376446I-5141J3554*
G01*
X164525Y383015D02*
X124114Y383015D01*
G75*
D01*
G03X124114Y376985I-4114J-3015*
G01*
X164525Y376985D01*
G75*
D01*
G03X164525Y383015I5475J3015*
G01*
X94938Y91873D02*
G74*
D01*
G03X91873Y94938I4938J1873*
G01*
X91873Y91873D01*
X94938Y91873D01*
X91873Y85062D02*
G74*
D01*
G03X94938Y88127I1873J4938*
G01*
X91873Y88127D01*
X91873Y85062D01*
X85062Y91873D02*
X88127Y91873D01*
X88127Y94938D01*
G74*
D01*
G03X85062Y91873I1873J4938*
G01*
X384114Y213015D02*
G75*
D01*
G03X384114Y206985I-4114J-3015*
G01*
X395886Y206985D01*
G75*
D01*
G03X395886Y213015I4114J3015*
G01*
X384114Y213015D01*
X494938Y188127D02*
X491873Y188127D01*
X491873Y185062D01*
G74*
D01*
G03X494938Y188127I1873J4938*
G01*
X485062Y188127D02*
G74*
D01*
G03X488127Y185062I4938J1873*
G01*
X488127Y188127D01*
X485062Y188127D01*
X483015Y295886D02*
G75*
D01*
G03X476985Y295886I-3015J4114*
G01*
X476985Y263015D01*
X434114Y263015D01*
G75*
D01*
G03X429821Y254903I-4114J-3015*
G01*
X430000Y254724D01*
X430179Y254903D01*
G74*
D01*
G03X434114Y256985I179J5097*
G01*
X478751Y256985D01*
X484802Y250935D01*
G75*
D01*
G03X488300Y245000I5198J-935*
G01*
G74*
D01*
G03X485664Y243015I1700J5000*
G01*
X464114Y243015D01*
G75*
D01*
G03X454960Y239223I-4114J-3015*
G01*
X418751Y203015D01*
X414114Y203015D01*
G75*
D01*
G03X414114Y196985I-4114J-3015*
G01*
X420000Y196985D01*
G74*
D01*
G03X422134Y197871I0J3015*
G01*
X459223Y234960D01*
G75*
D01*
G03X464114Y236985I777J5040*
G01*
X485664Y236985D01*
G74*
D01*
G03X488300Y235000I4336J3015*
G01*
G74*
D01*
G03X485664Y233015I1700J5000*
G01*
X470001Y233015D01*
G75*
D01*
G03X467868Y232132I-1J-3015*
G01*
X430777Y195040D01*
G75*
D01*
G03X435040Y190777I-777J-5040*
G01*
X470934Y226671D01*
X471249Y226985D01*
X485664Y226985D01*
G75*
D01*
G03X491700Y235000I4336J3015*
G01*
G74*
D01*
G03X494336Y236985I1700J5000*
G01*
X494997Y236985D01*
G75*
D01*
G03X495634Y237053I3J3015*
G01*
G74*
D01*
G03X497134Y237871I634J2947*
G01*
X502129Y242866D01*
G75*
D01*
G03X503015Y245000I-2129J2134*
G01*
X503015Y255000D01*
G74*
D01*
G03X502129Y257134I3015J0*
G01*
X497134Y262129D01*
G74*
D01*
G03X495000Y263015I2134J2129*
G01*
X494336Y263015D01*
G74*
D01*
G03X491700Y265000I4336J3015*
G01*
G74*
D01*
G03X494336Y266985I1700J5000*
G01*
X498751Y266985D01*
X506985Y258751D01*
X506985Y191249D01*
X503206Y187469D01*
X498751Y183015D01*
X394114Y183015D01*
G75*
D01*
G03X394114Y176985I-4114J-3015*
G01*
X499996Y176985D01*
G75*
D01*
G03X501007Y177159I4J3015*
G01*
G74*
D01*
G03X502134Y177871I1007J2841*
G01*
X511732Y187469D01*
X512129Y187866D01*
G75*
D01*
G03X513015Y190000I-2129J2134*
G01*
X513015Y260000D01*
G74*
D01*
G03X512129Y262134I3015J0*
G01*
X502134Y272129D01*
G74*
D01*
G03X500000Y273015I2134J2129*
G01*
X494336Y273015D01*
G74*
D01*
G03X491700Y275000I4336J3015*
G01*
G75*
D01*
G03X493015Y284336I-1700J5000*
G01*
X493015Y285886D01*
G75*
D01*
G03X486985Y285886I-3015J4114*
G01*
X486985Y284336D01*
G75*
D01*
G03X488300Y275000I3015J-4336*
G01*
G75*
D01*
G03X488300Y265000I1700J-5000*
G01*
G75*
D01*
G03X484741Y259523I1700J-5000*
G01*
X483015Y261249D01*
X483015Y295886D01*
X188191Y54769D02*
G74*
D01*
G03X185231Y51809I1809J4769*
G01*
X188191Y51809D01*
X188191Y54769D01*
X188191Y45231D02*
X188191Y48191D01*
X185231Y48191D01*
G74*
D01*
G03X188191Y45231I4769J1809*
G01*
X134114Y26985D02*
X240000Y26985D01*
G74*
D01*
G03X240439Y27018I0J3015*
G01*
G75*
D01*
G03X240879Y26985I440J2982*
G01*
X275886Y26985D01*
G75*
D01*
G03X275886Y33015I4114J3015*
G01*
X243015Y33015D01*
X243015Y35886D01*
G75*
D01*
G03X236985Y35886I-3015J4114*
G01*
X236985Y33015D01*
X134114Y33015D01*
G75*
D01*
G03X134114Y26985I-4114J-3015*
G01*
X144114Y23015D02*
G75*
D01*
G03X144114Y16985I-4114J-3015*
G01*
X290000Y16985D01*
G74*
D01*
G03X292134Y17871I0J3015*
G01*
X311249Y36985D01*
X335664Y36985D01*
G74*
D01*
G03X338300Y35000I4336J3015*
G01*
G74*
D01*
G03X335664Y33015I1700J5000*
G01*
X324114Y33015D01*
G75*
D01*
G03X324114Y26985I-4114J-3015*
G01*
X335664Y26985D01*
G75*
D01*
G03X341700Y35000I4336J3015*
G01*
G74*
D01*
G03X344336Y36985I1700J5000*
G01*
X350000Y36985D01*
G74*
D01*
G03X352134Y37871I0J3015*
G01*
X362129Y47866D01*
G75*
D01*
G03X363015Y50000I-2129J2134*
G01*
X363015Y60000D01*
G74*
D01*
G03X362129Y62134I3015J0*
G01*
X352134Y72129D01*
G74*
D01*
G03X350000Y73015I2134J2129*
G01*
X344336Y73015D01*
G74*
D01*
G03X341700Y75000I4336J3015*
G01*
G75*
D01*
G03X335664Y83015I-1700J5000*
G01*
X334114Y83015D01*
G75*
D01*
G03X334114Y76985I-4114J-3015*
G01*
X335664Y76985D01*
G74*
D01*
G03X338300Y75000I4336J3015*
G01*
G75*
D01*
G03X338300Y65000I1700J-5000*
G01*
G74*
D01*
G03X335664Y63015I1700J5000*
G01*
X314114Y63015D01*
G75*
D01*
G03X314114Y56985I-4114J-3015*
G01*
X335664Y56985D01*
G74*
D01*
G03X338300Y55000I4336J3015*
G01*
G74*
D01*
G03X335664Y53015I1700J5000*
G01*
X274114Y53015D01*
G75*
D01*
G03X274114Y46985I-4114J-3015*
G01*
X335664Y46985D01*
G74*
D01*
G03X338300Y45000I4336J3015*
G01*
G74*
D01*
G03X335664Y43015I1700J5000*
G01*
X310003Y43015D01*
G75*
D01*
G03X307868Y42132I-3J-3015*
G01*
X288751Y23015D01*
X144114Y23015D01*
X565231Y121809D02*
X568191Y121809D01*
X568191Y124769D01*
G74*
D01*
G03X565231Y121809I1809J4769*
G01*
X565231Y118191D02*
G74*
D01*
G03X568191Y115231I4769J1809*
G01*
X568191Y118191D01*
X565231Y118191D01*
X534114Y146985D02*
X565886Y146985D01*
G75*
D01*
G03X573015Y154114I4114J3015*
G01*
X573015Y165886D01*
G75*
D01*
G03X566985Y165886I-3015J4114*
G01*
X566985Y154114D01*
G74*
D01*
G03X565886Y153015I3015J4114*
G01*
X534114Y153015D01*
G75*
D01*
G03X525886Y153015I-4114J-3015*
G01*
X414114Y153015D01*
G75*
D01*
G03X414114Y146985I-4114J-3015*
G01*
X525886Y146985D01*
G75*
D01*
G03X534114Y146985I4114J3015*
G01*
X94114Y273015D02*
G75*
D01*
G03X94114Y266985I-4114J-3015*
G01*
X106437Y266985D01*
G75*
D01*
G03X106437Y273015I3563J3015*
G01*
X94114Y273015D01*
X106985Y283902D02*
G74*
D01*
G03X105483Y281042I1974J2860*
G01*
X105483Y278959D01*
G75*
D01*
G03X108959Y275483I3476J0*
G01*
X111042Y275483D01*
G75*
D01*
G03X114517Y278959I0J3476*
G01*
X114517Y281042D01*
G74*
D01*
G03X113015Y283902I3475J0*
G01*
X113015Y295886D01*
G75*
D01*
G03X106985Y295886I-3015J4114*
G01*
X106985Y283902D01*
X418191Y94769D02*
G74*
D01*
G03X415231Y91809I1809J4769*
G01*
X418191Y91809D01*
X418191Y94769D01*
X421809Y94769D02*
X421809Y91809D01*
X424769Y91809D01*
G74*
D01*
G03X421809Y94769I4769J1809*
G01*
X415231Y381809D02*
X418191Y381809D01*
X418191Y384769D01*
G74*
D01*
G03X415231Y381809I1809J4769*
G01*
X421809Y384769D02*
X421809Y381809D01*
X424769Y381809D01*
G74*
D01*
G03X421809Y384769I4769J1809*
G01*
X418425Y380000D02*
G75*
D01*
G03X418425Y380000I1575J0*
G01*
X165231Y361809D02*
X168191Y361809D01*
X168191Y364769D01*
G74*
D01*
G03X165231Y361809I1809J4769*
G01*
X168191Y355231D02*
X168191Y358191D01*
X165231Y358191D01*
G74*
D01*
G03X168191Y355231I4769J1809*
G01*
X171809Y364769D02*
X171809Y361809D01*
X174769Y361809D01*
G74*
D01*
G03X171809Y364769I4769J1809*
G01*
X174769Y358191D02*
X171809Y358191D01*
X171809Y355231D01*
G74*
D01*
G03X174769Y358191I1809J4769*
G01*
X168031Y360000D02*
G75*
D01*
G03X168031Y360000I1969J0*
G01*
X485062Y221873D02*
X488127Y221873D01*
X488127Y224938D01*
G74*
D01*
G03X485062Y221873I1873J4938*
G01*
X491873Y224938D02*
X491873Y221873D01*
X494938Y221873D01*
G74*
D01*
G03X491873Y224938I4938J1873*
G01*
X494938Y218127D02*
X491873Y218127D01*
X491873Y215062D01*
G74*
D01*
G03X494938Y218127I1873J4938*
G01*
X488425Y220000D02*
G75*
D01*
G03X488425Y220000I1575J0*
G01*
X488127Y215062D02*
X488127Y218127D01*
X485062Y218127D01*
G74*
D01*
G03X488127Y215062I4938J1873*
G01*
X488425Y210000D02*
G75*
D01*
G03X488425Y210000I1575J0*
G01*
X488127Y205062D02*
X488127Y208127D01*
X485062Y208127D01*
G74*
D01*
G03X488127Y205062I4938J1873*
G01*
X491873Y194938D02*
X491873Y191873D01*
X494938Y191873D01*
G74*
D01*
G03X491873Y194938I4938J1873*
G01*
X485062Y191873D02*
X488127Y191873D01*
X488127Y194938D01*
G74*
D01*
G03X485062Y191873I1873J4938*
G01*
X484719Y200000D02*
G75*
D01*
G03X484719Y200000I5281J0*
G01*
X494938Y208127D02*
X491873Y208127D01*
X491873Y205062D01*
G74*
D01*
G03X494938Y208127I1873J4938*
G01*
X491873Y214938D02*
X491873Y211873D01*
X494938Y211873D01*
G74*
D01*
G03X491873Y214938I4938J1873*
G01*
X485062Y211873D02*
X488127Y211873D01*
X488127Y214938D01*
G74*
D01*
G03X485062Y211873I1873J4938*
G01*
X488425Y190000D02*
G75*
D01*
G03X488425Y190000I1575J0*
G01*
X532093Y165349D02*
X530000Y167442D01*
X527907Y165349D01*
G75*
D01*
G03X532093Y165349I2093J4651*
G01*
X525349Y172093D02*
G75*
D01*
G03X525349Y167907I4651J-2093*
G01*
X527442Y170000D01*
X525349Y172093D01*
X527907Y174651D02*
X530000Y172558D01*
X532093Y174651D01*
G75*
D01*
G03X527907Y174651I-2093J-4651*
G01*
X534651Y172093D02*
X532558Y170000D01*
X534651Y167907D01*
G75*
D01*
G03X534651Y172093I-4651J2093*
G01*
X528425Y170000D02*
G75*
D01*
G03X528425Y170000I1575J0*
G01*
X574769Y118191D02*
X571809Y118191D01*
X571809Y115231D01*
G74*
D01*
G03X574769Y118191I1809J4769*
G01*
X571809Y124769D02*
X571809Y121809D01*
X574769Y121809D01*
G74*
D01*
G03X571809Y124769I4769J1809*
G01*
X568425Y120000D02*
G75*
D01*
G03X568425Y120000I1575J0*
G01*
X568450Y140000D02*
G75*
D01*
G03X568450Y140000I1550J0*
G01*
X598450Y140000D02*
G75*
D01*
G03X598450Y140000I1550J0*
G01*
X595349Y152093D02*
G75*
D01*
G03X595349Y147907I4651J-2093*
G01*
X597442Y150000D01*
X595349Y152093D01*
X602093Y145349D02*
X600000Y147442D01*
X597907Y145349D01*
G75*
D01*
G03X602093Y145349I2093J4651*
G01*
X598031Y150000D02*
G75*
D01*
G03X598031Y150000I1969J0*
G01*
X604651Y152093D02*
X602558Y150000D01*
X604651Y147907D01*
G75*
D01*
G03X604651Y152093I-4651J2093*
G01*
X597907Y154651D02*
X600000Y152558D01*
X602093Y154651D01*
G75*
D01*
G03X597907Y154651I-2093J-4651*
G01*
X574888Y168186D02*
G74*
D01*
G03X578186Y164888I3471J173*
G01*
X578186Y168186D01*
X574888Y168186D01*
X581814Y164888D02*
G74*
D01*
G03X585112Y168186I172J3471*
G01*
X581814Y168186D01*
X581814Y164888D01*
X585112Y171814D02*
G74*
D01*
G03X581814Y175112I3470J172*
G01*
X581814Y171814D01*
X585112Y171814D01*
X578186Y175112D02*
G74*
D01*
G03X574888Y171814I173J3470*
G01*
X578186Y171814D01*
X578186Y175112D01*
X578031Y170000D02*
G75*
D01*
G03X578031Y170000I1969J0*
G01*
X118345Y255636D02*
X118345Y258345D01*
X115636Y258345D01*
G74*
D01*
G03X118345Y255636I4364J1655*
G01*
X118031Y260000D02*
G75*
D01*
G03X118031Y260000I1969J0*
G01*
X124364Y258345D02*
X121655Y258345D01*
X121655Y255636D01*
G74*
D01*
G03X124364Y258345I1655J4364*
G01*
X115636Y261655D02*
X118345Y261655D01*
X118345Y264364D01*
G74*
D01*
G03X115636Y261655I1655J4364*
G01*
X121655Y264364D02*
X121655Y261655D01*
X124364Y261655D01*
G74*
D01*
G03X121655Y264364I4364J1655*
G01*
X194769Y48191D02*
X191809Y48191D01*
X191809Y45231D01*
G74*
D01*
G03X194769Y48191I1809J4769*
G01*
X225886Y53015D02*
X204114Y53015D01*
G75*
D01*
G03X204114Y46985I-4114J-3015*
G01*
X225886Y46985D01*
G75*
D01*
G03X225886Y53015I4114J3015*
G01*
X188425Y50000D02*
G75*
D01*
G03X188425Y50000I1575J0*
G01*
X191809Y54769D02*
X191809Y51809D01*
X194769Y51809D01*
G74*
D01*
G03X191809Y54769I4769J1809*
G01*
X595349Y32093D02*
G75*
D01*
G03X595349Y27907I4651J-2093*
G01*
X597442Y30000D01*
X595349Y32093D01*
X602093Y25349D02*
X600000Y27442D01*
X597907Y25349D01*
G75*
D01*
G03X602093Y25349I2093J4651*
G01*
X604651Y32093D02*
X602558Y30000D01*
X604651Y27907D01*
G75*
D01*
G03X604651Y32093I-4651J2093*
G01*
X598425Y30000D02*
G75*
D01*
G03X598425Y30000I1575J0*
G01*
X597907Y34651D02*
X600000Y32558D01*
X602093Y34651D01*
G75*
D01*
G03X597907Y34651I-2093J-4651*
G01*
X602093Y45349D02*
X600000Y47442D01*
X597907Y45349D01*
G75*
D01*
G03X602093Y45349I2093J4651*
G01*
X597907Y54651D02*
X600000Y52558D01*
X602093Y54651D01*
G75*
D01*
G03X597907Y54651I-2093J-4651*
G01*
X595349Y52093D02*
G75*
D01*
G03X595349Y47907I4651J-2093*
G01*
X597442Y50000D01*
X595349Y52093D01*
X604651Y52093D02*
X602558Y50000D01*
X604651Y47907D01*
G75*
D01*
G03X604651Y52093I-4651J2093*
G01*
X598425Y50000D02*
G75*
D01*
G03X598425Y50000I1575J0*
G01*
X598031Y80000D02*
G75*
D01*
G03X598031Y80000I1969J0*
G01*
X594888Y78186D02*
G74*
D01*
G03X598186Y74888I3471J173*
G01*
X598186Y78186D01*
X594888Y78186D01*
X601814Y74888D02*
G74*
D01*
G03X605112Y78186I172J3471*
G01*
X601814Y78186D01*
X601814Y74888D01*
X598186Y85112D02*
G74*
D01*
G03X594888Y81814I173J3470*
G01*
X598186Y81814D01*
X598186Y85112D01*
X605112Y81814D02*
G74*
D01*
G03X601814Y85112I3470J172*
G01*
X601814Y81814D01*
X605112Y81814D01*
X15231Y251809D02*
X18191Y251809D01*
X18191Y254769D01*
G74*
D01*
G03X15231Y251809I1809J4769*
G01*
X18191Y245231D02*
X18191Y248191D01*
X15231Y248191D01*
G74*
D01*
G03X18191Y245231I4769J1809*
G01*
X21809Y254769D02*
X21809Y251809D01*
X24769Y251809D01*
G74*
D01*
G03X21809Y254769I4769J1809*
G01*
X24769Y248191D02*
X21809Y248191D01*
X21809Y245231D01*
G74*
D01*
G03X24769Y248191I1809J4769*
G01*
X18425Y250000D02*
G75*
D01*
G03X18425Y250000I1575J0*
G01*
X55886Y253015D02*
X34114Y253015D01*
G75*
D01*
G03X34114Y246985I-4114J-3015*
G01*
X55886Y246985D01*
G75*
D01*
G03X55886Y253015I4114J3015*
G01*
X335062Y21873D02*
X338127Y21873D01*
X338127Y24938D01*
G74*
D01*
G03X335062Y21873I1873J4938*
G01*
X341873Y24938D02*
X341873Y21873D01*
X344938Y21873D01*
G74*
D01*
G03X341873Y24938I4938J1873*
G01*
X301809Y64769D02*
X301809Y61809D01*
X304769Y61809D01*
G74*
D01*
G03X301809Y64769I4769J1809*
G01*
X298191Y55231D02*
X298191Y58191D01*
X295231Y58191D01*
G74*
D01*
G03X298191Y55231I4769J1809*
G01*
X295231Y61809D02*
X298191Y61809D01*
X298191Y64769D01*
G74*
D01*
G03X295231Y61809I1809J4769*
G01*
X298031Y60000D02*
G75*
D01*
G03X298031Y60000I1969J0*
G01*
X304769Y58191D02*
X301809Y58191D01*
X301809Y55231D01*
G74*
D01*
G03X304769Y58191I1809J4769*
G01*
X338425Y20000D02*
G75*
D01*
G03X338425Y20000I1575J0*
G01*
X344938Y18127D02*
X341873Y18127D01*
X341873Y15062D01*
G74*
D01*
G03X344938Y18127I1873J4938*
G01*
X338127Y15062D02*
X338127Y18127D01*
X335062Y18127D01*
G74*
D01*
G03X338127Y15062I4938J1873*
G01*
X455062Y31873D02*
X458127Y31873D01*
X458127Y34938D01*
G74*
D01*
G03X455062Y31873I1873J4938*
G01*
X461873Y34938D02*
X461873Y31873D01*
X464938Y31873D01*
G74*
D01*
G03X461873Y34938I4938J1873*
G01*
X418191Y85231D02*
X418191Y88191D01*
X415231Y88191D01*
G74*
D01*
G03X418191Y85231I4769J1809*
G01*
X424769Y88191D02*
X421809Y88191D01*
X421809Y85231D01*
G74*
D01*
G03X424769Y88191I1809J4769*
G01*
X418031Y90000D02*
G75*
D01*
G03X418031Y90000I1969J0*
G01*
X415231Y81809D02*
X418191Y81809D01*
X418191Y84769D01*
G74*
D01*
G03X415231Y81809I1809J4769*
G01*
X424769Y78191D02*
X421809Y78191D01*
X421809Y75231D01*
G74*
D01*
G03X424769Y78191I1809J4769*
G01*
X418191Y75231D02*
X418191Y78191D01*
X415231Y78191D01*
G74*
D01*
G03X418191Y75231I4769J1809*
G01*
X418031Y80000D02*
G75*
D01*
G03X418031Y80000I1969J0*
G01*
X421809Y84769D02*
X421809Y81809D01*
X424769Y81809D01*
G74*
D01*
G03X421809Y84769I4769J1809*
G01*
X388425Y50000D02*
G75*
D01*
G03X388425Y50000I1575J0*
G01*
X387907Y54651D02*
X390000Y52558D01*
X392093Y54651D01*
G75*
D01*
G03X387907Y54651I-2093J-4651*
G01*
X394651Y52093D02*
X392558Y50000D01*
X394651Y47907D01*
G75*
D01*
G03X394651Y52093I-4651J2093*
G01*
X385349Y52093D02*
G75*
D01*
G03X385349Y47907I4651J-2093*
G01*
X387442Y50000D01*
X385349Y52093D01*
X392093Y45349D02*
X390000Y47442D01*
X387907Y45349D01*
G75*
D01*
G03X392093Y45349I2093J4651*
G01*
X387907Y34651D02*
X390000Y32558D01*
X392093Y34651D01*
G75*
D01*
G03X387907Y34651I-2093J-4651*
G01*
X458425Y30000D02*
G75*
D01*
G03X458425Y30000I1575J0*
G01*
X464938Y28127D02*
X461873Y28127D01*
X461873Y25062D01*
G74*
D01*
G03X464938Y28127I1873J4938*
G01*
X458127Y25062D02*
X458127Y28127D01*
X455062Y28127D01*
G74*
D01*
G03X458127Y25062I4938J1873*
G01*
X392093Y25349D02*
X390000Y27442D01*
X387907Y25349D01*
G75*
D01*
G03X392093Y25349I2093J4651*
G01*
X388425Y30000D02*
G75*
D01*
G03X388425Y30000I1575J0*
G01*
X394651Y32093D02*
X392558Y30000D01*
X394651Y27907D01*
G75*
D01*
G03X394651Y32093I-4651J2093*
G01*
X385349Y32093D02*
G75*
D01*
G03X385349Y27907I4651J-2093*
G01*
X387442Y30000D01*
X385349Y32093D01*
X88425Y90000D02*
G75*
D01*
G03X88425Y90000I1575J0*
G01*
X25349Y34260D02*
G75*
D01*
G03X25349Y30074I4651J-2093*
G01*
X27442Y32167D01*
X25349Y34260D01*
X32093Y27516D02*
X30000Y29609D01*
X27907Y27516D01*
G75*
D01*
G03X32093Y27516I2093J4651*
G01*
X28425Y32167D02*
G75*
D01*
G03X28425Y32167I1575J0*
G01*
X34651Y34260D02*
X32558Y32167D01*
X34651Y30074D01*
G75*
D01*
G03X34651Y34260I-4651J2093*
G01*
X88127Y85062D02*
X88127Y88127D01*
X85062Y88127D01*
G74*
D01*
G03X88127Y85062I4938J1873*
G01*
X55886Y323015D02*
X34114Y323015D01*
G75*
D01*
G03X34114Y316985I-4114J-3015*
G01*
X55886Y316985D01*
G75*
D01*
G03X55886Y323015I4114J3015*
G01*
X15231Y321809D02*
X18191Y321809D01*
X18191Y324769D01*
G74*
D01*
G03X15231Y321809I1809J4769*
G01*
X18191Y315231D02*
X18191Y318191D01*
X15231Y318191D01*
G74*
D01*
G03X18191Y315231I4769J1809*
G01*
X21809Y324769D02*
X21809Y321809D01*
X24769Y321809D01*
G74*
D01*
G03X21809Y324769I4769J1809*
G01*
X24769Y318191D02*
X21809Y318191D01*
X21809Y315231D01*
G74*
D01*
G03X24769Y318191I1809J4769*
G01*
X18425Y320000D02*
G75*
D01*
G03X18425Y320000I1575J0*
G01*
X17784Y344156D02*
X17784Y347784D01*
X14156Y347784D01*
G74*
D01*
G03X17784Y344156I5844J2216*
G01*
X25844Y347784D02*
X22216Y347784D01*
X22216Y344156D01*
G74*
D01*
G03X25844Y347784I2216J5844*
G01*
X14156Y352216D02*
X17784Y352216D01*
X17784Y355844D01*
G74*
D01*
G03X14156Y352216I2216J5844*
G01*
X22216Y355844D02*
X22216Y352216D01*
X25844Y352216D01*
G74*
D01*
G03X22216Y355844I5844J2216*
G01*
X17047Y350000D02*
G75*
D01*
G03X17047Y350000I2953J0*
G01*
X18450Y360000D02*
G75*
D01*
G03X18450Y360000I1550J0*
G01*
X432093Y247516D02*
X430000Y249609D01*
X427907Y247516D01*
G75*
D01*
G03X432093Y247516I2093J4651*
G01*
X428425Y252167D02*
G75*
D01*
G03X428425Y252167I1575J0*
G01*
X434651Y254260D02*
X432558Y252167D01*
X434651Y250074D01*
G75*
D01*
G03X434651Y254260I-4651J2093*
G01*
X425349Y254260D02*
G75*
D01*
G03X425349Y250074I4651J-2093*
G01*
X427442Y252167D01*
X425349Y254260D01*
X407907Y224651D02*
X410000Y222558D01*
X412093Y224651D01*
G75*
D01*
G03X407907Y224651I-2093J-4651*
G01*
X405349Y222093D02*
G75*
D01*
G03X405349Y217907I4651J-2093*
G01*
X407442Y220000D01*
X405349Y222093D01*
X412093Y215349D02*
X410000Y217442D01*
X407907Y215349D01*
G75*
D01*
G03X412093Y215349I2093J4651*
G01*
X408425Y220000D02*
G75*
D01*
G03X408425Y220000I1575J0*
G01*
X414651Y222093D02*
X412558Y220000D01*
X414651Y217907D01*
G75*
D01*
G03X414651Y222093I-4651J2093*
G01*
X162093Y125349D02*
X160000Y127442D01*
X157907Y125349D01*
G75*
D01*
G03X162093Y125349I2093J4651*
G01*
X155349Y132093D02*
G75*
D01*
G03X155349Y127907I4651J-2093*
G01*
X157442Y130000D01*
X155349Y132093D01*
X164651Y132093D02*
X162558Y130000D01*
X164651Y127907D01*
G75*
D01*
G03X164651Y132093I-4651J2093*
G01*
X158425Y130000D02*
G75*
D01*
G03X158425Y130000I1575J0*
G01*
X628414Y392194D02*
X628414Y1507D01*
X1507Y1507D01*
X1507Y392194D01*
X628414Y392194D01*
X494336Y33015D02*
G74*
D01*
G03X491700Y35000I4336J3015*
G01*
G74*
D01*
G03X494336Y36985I1700J5000*
G01*
X535886Y36985D01*
G74*
D01*
G03X538529Y35117I4114J3015*
G01*
X538359Y35117D01*
G75*
D01*
G03X535166Y33015I0J-3475*
G01*
X494336Y33015D01*
X344336Y66985D02*
G74*
D01*
G02X341700Y65000I4336J3015*
G01*
G75*
D01*
G02X341700Y55000I-1700J-5000*
G01*
G75*
D01*
G02X341700Y45000I-1700J-5000*
G01*
G74*
D01*
G02X344336Y43015I1700J5000*
G01*
X348751Y43015D01*
X356985Y51249D01*
X356985Y58751D01*
X348751Y66985D01*
X344336Y66985D01*
X444114Y43015D02*
X455664Y43015D01*
G74*
D01*
G02X458300Y45000I4336J3015*
G01*
G74*
D01*
G02X455664Y46985I1700J5000*
G01*
X444834Y46985D01*
G74*
D01*
G02X441641Y44883I3193J1374*
G01*
X441471Y44883D01*
G74*
D01*
G02X444114Y43015I1471J4883*
G01*
X494336Y43015D02*
G74*
D01*
G03X491700Y45000I4336J3015*
G01*
G74*
D01*
G03X494336Y46985I1700J5000*
G01*
X535886Y46985D01*
G74*
D01*
G03X538995Y45000I4114J3015*
G01*
G74*
D01*
G03X535886Y43015I1005J5000*
G01*
X494336Y43015D01*
X165000Y58995D02*
G74*
D01*
G02X161005Y55000I5000J1005*
G01*
G74*
D01*
G02X165000Y51005I1005J5000*
G01*
G74*
D01*
G02X168995Y55000I5000J1005*
G01*
G74*
D01*
G02X165000Y58995I1005J5000*
G01*
X47868Y67868D02*
X40918Y74819D01*
X34114Y74819D01*
G74*
D01*
G02X33266Y73917I4114J3014*
G01*
G75*
D01*
G02X35040Y69223I-3266J-3917*
G01*
X41249Y63015D01*
X55664Y63015D01*
G74*
D01*
G02X58300Y65000I4336J3015*
G01*
G74*
D01*
G02X55664Y66985I1700J5000*
G01*
X50001Y66985D01*
G75*
D01*
G02X47868Y67868I-1J3015*
G01*
X165000Y68995D02*
G74*
D01*
G02X161005Y65000I5000J1005*
G01*
G74*
D01*
G02X165000Y61005I1005J5000*
G01*
G74*
D01*
G02X168995Y65000I5000J1005*
G01*
G74*
D01*
G02X165000Y68995I1005J5000*
G01*
X165000Y78995D02*
G74*
D01*
G02X161005Y75000I5000J1005*
G01*
G74*
D01*
G02X165000Y71005I1005J5000*
G01*
G74*
D01*
G02X168995Y75000I5000J1005*
G01*
G74*
D01*
G02X165000Y78995I1005J5000*
G01*
X91700Y75000D02*
G74*
D01*
G02X94336Y73015I1700J5000*
G01*
X155886Y73015D01*
G74*
D01*
G02X158995Y75000I4114J3015*
G01*
G74*
D01*
G02X155886Y76985I1005J5000*
G01*
X94336Y76985D01*
G74*
D01*
G02X91700Y75000I4336J3015*
G01*
X574769Y91809D02*
G74*
D01*
G03X571809Y94769I4769J1809*
G01*
X571809Y91809D01*
X574769Y91809D01*
X565231Y91809D02*
X568191Y91809D01*
X568191Y94769D01*
G74*
D01*
G03X565231Y91809I1809J4769*
G01*
X565231Y88191D02*
G74*
D01*
G03X568191Y85231I4769J1809*
G01*
X568191Y88191D01*
X565231Y88191D01*
X574769Y88191D02*
X571809Y88191D01*
X571809Y85231D01*
G74*
D01*
G03X574769Y88191I1809J4769*
G01*
X568425Y90000D02*
G75*
D01*
G03X568425Y90000I1575J0*
G01*
X555112Y81814D02*
G74*
D01*
G03X551814Y85112I3470J172*
G01*
X551814Y81814D01*
X555112Y81814D01*
X548186Y85112D02*
G74*
D01*
G03X544888Y81814I173J3470*
G01*
X548186Y81814D01*
X548186Y85112D01*
X548031Y80000D02*
G75*
D01*
G03X548031Y80000I1969J0*
G01*
X544888Y78186D02*
G74*
D01*
G03X548186Y74888I3471J173*
G01*
X548186Y78186D01*
X544888Y78186D01*
X551814Y74888D02*
G74*
D01*
G03X555112Y78186I172J3471*
G01*
X551814Y78186D01*
X551814Y74888D01*
X595886Y96985D02*
G74*
D01*
G03X598995Y95000I4114J3015*
G01*
G74*
D01*
G03X595886Y93015I1005J5000*
G01*
X590000Y93015D01*
G75*
D01*
G03X589294Y92931I0J-3015*
G01*
G74*
D01*
G03X587868Y92132I706J2931*
G01*
X568751Y73015D01*
X514114Y73015D01*
G75*
D01*
G03X505886Y73015I-4114J-3015*
G01*
X494336Y73015D01*
G74*
D01*
G03X491700Y75000I4336J3015*
G01*
G74*
D01*
G03X494336Y76985I1700J5000*
G01*
X495886Y76985D01*
G75*
D01*
G03X504114Y76985I4114J3015*
G01*
X529996Y76985D01*
G75*
D01*
G03X531007Y77159I4J3015*
G01*
G74*
D01*
G03X532134Y77871I1007J2841*
G01*
X541249Y86985D01*
X545886Y86985D01*
G75*
D01*
G03X551005Y95000I4114J3015*
G01*
G74*
D01*
G03X554114Y96985I1005J5000*
G01*
X595886Y96985D01*
X58300Y85000D02*
G75*
D01*
G02X58300Y95000I1700J5000*
G01*
G75*
D01*
G02X56985Y104336I1700J5000*
G01*
X56985Y116985D01*
X35029Y116985D01*
G74*
D01*
G02X33266Y113917I5029J848*
G01*
G75*
D01*
G02X33015Y105886I-3266J-3917*
G01*
X33015Y101249D01*
X41282Y92981D01*
X41282Y92981D01*
X51249Y83015D01*
X55664Y83015D01*
G74*
D01*
G02X58300Y85000I4336J3015*
G01*
X165117Y88529D02*
X165117Y88359D01*
G75*
D01*
G02X161642Y84883I-3475J0*
G01*
X161471Y84883D01*
G74*
D01*
G02X165000Y81005I1471J4883*
G01*
G74*
D01*
G02X168995Y85000I5000J1005*
G01*
G74*
D01*
G02X165117Y88529I1005J5000*
G01*
X515886Y86985D02*
G75*
D01*
G03X515886Y93015I4114J3015*
G01*
X494336Y93015D01*
G74*
D01*
G03X491700Y95000I4336J3015*
G01*
G74*
D01*
G03X494336Y96985I1700J5000*
G01*
X545886Y96985D01*
G74*
D01*
G03X548995Y95000I4114J3015*
G01*
G74*
D01*
G03X545886Y93015I1005J5000*
G01*
X540000Y93015D01*
G75*
D01*
G03X539591Y92987I0J-3015*
G01*
G74*
D01*
G03X537868Y92132I409J2987*
G01*
X528751Y83015D01*
X504114Y83015D01*
G75*
D01*
G03X495886Y83015I-4114J-3015*
G01*
X494336Y83015D01*
G74*
D01*
G03X491700Y85000I4336J3015*
G01*
G74*
D01*
G03X494336Y86985I1700J5000*
G01*
X515886Y86985D01*
X465000Y118995D02*
G75*
D01*
G02X455000Y118995I-5000J1005*
G01*
G74*
D01*
G02X453015Y115886I5000J1005*
G01*
X453015Y93893D01*
X456432Y93893D01*
G74*
D01*
G02X458300Y95000I3568J3893*
G01*
G75*
D01*
G02X460935Y105198I1700J5000*
G01*
X466985Y111249D01*
X466985Y115886D01*
G74*
D01*
G02X465000Y118995I3015J4114*
G01*
X503015Y114114D02*
X503015Y115886D01*
G74*
D01*
G03X504883Y118529I3015J4114*
G01*
X504883Y118359D01*
G75*
D01*
G03X506985Y115166I3476J0*
G01*
X506985Y114114D01*
G74*
D01*
G03X505000Y111005I3015J4114*
G01*
G74*
D01*
G03X503015Y114114I5000J1005*
G01*
X250000Y353015D02*
G75*
D01*
G03X246985Y350000I0J-3015*
G01*
X246985Y334114D01*
G75*
D01*
G03X253015Y334114I3015J-4114*
G01*
X253015Y346985D01*
X285886Y346985D01*
G74*
D01*
G03X288995Y345000I4114J3015*
G01*
G75*
D01*
G03X294114Y336985I1005J-5000*
G01*
X295886Y336985D01*
G75*
D01*
G03X295886Y343015I4114J3015*
G01*
X294114Y343015D01*
G74*
D01*
G03X291005Y345000I4114J3015*
G01*
G75*
D01*
G03X291005Y355000I-1005J5000*
G01*
G75*
D01*
G03X285886Y363015I-1005J5000*
G01*
X234114Y363015D01*
G75*
D01*
G03X228995Y355000I-4114J-3015*
G01*
G75*
D01*
G03X234114Y346985I1005J-5000*
G01*
X235886Y346985D01*
G75*
D01*
G03X235886Y353015I4114J3015*
G01*
X234114Y353015D01*
G74*
D01*
G03X231005Y355000I4114J3015*
G01*
G74*
D01*
G03X234114Y356985I1005J5000*
G01*
X285886Y356985D01*
G74*
D01*
G03X288995Y355000I4114J3015*
G01*
G74*
D01*
G03X285886Y353015I1005J5000*
G01*
X250000Y353015D01*
X258031Y340000D02*
G75*
D01*
G03X258031Y340000I1969J0*
G01*
X258191Y335231D02*
X258191Y338191D01*
X255231Y338191D01*
G74*
D01*
G03X258191Y335231I4769J1809*
G01*
X264769Y338191D02*
X261809Y338191D01*
X261809Y335231D01*
G74*
D01*
G03X264769Y338191I1809J4769*
G01*
X255231Y341809D02*
X258191Y341809D01*
X258191Y344769D01*
G74*
D01*
G03X255231Y341809I1809J4769*
G01*
X261809Y344769D02*
X261809Y341809D01*
X264769Y341809D01*
G74*
D01*
G03X261809Y344769I4769J1809*
G01*
X335886Y213015D02*
X330000Y213015D01*
G75*
D01*
G03X329591Y212987I0J-3015*
G01*
G74*
D01*
G03X327868Y212132I409J2987*
G01*
X320777Y205040D01*
G75*
D01*
G03X325040Y200777I-777J-5040*
G01*
X331249Y206985D01*
X335886Y206985D01*
G75*
D01*
G03X335886Y213015I4114J3015*
G01*
X291809Y374769D02*
X291809Y371809D01*
X294769Y371809D01*
G74*
D01*
G03X291809Y374769I4769J1809*
G01*
X288031Y330000D02*
G75*
D01*
G03X288031Y330000I1969J0*
G01*
X288191Y325231D02*
X288191Y328191D01*
X285231Y328191D01*
G74*
D01*
G03X288191Y325231I4769J1809*
G01*
X294769Y328191D02*
X291809Y328191D01*
X291809Y325231D01*
G74*
D01*
G03X294769Y328191I1809J4769*
G01*
X285231Y331809D02*
X288191Y331809D01*
X288191Y334769D01*
G74*
D01*
G03X285231Y331809I1809J4769*
G01*
X291809Y334769D02*
X291809Y331809D01*
X294769Y331809D01*
G74*
D01*
G03X291809Y334769I4769J1809*
G01*
X288031Y370000D02*
G75*
D01*
G03X288031Y370000I1969J0*
G01*
X288191Y365231D02*
X288191Y368191D01*
X285231Y368191D01*
G74*
D01*
G03X288191Y365231I4769J1809*
G01*
X294769Y368191D02*
X291809Y368191D01*
X291809Y365231D01*
G74*
D01*
G03X294769Y368191I1809J4769*
G01*
X285231Y371809D02*
X288191Y371809D01*
X288191Y374769D01*
G74*
D01*
G03X285231Y371809I1809J4769*
G01*
X395231Y361809D02*
X398191Y361809D01*
X398191Y364769D01*
G74*
D01*
G03X395231Y361809I1809J4769*
G01*
X398425Y360000D02*
G75*
D01*
G03X398425Y360000I1575J0*
G01*
X398191Y355231D02*
X398191Y358191D01*
X395231Y358191D01*
G74*
D01*
G03X398191Y355231I4769J1809*
G01*
X401809Y364769D02*
X401809Y361809D01*
X404769Y361809D01*
G74*
D01*
G03X401809Y364769I4769J1809*
G01*
X404769Y358191D02*
X401809Y358191D01*
X401809Y355231D01*
G74*
D01*
G03X404769Y358191I1809J4769*
G01*
X300000Y196985D02*
G74*
D01*
G03X302134Y197871I0J3015*
G01*
X341249Y236985D01*
X370000Y236985D01*
G74*
D01*
G03X372134Y237871I0J3015*
G01*
X376445Y242182D01*
X376446Y242182D01*
X416220Y281957D01*
X421249Y286985D01*
X426886Y286985D01*
G75*
D01*
G03X431367Y295087I4114J3015*
G01*
G75*
D01*
G03X425886Y303015I-1367J4913*
G01*
X294114Y303015D01*
G74*
D01*
G03X291005Y305000I4114J3015*
G01*
G74*
D01*
G03X294114Y306985I1005J5000*
G01*
X445886Y306985D01*
G75*
D01*
G03X445886Y313015I4114J3015*
G01*
X294114Y313015D01*
G74*
D01*
G03X291005Y315000I4114J3015*
G01*
G75*
D01*
G03X285886Y323015I-1005J5000*
G01*
X274114Y323015D01*
G75*
D01*
G03X265000Y321005I-4114J-3015*
G01*
G75*
D01*
G03X255886Y323015I-5000J-1005*
G01*
X224114Y323015D01*
G75*
D01*
G03X219223Y325040I-4114J-3015*
G01*
X203015Y341249D01*
X203015Y345886D01*
G75*
D01*
G03X203015Y354114I-3015J4114*
G01*
X203015Y355886D01*
G75*
D01*
G03X205040Y360777I-3015J4114*
G01*
X221249Y376985D01*
X398751Y376985D01*
X465737Y310000D01*
X457868Y302132D01*
G75*
D01*
G03X456985Y299996I2132J-2132*
G01*
X456985Y284114D01*
G74*
D01*
G03X455886Y283015I3015J4114*
G01*
X430000Y283015D01*
G75*
D01*
G03X429962Y283014I0J-3015*
G01*
G74*
D01*
G03X427868Y282132I38J3014*
G01*
X338751Y193015D01*
X304336Y193015D01*
G75*
D01*
G03X298300Y185000I-4336J-3015*
G01*
G75*
D01*
G03X298300Y175000I1700J-5000*
G01*
G75*
D01*
G03X298300Y165000I1700J-5000*
G01*
G75*
D01*
G03X298300Y155000I1700J-5000*
G01*
G75*
D01*
G03X298300Y145000I1700J-5000*
G01*
G75*
D01*
G03X298300Y135000I1700J-5000*
G01*
G75*
D01*
G03X298300Y125000I1700J-5000*
G01*
G75*
D01*
G03X304336Y116985I1700J-5000*
G01*
X365886Y116985D01*
G74*
D01*
G03X368995Y115000I4114J3015*
G01*
G74*
D01*
G03X365886Y113015I1005J5000*
G01*
X283015Y113015D01*
X283015Y188751D01*
X291249Y196985D01*
X300000Y196985D01*
X271393Y114906D02*
G74*
D01*
G02X274114Y113015I1393J4906*
G01*
X276985Y113015D01*
X276985Y126985D01*
X274336Y126985D01*
G74*
D01*
G02X271700Y125000I4336J3015*
G01*
G75*
D01*
G02X271393Y114906I-1700J-5000*
G01*
X368995Y125000D02*
G74*
D01*
G02X365886Y126985I1005J5000*
G01*
X304336Y126985D01*
G74*
D01*
G02X301700Y125000I4336J3015*
G01*
G74*
D01*
G02X304336Y123015I1700J5000*
G01*
X365886Y123015D01*
G74*
D01*
G02X368995Y125000I4114J3015*
G01*
X295112Y221814D02*
G74*
D01*
G03X291814Y225112I3470J172*
G01*
X291814Y221814D01*
X295112Y221814D01*
X288186Y225112D02*
G74*
D01*
G03X284888Y221814I173J3470*
G01*
X288186Y221814D01*
X288186Y225112D01*
X288031Y220000D02*
G75*
D01*
G03X288031Y220000I1969J0*
G01*
X284888Y218186D02*
G74*
D01*
G03X288186Y214888I3471J172*
G01*
X288186Y218186D01*
X284888Y218186D01*
X291814Y214888D02*
G74*
D01*
G03X295112Y218186I172J3470*
G01*
X291814Y218186D01*
X291814Y214888D01*
X276985Y189996D02*
X276985Y133015D01*
X274336Y133015D01*
G74*
D01*
G03X271700Y135000I4336J3015*
G01*
G75*
D01*
G03X271700Y145000I-1700J5000*
G01*
G75*
D01*
G03X271700Y155000I-1700J5000*
G01*
G75*
D01*
G03X271700Y165000I-1700J5000*
G01*
G75*
D01*
G03X271700Y175000I-1700J5000*
G01*
G75*
D01*
G03X271700Y185000I-1700J5000*
G01*
G75*
D01*
G03X265664Y193015I-1700J5000*
G01*
X224114Y193015D01*
G74*
D01*
G03X221005Y195000I4114J3015*
G01*
G74*
D01*
G03X224114Y196985I1005J5000*
G01*
X245886Y196985D01*
G75*
D01*
G03X245886Y203015I4114J3015*
G01*
X224114Y203015D01*
G74*
D01*
G03X221005Y205000I4114J3015*
G01*
G75*
D01*
G03X221005Y215000I-1005J5000*
G01*
G75*
D01*
G03X221005Y225000I-1005J5000*
G01*
G75*
D01*
G03X221005Y235000I-1005J5000*
G01*
G74*
D01*
G03X224114Y236985I1005J5000*
G01*
X285886Y236985D01*
G74*
D01*
G03X288995Y235000I4114J3015*
G01*
G74*
D01*
G03X285886Y233015I1005J5000*
G01*
X244114Y233015D01*
G75*
D01*
G03X244114Y226985I-4114J-3015*
G01*
X285886Y226985D01*
G75*
D01*
G03X291005Y235000I4114J3015*
G01*
G74*
D01*
G03X294114Y236985I1005J5000*
G01*
X305886Y236985D01*
G75*
D01*
G03X305886Y243015I4114J3015*
G01*
X294114Y243015D01*
G74*
D01*
G03X291005Y245000I4114J3015*
G01*
G74*
D01*
G03X294114Y246985I1005J5000*
G01*
X325886Y246985D01*
G75*
D01*
G03X325886Y253015I4114J3015*
G01*
X294114Y253015D01*
G74*
D01*
G03X291005Y255000I4114J3015*
G01*
G74*
D01*
G03X294114Y256985I1005J5000*
G01*
X345886Y256985D01*
G75*
D01*
G03X345886Y263015I4114J3015*
G01*
X294114Y263015D01*
G74*
D01*
G03X291005Y265000I4114J3015*
G01*
G74*
D01*
G03X294114Y266985I1005J5000*
G01*
X365886Y266985D01*
G75*
D01*
G03X365886Y273015I4114J3015*
G01*
X294114Y273015D01*
G74*
D01*
G03X291005Y275000I4114J3015*
G01*
G74*
D01*
G03X294114Y276985I1005J5000*
G01*
X385886Y276985D01*
G75*
D01*
G03X385886Y283015I4114J3015*
G01*
X294114Y283015D01*
G74*
D01*
G03X291005Y285000I4114J3015*
G01*
G74*
D01*
G03X294114Y286985I1005J5000*
G01*
X405886Y286985D01*
G75*
D01*
G03X410683Y284946I4114J3015*
G01*
X407694Y281957D01*
X376446Y250709D01*
X368751Y243015D01*
X340001Y243015D01*
G75*
D01*
G03X337868Y242132I-1J-3015*
G01*
X305054Y209317D01*
G75*
D01*
G03X295886Y213015I-5054J683*
G01*
X244114Y213015D01*
G75*
D01*
G03X244114Y206985I-4114J-3015*
G01*
X295886Y206985D01*
G75*
D01*
G03X300683Y204946I4114J3015*
G01*
X298751Y203015D01*
X290004Y203015D01*
G75*
D01*
G03X287868Y202132I-4J-3015*
G01*
X282142Y196405D01*
X277868Y192132D01*
G75*
D01*
G03X276985Y189996I2132J-2132*
G01*
X368995Y135000D02*
G74*
D01*
G02X365886Y136985I1005J5000*
G01*
X304336Y136985D01*
G74*
D01*
G02X301700Y135000I4336J3015*
G01*
G74*
D01*
G02X304336Y133015I1700J5000*
G01*
X365886Y133015D01*
G74*
D01*
G02X368995Y135000I4114J3015*
G01*
X368995Y145000D02*
G74*
D01*
G02X365886Y146985I1005J5000*
G01*
X304336Y146985D01*
G74*
D01*
G02X301700Y145000I4336J3015*
G01*
G74*
D01*
G02X304336Y143015I1700J5000*
G01*
X365886Y143015D01*
G74*
D01*
G02X368995Y145000I4114J3015*
G01*
X368995Y155000D02*
G74*
D01*
G02X365886Y156985I1005J5000*
G01*
X334114Y156985D01*
G75*
D01*
G02X325886Y156985I-4114J3015*
G01*
X304336Y156985D01*
G74*
D01*
G02X301700Y155000I4336J3015*
G01*
G74*
D01*
G02X304336Y153015I1700J5000*
G01*
X365886Y153015D01*
G74*
D01*
G02X368995Y155000I4114J3015*
G01*
X325886Y163015D02*
G75*
D01*
G02X334114Y163015I4114J-3015*
G01*
X365886Y163015D01*
G74*
D01*
G02X368995Y165000I4114J3015*
G01*
G74*
D01*
G02X365886Y166985I1005J5000*
G01*
X304336Y166985D01*
G74*
D01*
G02X301700Y165000I4336J3015*
G01*
G74*
D01*
G02X304336Y163015I1700J5000*
G01*
X325886Y163015D01*
X133015Y174114D02*
X133015Y198751D01*
X141249Y206985D01*
X155886Y206985D01*
G74*
D01*
G03X158995Y205000I4114J3015*
G01*
G75*
D01*
G03X158995Y195000I1005J-5000*
G01*
G75*
D01*
G03X158995Y185000I1005J-5000*
G01*
G75*
D01*
G03X158995Y175000I1005J-5000*
G01*
G74*
D01*
G03X155886Y173015I1005J5000*
G01*
X144114Y173015D01*
G75*
D01*
G03X135000Y171005I-4114J-3015*
G01*
G74*
D01*
G03X133015Y174114I5000J1005*
G01*
X221005Y175000D02*
G74*
D01*
G02X224114Y173015I1005J5000*
G01*
X265664Y173015D01*
G74*
D01*
G02X268300Y175000I4336J3015*
G01*
G74*
D01*
G02X265664Y176985I1700J5000*
G01*
X224114Y176985D01*
G74*
D01*
G02X221005Y175000I4114J3015*
G01*
X368529Y174883D02*
X368359Y174883D01*
G75*
D01*
G02X365166Y176985I0J3476*
G01*
X304336Y176985D01*
G74*
D01*
G02X301700Y175000I4336J3015*
G01*
G74*
D01*
G02X304336Y173015I1700J5000*
G01*
X365886Y173015D01*
G74*
D01*
G02X368529Y174883I4114J3015*
G01*
X221005Y185000D02*
G74*
D01*
G02X224114Y183015I1005J5000*
G01*
X265664Y183015D01*
G74*
D01*
G02X268300Y185000I4336J3015*
G01*
G74*
D01*
G02X265664Y186985I1700J5000*
G01*
X224114Y186985D01*
G74*
D01*
G02X221005Y185000I4114J3015*
G01*
X91471Y205117D02*
G74*
D01*
G03X94114Y206985I1471J4883*
G01*
X109998Y206985D01*
G75*
D01*
G03X110266Y206997I2J3015*
G01*
G74*
D01*
G03X112134Y207871I266J3003*
G01*
X131249Y226985D01*
X155886Y226985D01*
G74*
D01*
G03X158995Y225000I4114J3015*
G01*
G74*
D01*
G03X155886Y223015I1005J5000*
G01*
X130000Y223015D01*
G75*
D01*
G03X128932Y222819I0J-3015*
G01*
G74*
D01*
G03X127868Y222132I1068J2819*
G01*
X108751Y203015D01*
X94834Y203015D01*
G74*
D01*
G03X91642Y205117I3192J1373*
G01*
X91471Y205117D01*
X224114Y246985D02*
X285886Y246985D01*
G74*
D01*
G03X288995Y245000I4114J3015*
G01*
G74*
D01*
G03X285886Y243015I1005J5000*
G01*
X224114Y243015D01*
G74*
D01*
G03X221005Y245000I4114J3015*
G01*
G74*
D01*
G03X224114Y246985I1005J5000*
G01*
X491700Y245000D02*
G75*
D01*
G03X491700Y255000I-1700J5000*
G01*
G74*
D01*
G03X494085Y256652I1700J5000*
G01*
X496985Y253751D01*
X496985Y246249D01*
X494085Y243348D01*
G74*
D01*
G03X491700Y245000I4085J3348*
G01*
X141005Y255000D02*
G74*
D01*
G02X144114Y253015I1005J5000*
G01*
X155886Y253015D01*
G74*
D01*
G02X158995Y255000I4114J3015*
G01*
G74*
D01*
G02X155886Y256985I1005J5000*
G01*
X144114Y256985D01*
G74*
D01*
G02X141005Y255000I4114J3015*
G01*
X224114Y256985D02*
X285886Y256985D01*
G74*
D01*
G03X288995Y255000I4114J3015*
G01*
G74*
D01*
G03X285886Y253015I1005J5000*
G01*
X224114Y253015D01*
G74*
D01*
G03X221005Y255000I4114J3015*
G01*
G74*
D01*
G03X224114Y256985I1005J5000*
G01*
X224114Y266985D02*
X285886Y266985D01*
G74*
D01*
G03X288995Y265000I4114J3015*
G01*
G74*
D01*
G03X285886Y263015I1005J5000*
G01*
X224114Y263015D01*
G74*
D01*
G03X221005Y265000I4114J3015*
G01*
G74*
D01*
G03X224114Y266985I1005J5000*
G01*
X224114Y276985D02*
X285886Y276985D01*
G74*
D01*
G03X288995Y275000I4114J3015*
G01*
G74*
D01*
G03X285886Y273015I1005J5000*
G01*
X224114Y273015D01*
G74*
D01*
G03X221005Y275000I4114J3015*
G01*
G74*
D01*
G03X224114Y276985I1005J5000*
G01*
X224114Y286985D02*
X285886Y286985D01*
G74*
D01*
G03X288995Y285000I4114J3015*
G01*
G74*
D01*
G03X285886Y283015I1005J5000*
G01*
X224114Y283015D01*
G74*
D01*
G03X221005Y285000I4114J3015*
G01*
G74*
D01*
G03X224114Y286985I1005J5000*
G01*
X425886Y296985D02*
X294114Y296985D01*
G74*
D01*
G02X291005Y295000I4114J3015*
G01*
G74*
D01*
G02X294114Y293015I1005J5000*
G01*
X405886Y293015D01*
G75*
D01*
G02X415054Y289317I4114J-3015*
G01*
X417868Y292132D01*
G75*
D01*
G02X420004Y293015I2132J-2132*
G01*
X426886Y293015D01*
G74*
D01*
G02X429633Y294913I4114J3015*
G01*
G74*
D01*
G02X425886Y296985I367J5087*
G01*
X224114Y296985D02*
X285886Y296985D01*
G74*
D01*
G03X288995Y295000I4114J3015*
G01*
G74*
D01*
G03X285886Y293015I1005J5000*
G01*
X224114Y293015D01*
G74*
D01*
G03X221005Y295000I4114J3015*
G01*
G74*
D01*
G03X224114Y296985I1005J5000*
G01*
X280000Y306985D02*
X285886Y306985D01*
G74*
D01*
G03X288995Y305000I4114J3015*
G01*
G74*
D01*
G03X285886Y303015I1005J5000*
G01*
X224114Y303015D01*
G74*
D01*
G03X221005Y305000I4114J3015*
G01*
G74*
D01*
G03X224114Y306985I1005J5000*
G01*
X279993Y306985D01*
G75*
D01*
G03X280000Y306985I7J3015*
G01*
X274114Y316985D02*
X285886Y316985D01*
G74*
D01*
G03X288995Y315000I4114J3015*
G01*
G74*
D01*
G03X285886Y313015I1005J5000*
G01*
X280007Y313015D01*
X280000Y313015D01*
X224114Y313015D01*
G74*
D01*
G03X221005Y315000I4114J3015*
G01*
G74*
D01*
G03X224114Y316985I1005J5000*
G01*
X255886Y316985D01*
G75*
D01*
G03X265000Y318995I4114J3015*
G01*
G75*
D01*
G03X274114Y316985I5000J1005*
G01*
X75886Y366985D02*
G74*
D01*
G03X78995Y365000I4114J3015*
G01*
G74*
D01*
G03X75886Y363015I1005J5000*
G01*
X64114Y363015D01*
G75*
D01*
G03X64114Y356985I-4114J-3015*
G01*
X75886Y356985D01*
G74*
D01*
G03X78529Y355117I4114J3015*
G01*
X78359Y355117D01*
G75*
D01*
G03X75161Y353004I0J-3475*
G01*
X69989Y353004D01*
G75*
D01*
G03X68846Y352778I0J-3015*
G01*
G74*
D01*
G03X67857Y352121I1143J2789*
G01*
X58751Y343015D01*
X43015Y343015D01*
X43015Y366985D01*
X75886Y366985D01*
X560000Y80000D02*
X550000Y80000D01*
X570000Y90000D02*
X560000Y80000D01*
X570000Y120000D02*
X600000Y120000D01*
X610000Y130000D01*
X610000Y140000D01*
X600000Y150000D01*
X420000Y380000D02*
X410000Y390000D01*
X220000Y390000D01*
X190000Y360000D01*
X170000Y360000D01*
X400000Y360000D02*
X370000Y330000D01*
X290000Y330000D01*
G36*
X253000Y122000D02*
X253000Y122000D01*
X253000Y118000D01*
X247000Y118000D01*
X247000Y122000D01*
X253000Y122000D01*
D02*
G37*
X253000Y118000D01*
X247000Y118000D01*
X247000Y122000D01*
X253000Y122000D01*
G54D12*
X520000Y250000D02*
X550000Y250000D01*
X520000Y240000D02*
X560000Y240000D01*
X520000Y230000D02*
X570000Y230000D01*
X520000Y220000D02*
X580000Y220000D01*
X520000Y210000D02*
X590000Y210000D01*
X520000Y200000D02*
X600000Y200000D01*
X520000Y190000D02*
X610000Y190000D01*
X220000Y250000D02*
X290000Y250000D01*
X220000Y270000D02*
X290000Y270000D01*
X220000Y280000D02*
X290000Y280000D01*
X220000Y290000D02*
X290000Y290000D01*
X220000Y300000D02*
X290000Y300000D01*
X220000Y310000D02*
X280000Y310000D01*
X520000Y260000D02*
X540000Y260000D01*
X280000Y310000D02*
X290000Y310000D01*
X520000Y270000D02*
X530000Y270000D01*
X520000Y300000D02*
X530000Y300000D01*
X480000Y300000D02*
X480000Y260000D01*
X490000Y250000D01*
X495000Y260000D02*
X490000Y260000D01*
X495000Y260000D02*
X500000Y255000D01*
X500000Y245000D02*
X500000Y255000D01*
X500000Y245000D02*
X495000Y240000D01*
X460000Y240000D02*
X495000Y240000D01*
X430000Y260000D02*
X480000Y260000D01*
X520000Y280000D02*
X510000Y280000D01*
X290000Y240000D02*
X310000Y240000D01*
X220000Y240000D02*
X290000Y240000D01*
X220000Y260000D02*
X290000Y260000D01*
X350000Y260000D01*
X290000Y250000D02*
X330000Y250000D01*
X290000Y270000D02*
X370000Y270000D01*
X290000Y280000D02*
X390000Y280000D01*
X290000Y290000D02*
X410000Y290000D01*
X290000Y300000D02*
X430000Y300000D01*
X290000Y310000D02*
X450000Y310000D01*
X510000Y280000D02*
X500000Y290000D01*
X500000Y310000D01*
X460000Y280000D02*
X430000Y280000D01*
X340000Y190000D01*
X300000Y190000D01*
X540000Y280000D02*
X540000Y290000D01*
X530000Y270000D02*
X540000Y280000D01*
X530000Y300000D02*
X540000Y290000D01*
X220000Y320000D02*
X260000Y320000D01*
X200000Y340000D02*
X200000Y360000D01*
X200000Y340000D02*
X220000Y320000D01*
X160000Y360000D02*
X160000Y320000D01*
X200000Y350000D02*
X160000Y350000D01*
X120000Y270000D02*
X160000Y270000D01*
X160000Y250000D02*
X140000Y250000D01*
X110000Y240000D02*
X110000Y260000D01*
X160000Y240000D02*
X110000Y240000D01*
X110000Y270000D02*
X90000Y270000D01*
X120000Y310000D02*
X100000Y310000D01*
X80000Y290000D02*
X60000Y290000D01*
X77833Y130000D02*
X77833Y287833D01*
X100000Y310000D01*
X77833Y130000D02*
X80000Y130000D01*
X90000Y120000D01*
X90000Y100000D01*
X70000Y130000D02*
X70000Y100000D01*
X60000Y90000D01*
X60000Y100000D02*
X60000Y120000D01*
X32167Y120000D01*
X30000Y117833D01*
X60000Y80000D02*
X50000Y80000D01*
X30000Y100000D01*
X30000Y110000D01*
X60000Y70000D02*
X50000Y70000D01*
X42167Y77833D01*
X30000Y77833D01*
X60000Y60000D02*
X40000Y60000D01*
X30000Y70000D01*
X60000Y50000D02*
X40000Y50000D01*
X30000Y40000D01*
X160000Y220000D02*
X130000Y220000D01*
X160000Y230000D02*
X130000Y230000D01*
X110000Y210000D01*
X90000Y210000D01*
X130000Y220000D02*
X110000Y200000D01*
X90000Y200000D01*
X120000Y210000D02*
X120000Y190000D01*
X110000Y210000D02*
X110000Y230000D01*
X160000Y210000D02*
X140000Y210000D01*
X130000Y200000D01*
X130000Y170000D01*
X90000Y50000D02*
X120000Y50000D01*
X90000Y60000D02*
X110000Y60000D01*
X280000Y70000D02*
X300000Y70000D01*
X230000Y50000D02*
X200000Y50000D01*
X340000Y210000D02*
X330000Y210000D01*
X320000Y200000D01*
X340000Y30000D02*
X320000Y30000D01*
X90000Y100000D02*
X170000Y100000D01*
X340000Y70000D02*
X350000Y70000D01*
X360000Y60000D01*
X360000Y50000D01*
X350000Y40000D02*
X360000Y50000D01*
X340000Y60000D02*
X310000Y60000D01*
X340000Y50000D02*
X270000Y50000D01*
X340000Y80000D02*
X330000Y80000D01*
X370000Y160000D02*
X300000Y160000D01*
X370000Y150000D02*
X300000Y150000D01*
X370000Y140000D02*
X300000Y140000D01*
X370000Y130000D02*
X300000Y130000D01*
X370000Y120000D02*
X300000Y120000D01*
X370000Y180000D02*
X300000Y180000D01*
X290000Y320000D02*
X270000Y320000D01*
X270000Y130000D02*
X280000Y130000D01*
X270000Y110000D02*
X370000Y110000D01*
X140000Y170000D02*
X160000Y170000D01*
X170000Y100000D02*
X183500Y86500D01*
X250000Y50000D02*
X250000Y86500D01*
X183500Y86500D02*
X250000Y86500D01*
X250000Y85621D02*
X250000Y80000D01*
X250879Y86500D02*
X250000Y85621D01*
X250879Y86500D02*
X286500Y86500D01*
X290000Y90000D01*
X360000Y90000D01*
X370000Y80000D01*
X300000Y80000D02*
X300000Y90000D01*
X90000Y80000D02*
X160000Y80000D01*
X160000Y70000D02*
X90000Y70000D01*
X250000Y330000D02*
X250000Y350000D01*
X290000Y350000D01*
X290000Y230000D02*
X240000Y230000D01*
X230000Y350000D02*
X240000Y350000D01*
X290000Y340000D02*
X300000Y340000D01*
X230000Y360000D02*
X290000Y360000D01*
X80000Y370000D02*
X20000Y370000D01*
X80000Y360000D02*
X60000Y360000D01*
X69989Y349989D02*
X100000Y349989D01*
X69989Y349989D02*
X60000Y340000D01*
X40000Y340000D01*
X40000Y370000D01*
X270000Y140000D02*
X250000Y140000D01*
X220000Y200000D02*
X250000Y200000D01*
X300000Y210000D02*
X240000Y210000D01*
X220000Y130000D02*
X240000Y130000D01*
X270000Y190000D02*
X220000Y190000D01*
X270000Y180000D02*
X220000Y180000D01*
X270000Y170000D02*
X220000Y170000D01*
X30000Y250000D02*
X60000Y250000D01*
X240000Y40000D02*
X240000Y30000D01*
X280000Y30000D02*
X240879Y30000D01*
X130000Y30000D02*
X240000Y30000D01*
X140000Y20000D02*
X290000Y20000D01*
X310000Y40000D01*
X350000Y40000D02*
X310000Y40000D01*
X490000Y270000D02*
X500000Y270000D01*
X510000Y260000D01*
X510000Y190000D01*
X500000Y180000D01*
X390000Y110000D02*
X380000Y100000D01*
X300000Y170000D02*
X510000Y170000D01*
X520000Y160000D01*
X390000Y180000D02*
X500000Y180000D01*
X410000Y150000D02*
X570000Y150000D01*
X490000Y230000D02*
X470000Y230000D01*
X460000Y80000D02*
X430000Y80000D01*
X430000Y190000D02*
X470000Y230000D01*
X410000Y200000D02*
X420000Y200000D01*
X460000Y240000D01*
X400000Y210000D02*
X380000Y210000D01*
X460000Y60000D02*
X400000Y60000D01*
X460000Y120000D02*
X460000Y130000D01*
X400000Y130000D01*
X460000Y70000D02*
X440000Y70000D01*
X440000Y120000D02*
X440000Y100000D01*
X450000Y120000D02*
X450000Y90879D01*
X460000Y90000D02*
X459121Y90879D01*
X450000Y90879D01*
X460000Y100000D02*
X470000Y110000D01*
X470000Y120000D01*
X480000Y120000D02*
X480000Y60000D01*
X490000Y60000D01*
X490000Y120000D02*
X490000Y130000D01*
X520000Y130000D01*
X490000Y90000D02*
X520000Y90000D01*
X490000Y80000D02*
X530000Y80000D01*
X550000Y90000D02*
X540000Y90000D01*
X530000Y80000D01*
X510000Y120000D02*
X510000Y110000D01*
X500000Y120000D02*
X500000Y110000D01*
X600000Y90000D02*
X590000Y90000D01*
X570000Y70000D01*
X490000Y70000D02*
X570000Y70000D01*
X220000Y140000D02*
X210000Y140000D01*
X160000Y160000D02*
X170000Y160000D01*
X180000Y150000D02*
X170000Y160000D01*
X190000Y100000D02*
X180000Y110000D01*
X180000Y150000D01*
X380000Y100000D02*
X190000Y100000D01*
X210000Y140000D02*
X200000Y130000D01*
X200000Y120000D01*
X210000Y110000D01*
X210000Y10000D02*
X460000Y10000D01*
X470000Y20000D01*
X470000Y40000D01*
X480000Y50000D01*
X540000Y50000D01*
X490000Y40000D02*
X550000Y40000D01*
X560000Y50000D01*
X490000Y30000D02*
X560000Y30000D01*
X370000Y80000D02*
X410000Y80000D01*
X410000Y110000D01*
X490000Y100000D02*
X610000Y100000D01*
X620000Y110000D01*
X620000Y300000D01*
X610000Y310000D01*
X60000Y320000D02*
X30000Y320000D01*
X280000Y110000D02*
X280000Y190000D01*
X290000Y200000D01*
X300000Y200000D01*
X490000Y280000D02*
X490000Y290000D01*
X300000Y200000D02*
X340000Y240000D01*
X370000Y240000D01*
X420000Y290000D01*
X460000Y300000D02*
X470000Y310000D01*
X610000Y310000D01*
X460000Y280000D02*
X460000Y300000D01*
X420000Y290000D02*
X430000Y290000D01*
X200000Y360000D02*
X220000Y380000D01*
X400000Y380000D01*
X470000Y310000D01*
X440000Y40000D02*
X460000Y40000D01*
X430000Y50000D02*
X460000Y50000D01*
X430000Y30000D02*
X440000Y40000D01*
X270000Y120000D02*
X256000Y120000D01*
X100000Y359989D02*
X159989Y359989D01*
X160000Y260000D02*
X140000Y260000D01*
X110000Y280000D02*
X110000Y300000D01*
X570000Y150000D02*
X570000Y170000D01*
X120000Y280000D02*
X120000Y359989D01*
X120000Y380000D02*
X170000Y380000D01*
G54D13*
X-1000Y-1000D02*
X-1000Y38570D01*
X-1000Y-1000D02*
X62192Y-1000D01*
X630921Y-1000D02*
X567729Y-1000D01*
X630921Y-1000D02*
X630921Y38570D01*
X630921Y394701D02*
X630921Y355131D01*
X630921Y394701D02*
X567729Y394701D01*
X-1000Y394701D02*
X62192Y394701D01*
X-1000Y394701D02*
X-1000Y355131D01*
X-20685Y-1000D02*
X-60055Y-1000D01*
X-40370Y-20685D02*
X-40370Y18685D01*
X-55134Y-1000D02*
G75*
D01*
G02X-55134Y-1000I14764J0*
G01*
X650606Y-1000D02*
X689976Y-1000D01*
X670291Y-20685D02*
X670291Y18685D01*
X655528Y-1000D02*
G75*
D01*
G02X655528Y-1000I14763J0*
G01*
X665370Y-1000D02*
G75*
D01*
G02X665370Y-1000I4921J0*
G01*
X-20685Y394701D02*
X-60055Y394701D01*
X-40370Y375016D02*
X-40370Y414386D01*
X-55134Y394701D02*
G75*
D01*
G02X-55134Y394701I14764J0*
G01*
X-50213Y394701D02*
G75*
D01*
G02X-50213Y394701I9843J0*
G01*
X-45291Y394701D02*
G75*
D01*
G02X-45291Y394701I4921J0*
G01*
X-1000Y-1000D02*
X-1000Y38570D01*
X-1000Y-1000D02*
X62192Y-1000D01*
X630921Y-1000D02*
X567729Y-1000D01*
X630921Y-1000D02*
X630921Y38570D01*
X630921Y394701D02*
X630921Y355131D01*
X630921Y394701D02*
X567729Y394701D01*
X-1000Y394701D02*
X62192Y394701D01*
X-1000Y394701D02*
X-1000Y355131D01*
X-20685Y-1000D02*
X-60055Y-1000D01*
X-40370Y-20685D02*
X-40370Y18685D01*
X-55134Y-1000D02*
G75*
D01*
G02X-55134Y-1000I14764J0*
G01*
X650606Y-1000D02*
X689976Y-1000D01*
X670291Y-20685D02*
X670291Y18685D01*
X655528Y-1000D02*
G75*
D01*
G02X655528Y-1000I14763J0*
G01*
X665370Y-1000D02*
G75*
D01*
G02X665370Y-1000I4921J0*
G01*
X-20685Y394701D02*
X-60055Y394701D01*
X-40370Y375016D02*
X-40370Y414386D01*
X-55134Y394701D02*
G75*
D01*
G02X-55134Y394701I14764J0*
G01*
X-50213Y394701D02*
G75*
D01*
G02X-50213Y394701I9843J0*
G01*
X-45291Y394701D02*
G75*
D01*
G02X-45291Y394701I4921J0*
G01*
G54D14*
X0Y0D02*
X629921Y0D01*
X629921Y393701D01*
X0Y393701D01*
X0Y0D01*
G54D15*
X60000Y40000D03*
X60000Y30000D03*
X90000Y40000D03*
X90000Y30000D03*
X90000Y100000D03*
X60000Y80000D03*
X60000Y90000D03*
X60000Y70000D03*
X60000Y50000D03*
X60000Y60000D03*
X90000Y70000D03*
X90000Y80000D03*
X90000Y90000D03*
X90000Y50000D03*
X90000Y60000D03*
X60000Y100000D03*
X77833Y130000D03*
X70000Y130000D03*
X30000Y320000D03*
X20000Y320000D03*
X100000Y359989D03*
X100000Y349989D03*
X160000Y270000D03*
X220000Y270000D03*
X220000Y300000D03*
X220000Y310000D03*
X220000Y320000D03*
X220000Y280000D03*
X220000Y290000D03*
X220000Y210000D03*
X220000Y240000D03*
X220000Y250000D03*
X220000Y260000D03*
X220000Y220000D03*
X220000Y230000D03*
X220000Y180000D03*
X220000Y190000D03*
X220000Y200000D03*
X220000Y150000D03*
X220000Y160000D03*
X220000Y170000D03*
X220000Y140000D03*
X220000Y130000D03*
X160000Y300000D03*
X160000Y310000D03*
X160000Y320000D03*
X160000Y280000D03*
X160000Y290000D03*
X160000Y210000D03*
X160000Y240000D03*
X160000Y250000D03*
X160000Y260000D03*
X160000Y230000D03*
X160000Y220000D03*
X160000Y180000D03*
X160000Y200000D03*
X160000Y190000D03*
X160000Y150000D03*
X160000Y170000D03*
X160000Y160000D03*
X160000Y140000D03*
X160000Y130000D03*
X300000Y190000D03*
X270000Y170000D03*
X270000Y180000D03*
X270000Y160000D03*
X270000Y140000D03*
X270000Y150000D03*
X270000Y130000D03*
X270000Y120000D03*
X300000Y130000D03*
X300000Y160000D03*
X300000Y170000D03*
X300000Y180000D03*
X300000Y140000D03*
X300000Y150000D03*
X300000Y120000D03*
X270000Y190000D03*
X340000Y210000D03*
X380000Y210000D03*
X230000Y360000D03*
X230000Y350000D03*
X200000Y360000D03*
X200000Y350000D03*
X520000Y280000D03*
X490000Y270000D03*
X490000Y250000D03*
X490000Y260000D03*
X490000Y240000D03*
X490000Y220000D03*
X490000Y230000D03*
X490000Y210000D03*
X490000Y200000D03*
X490000Y190000D03*
X520000Y220000D03*
X520000Y250000D03*
X520000Y270000D03*
X520000Y260000D03*
X520000Y240000D03*
X520000Y230000D03*
X520000Y210000D03*
X520000Y200000D03*
X520000Y190000D03*
X490000Y280000D03*
X480000Y300000D03*
X520000Y300000D03*
X460000Y240000D03*
X460000Y280000D03*
X430000Y252167D03*
X430000Y260000D03*
X250000Y330000D03*
X260000Y320000D03*
X260000Y340000D03*
X60000Y360000D03*
X60000Y320000D03*
X60000Y290000D03*
X60000Y250000D03*
X30000Y250000D03*
X20000Y250000D03*
X30000Y32167D03*
X30000Y40000D03*
X30000Y117833D03*
X30000Y110000D03*
X30000Y77833D03*
X30000Y70000D03*
X200000Y50000D03*
X190000Y50000D03*
X250000Y50000D03*
X240000Y40000D03*
X230000Y50000D03*
X280000Y70000D03*
X280000Y30000D03*
X340000Y30000D03*
X340000Y20000D03*
X370000Y20000D03*
X370000Y30000D03*
X370000Y80000D03*
X340000Y50000D03*
X340000Y70000D03*
X340000Y60000D03*
X340000Y40000D03*
X370000Y50000D03*
X370000Y70000D03*
X370000Y60000D03*
X370000Y40000D03*
X340000Y80000D03*
X460000Y30000D03*
X490000Y30000D03*
X490000Y100000D03*
X460000Y80000D03*
X460000Y90000D03*
X460000Y70000D03*
X460000Y50000D03*
X460000Y60000D03*
X460000Y40000D03*
X490000Y40000D03*
X490000Y70000D03*
X490000Y80000D03*
X490000Y90000D03*
X490000Y50000D03*
X490000Y60000D03*
X460000Y100000D03*
X600000Y50000D03*
X560000Y50000D03*
X600000Y30000D03*
X560000Y30000D03*
X410000Y200000D03*
X400000Y210000D03*
X410000Y220000D03*
X390000Y30000D03*
X430000Y30000D03*
X390000Y50000D03*
X430000Y50000D03*
X410000Y110000D03*
X410000Y150000D03*
X530000Y150000D03*
X520000Y160000D03*
X530000Y170000D03*
X290000Y260000D03*
X290000Y230000D03*
X290000Y250000D03*
X290000Y240000D03*
X290000Y290000D03*
X290000Y280000D03*
X290000Y270000D03*
X290000Y310000D03*
X290000Y300000D03*
X290000Y320000D03*
X290000Y360000D03*
X290000Y340000D03*
X290000Y330000D03*
X290000Y350000D03*
X290000Y370000D03*
X170000Y360000D03*
X90000Y210000D03*
X600000Y150000D03*
X570000Y150000D03*
X570000Y170000D03*
X550000Y90000D03*
X550000Y100000D03*
X600000Y90000D03*
X600000Y100000D03*
X540000Y40000D03*
X540000Y50000D03*
X440000Y40000D03*
X420000Y90000D03*
X410000Y80000D03*
X420000Y80000D03*
X440000Y120000D03*
X490000Y120000D03*
X500000Y120000D03*
X480000Y120000D03*
X460000Y120000D03*
X470000Y120000D03*
X450000Y120000D03*
X300000Y70000D03*
X300000Y60000D03*
X170000Y70000D03*
X160000Y70000D03*
X170000Y90000D03*
X170000Y80000D03*
X160000Y80000D03*
X160000Y50000D03*
X170000Y50000D03*
X170000Y60000D03*
X160000Y60000D03*
X370000Y110000D03*
X370000Y160000D03*
X370000Y170000D03*
X370000Y150000D03*
X370000Y130000D03*
X370000Y140000D03*
X370000Y120000D03*
X320000Y30000D03*
X310000Y60000D03*
X400000Y60000D03*
X440000Y70000D03*
X510000Y70000D03*
X330000Y80000D03*
X430000Y80000D03*
X500000Y80000D03*
X520000Y90000D03*
X440000Y100000D03*
X390000Y110000D03*
X500000Y110000D03*
X510000Y110000D03*
X400000Y130000D03*
X520000Y130000D03*
X330000Y160000D03*
X390000Y180000D03*
X430000Y190000D03*
X610000Y190000D03*
X320000Y200000D03*
X600000Y200000D03*
X210000Y10000D03*
X140000Y20000D03*
X130000Y30000D03*
X120000Y50000D03*
X270000Y50000D03*
X110000Y60000D03*
X210000Y110000D03*
X270000Y110000D03*
X240000Y130000D03*
X250000Y140000D03*
X130000Y170000D03*
X140000Y170000D03*
X120000Y191000D03*
X250000Y200000D03*
X240000Y210000D03*
X300000Y210000D03*
X590000Y210000D03*
X580000Y220000D03*
X110000Y231000D03*
X240000Y230000D03*
X570000Y230000D03*
X310000Y240000D03*
X560000Y240000D03*
X140000Y250000D03*
X330000Y250000D03*
X550000Y250000D03*
X140000Y260000D03*
X350000Y260000D03*
X540000Y260000D03*
X90000Y270000D03*
X370000Y270000D03*
X390000Y280000D03*
X410000Y290000D03*
X431000Y290000D03*
X490000Y290000D03*
X110000Y300000D03*
X430000Y300000D03*
X450000Y310000D03*
X270000Y320000D03*
X300000Y340000D03*
X240000Y350000D03*
X80000Y360000D03*
X80000Y370000D03*
X120000Y340000D03*
X120000Y380000D03*
X570000Y90000D03*
X570000Y90000D03*
X570000Y120000D03*
X570000Y120000D03*
X420000Y380000D03*
X420000Y380000D03*
X400000Y360000D03*
X400000Y360000D03*
G54D16*
X100000Y369989D03*
X290000Y220000D03*
X160000Y360000D03*
X90000Y200000D03*
X580000Y170000D03*
X550000Y80000D03*
X600000Y80000D03*
X540000Y30000D03*
X440000Y50000D03*
X410000Y90000D03*
X510000Y120000D03*
X300000Y80000D03*
X160000Y90000D03*
X370000Y180000D03*
X80000Y350000D03*
G54D17*
X98359Y368348D02*
X101641Y368348D01*
X101641Y371630D01*
X98359Y371630D01*
X98359Y368348D01*D02*
X17209Y367209D02*
X22791Y367209D01*
X22791Y372791D01*
X17209Y372791D01*
X17209Y367209D01*D02*
X108959Y278959D02*
X111041Y278959D01*
X111041Y281041D01*
X108959Y281041D01*
X108959Y278959D01*D02*
X288359Y218359D02*
X291641Y218359D01*
X291641Y221641D01*
X288359Y221641D01*
X288359Y218359D01*D02*
X158359Y358359D02*
X161641Y358359D01*
X161641Y361641D01*
X158359Y361641D01*
X158359Y358359D01*D02*
X88359Y198359D02*
X91641Y198359D01*
X91641Y201641D01*
X88359Y201641D01*
X88359Y198359D01*D02*
X578359Y168359D02*
X581641Y168359D01*
X581641Y171641D01*
X578359Y171641D01*
X578359Y168359D01*D02*
X548359Y78359D02*
X551641Y78359D01*
X551641Y81641D01*
X548359Y81641D01*
X548359Y78359D01*D02*
X598359Y78359D02*
X601641Y78359D01*
X601641Y81641D01*
X598359Y81641D01*
X598359Y78359D01*D02*
X538359Y28359D02*
X541641Y28359D01*
X541641Y31641D01*
X538359Y31641D01*
X538359Y28359D01*D02*
X438359Y48359D02*
X441641Y48359D01*
X441641Y51641D01*
X438359Y51641D01*
X438359Y48359D01*D02*
X408359Y88359D02*
X411641Y88359D01*
X411641Y91641D01*
X408359Y91641D01*
X408359Y88359D01*D02*
X508359Y118359D02*
X511641Y118359D01*
X511641Y121641D01*
X508359Y121641D01*
X508359Y118359D01*D02*
X298359Y78359D02*
X301641Y78359D01*
X301641Y81641D01*
X298359Y81641D01*
X298359Y78359D01*D02*
X158359Y88359D02*
X161641Y88359D01*
X161641Y91641D01*
X158359Y91641D01*
X158359Y88359D01*D02*
X368359Y178359D02*
X371641Y178359D01*
X371641Y181641D01*
X368359Y181641D01*
X368359Y178359D01*D02*
X78359Y348359D02*
X81641Y348359D01*
X81641Y351641D01*
X78359Y351641D01*
X78359Y348359D01*D02*
G54D18*
X20000Y350000D03*
X170000Y380000D03*
X190000Y380000D03*
G54D19*
X20000Y370000D03*
G54D20*
X20000Y360000D03*
X600000Y140000D03*
X570000Y140000D03*
X150000Y380000D03*
G54D21*
X120000Y280000D03*
X120000Y260000D03*
X110000Y260000D03*
X120000Y270000D03*
X110000Y270000D03*
G54D22*
X110000Y280000D03*
G54D23*
X244000Y120000D03*
X256000Y120000D03*

M02*
