G04 Generated by Ultiboard 14.1 *
%FSLAX25Y25*%
%MOIN*%

%ADD10C,0.00001*%
%ADD11C,0.03000*%
%ADD12C,0.00500*%
%ADD13C,0.00004*%
%ADD14C,0.07200*%
%ADD15R,0.07200X0.07200*%
%ADD16R,0.03283X0.03283*%
%ADD17C,0.03917*%
%ADD18C,0.09500*%
%ADD19R,0.05583X0.05583*%
%ADD20C,0.00100*%
%ADD21C,0.06334*%
%ADD22R,0.02083X0.02083*%


G04 ColorRGB 00FF00 for the following layer *
%LNCopper Top*%
%LPD*%
G54D10*
G54D11*
X610000Y300000D02*
X610000Y190000D01*
X530000Y380000D02*
X610000Y300000D01*
X590000Y300000D02*
X590000Y210000D01*
X530000Y360000D02*
X590000Y300000D01*
X580000Y300000D02*
X580000Y220000D01*
X530000Y350000D02*
X580000Y300000D01*
X570000Y300000D02*
X570000Y230000D01*
X530000Y340000D02*
X570000Y300000D01*
X560000Y300000D02*
X560000Y240000D01*
X530000Y330000D02*
X560000Y300000D01*
X550000Y250000D02*
X550000Y300000D01*
X530000Y320000D02*
X550000Y300000D01*
X600000Y300000D02*
X600000Y200000D01*
X530000Y370000D02*
X600000Y300000D01*
X540000Y300000D02*
X540000Y260000D01*
X310000Y240000D02*
X450000Y380000D01*
X530000Y380000D01*
X330000Y250000D02*
X450000Y370000D01*
X530000Y370000D01*
X350000Y260000D02*
X450000Y360000D01*
X530000Y360000D01*
X370000Y270000D02*
X450000Y350000D01*
X530000Y350000D01*
X390000Y280000D02*
X450000Y340000D01*
X530000Y340000D01*
X410000Y290000D02*
X450000Y330000D01*
X530000Y330000D01*
X430000Y300000D02*
X450000Y320000D01*
X530000Y320000D01*
X450000Y310000D02*
X530000Y310000D01*
X540000Y300000D01*
X120000Y190000D02*
X120000Y50000D01*
X110000Y230000D02*
X110000Y60000D01*
X330000Y160000D02*
X330000Y80000D01*
X270000Y210000D02*
X270000Y320000D01*
X270000Y50000D02*
X270000Y110000D01*
X240000Y230000D02*
X240000Y350000D01*
X240000Y210000D02*
X240000Y130000D01*
X250000Y200000D02*
X250000Y140000D01*
X300000Y210000D02*
X300000Y340000D01*
X130000Y30000D02*
X130000Y170000D01*
X320000Y200000D02*
X320000Y30000D01*
X140000Y170000D02*
X140000Y20000D01*
X430000Y190000D02*
X430000Y80000D01*
X400000Y60000D02*
X400000Y130000D01*
X440000Y70000D02*
X440000Y100000D01*
X520000Y130000D02*
X520000Y90000D01*
X510000Y70000D02*
X510000Y110000D01*
X500000Y80000D02*
X500000Y110000D01*
X390000Y180000D02*
X390000Y110000D01*
X210000Y10000D02*
X210000Y110000D01*
X430000Y290000D02*
X490000Y290000D01*
X90000Y270000D02*
X90000Y260000D01*
X100000Y250000D01*
X140000Y250000D01*
X140000Y260000D02*
X140000Y290000D01*
X130000Y300000D01*
X110000Y300000D01*
X310000Y60000D02*
X310000Y193500D01*
X300000Y203500D02*
X276500Y203500D01*
X270000Y210000D01*
X300000Y203500D02*
X310000Y193500D01*
G54D12*
X-1000Y-1000D02*
X-1000Y38570D01*
X-1000Y-1000D02*
X62192Y-1000D01*
X630921Y-1000D02*
X567729Y-1000D01*
X630921Y-1000D02*
X630921Y38570D01*
X630921Y394701D02*
X630921Y355131D01*
X630921Y394701D02*
X567729Y394701D01*
X-1000Y394701D02*
X62192Y394701D01*
X-1000Y394701D02*
X-1000Y355131D01*
X-20685Y-1000D02*
X-60055Y-1000D01*
X-40370Y-20685D02*
X-40370Y18685D01*
X-55134Y-1000D02*
G75*
D01*
G02X-55134Y-1000I14764J0*
G01*
X650606Y-1000D02*
X689976Y-1000D01*
X670291Y-20685D02*
X670291Y18685D01*
X655528Y-1000D02*
G75*
D01*
G02X655528Y-1000I14763J0*
G01*
X665370Y-1000D02*
G75*
D01*
G02X665370Y-1000I4921J0*
G01*
X-20685Y394701D02*
X-60055Y394701D01*
X-40370Y375016D02*
X-40370Y414386D01*
X-55134Y394701D02*
G75*
D01*
G02X-55134Y394701I14764J0*
G01*
X-50213Y394701D02*
G75*
D01*
G02X-50213Y394701I9843J0*
G01*
X-45291Y394701D02*
G75*
D01*
G02X-45291Y394701I4921J0*
G01*
X-1000Y-1000D02*
X-1000Y38570D01*
X-1000Y-1000D02*
X62192Y-1000D01*
X630921Y-1000D02*
X567729Y-1000D01*
X630921Y-1000D02*
X630921Y38570D01*
X630921Y394701D02*
X630921Y355131D01*
X630921Y394701D02*
X567729Y394701D01*
X-1000Y394701D02*
X62192Y394701D01*
X-1000Y394701D02*
X-1000Y355131D01*
X-20685Y-1000D02*
X-60055Y-1000D01*
X-40370Y-20685D02*
X-40370Y18685D01*
X-55134Y-1000D02*
G75*
D01*
G02X-55134Y-1000I14764J0*
G01*
X650606Y-1000D02*
X689976Y-1000D01*
X670291Y-20685D02*
X670291Y18685D01*
X655528Y-1000D02*
G75*
D01*
G02X655528Y-1000I14763J0*
G01*
X665370Y-1000D02*
G75*
D01*
G02X665370Y-1000I4921J0*
G01*
X-20685Y394701D02*
X-60055Y394701D01*
X-40370Y375016D02*
X-40370Y414386D01*
X-55134Y394701D02*
G75*
D01*
G02X-55134Y394701I14764J0*
G01*
X-50213Y394701D02*
G75*
D01*
G02X-50213Y394701I9843J0*
G01*
X-45291Y394701D02*
G75*
D01*
G02X-45291Y394701I4921J0*
G01*
G54D13*
X0Y0D02*
X629921Y0D01*
X629921Y393701D01*
X0Y393701D01*
X0Y0D01*
G54D14*
X60000Y40000D03*
X60000Y30000D03*
X90000Y40000D03*
X90000Y30000D03*
X90000Y100000D03*
X60000Y80000D03*
X60000Y90000D03*
X60000Y70000D03*
X60000Y50000D03*
X60000Y60000D03*
X90000Y70000D03*
X90000Y80000D03*
X90000Y90000D03*
X90000Y50000D03*
X90000Y60000D03*
X77833Y130000D03*
X70000Y130000D03*
X30000Y320000D03*
X20000Y320000D03*
X100000Y359989D03*
X100000Y349989D03*
X160000Y270000D03*
X220000Y270000D03*
X220000Y300000D03*
X220000Y310000D03*
X220000Y320000D03*
X220000Y280000D03*
X220000Y290000D03*
X220000Y210000D03*
X220000Y240000D03*
X220000Y250000D03*
X220000Y260000D03*
X220000Y220000D03*
X220000Y230000D03*
X220000Y180000D03*
X220000Y190000D03*
X220000Y200000D03*
X220000Y150000D03*
X220000Y160000D03*
X220000Y170000D03*
X220000Y140000D03*
X220000Y130000D03*
X160000Y300000D03*
X160000Y310000D03*
X160000Y320000D03*
X160000Y280000D03*
X160000Y290000D03*
X160000Y210000D03*
X160000Y240000D03*
X160000Y250000D03*
X160000Y260000D03*
X160000Y230000D03*
X160000Y220000D03*
X160000Y180000D03*
X160000Y200000D03*
X160000Y190000D03*
X160000Y150000D03*
X160000Y170000D03*
X160000Y160000D03*
X160000Y140000D03*
X160000Y130000D03*
X300000Y190000D03*
X270000Y170000D03*
X270000Y180000D03*
X270000Y160000D03*
X270000Y140000D03*
X270000Y150000D03*
X270000Y130000D03*
X270000Y120000D03*
X300000Y130000D03*
X300000Y160000D03*
X300000Y170000D03*
X300000Y180000D03*
X300000Y140000D03*
X300000Y150000D03*
X300000Y120000D03*
X340000Y210000D03*
X380000Y210000D03*
X230000Y360000D03*
X230000Y350000D03*
X200000Y360000D03*
X200000Y350000D03*
X520000Y280000D03*
X490000Y270000D03*
X490000Y250000D03*
X490000Y260000D03*
X490000Y240000D03*
X490000Y220000D03*
X490000Y230000D03*
X490000Y210000D03*
X490000Y200000D03*
X490000Y190000D03*
X520000Y220000D03*
X520000Y250000D03*
X520000Y270000D03*
X520000Y260000D03*
X520000Y240000D03*
X520000Y230000D03*
X520000Y210000D03*
X520000Y200000D03*
X520000Y190000D03*
X480000Y300000D03*
X520000Y300000D03*
X460000Y240000D03*
X460000Y280000D03*
X430000Y252167D03*
X430000Y260000D03*
X250000Y330000D03*
X260000Y320000D03*
X260000Y340000D03*
X60000Y360000D03*
X60000Y320000D03*
X60000Y290000D03*
X60000Y250000D03*
X30000Y250000D03*
X20000Y250000D03*
X30000Y32167D03*
X30000Y40000D03*
X30000Y117833D03*
X30000Y110000D03*
X30000Y77833D03*
X30000Y70000D03*
X200000Y50000D03*
X190000Y50000D03*
X250000Y50000D03*
X240000Y40000D03*
X230000Y50000D03*
X280000Y70000D03*
X280000Y30000D03*
X340000Y30000D03*
X340000Y20000D03*
X370000Y20000D03*
X370000Y30000D03*
X370000Y80000D03*
X340000Y50000D03*
X340000Y70000D03*
X340000Y60000D03*
X340000Y40000D03*
X370000Y50000D03*
X370000Y70000D03*
X370000Y60000D03*
X370000Y40000D03*
X460000Y30000D03*
X490000Y30000D03*
X490000Y100000D03*
X460000Y80000D03*
X460000Y90000D03*
X460000Y70000D03*
X460000Y50000D03*
X460000Y60000D03*
X460000Y40000D03*
X490000Y40000D03*
X490000Y70000D03*
X490000Y80000D03*
X490000Y90000D03*
X490000Y50000D03*
X490000Y60000D03*
X600000Y50000D03*
X560000Y50000D03*
X600000Y30000D03*
X560000Y30000D03*
X410000Y200000D03*
X400000Y210000D03*
X410000Y220000D03*
X390000Y30000D03*
X430000Y30000D03*
X390000Y50000D03*
X430000Y50000D03*
X410000Y110000D03*
X410000Y150000D03*
X530000Y150000D03*
X520000Y160000D03*
X530000Y170000D03*
X290000Y260000D03*
X290000Y230000D03*
X290000Y250000D03*
X290000Y240000D03*
X290000Y290000D03*
X290000Y280000D03*
X290000Y270000D03*
X290000Y310000D03*
X290000Y300000D03*
X290000Y320000D03*
X290000Y360000D03*
X290000Y340000D03*
X290000Y330000D03*
X290000Y350000D03*
X290000Y370000D03*
X170000Y360000D03*
X90000Y210000D03*
X600000Y150000D03*
X570000Y150000D03*
X570000Y170000D03*
X550000Y90000D03*
X550000Y100000D03*
X600000Y90000D03*
X600000Y100000D03*
X540000Y40000D03*
X540000Y50000D03*
X440000Y40000D03*
X420000Y90000D03*
X410000Y80000D03*
X420000Y80000D03*
X440000Y120000D03*
X490000Y120000D03*
X500000Y120000D03*
X480000Y120000D03*
X460000Y120000D03*
X470000Y120000D03*
X450000Y120000D03*
X300000Y70000D03*
X300000Y60000D03*
X170000Y70000D03*
X160000Y70000D03*
X170000Y90000D03*
X170000Y80000D03*
X160000Y80000D03*
X160000Y50000D03*
X170000Y50000D03*
X170000Y60000D03*
X160000Y60000D03*
X370000Y110000D03*
X370000Y160000D03*
X370000Y170000D03*
X370000Y150000D03*
X370000Y130000D03*
X370000Y140000D03*
X370000Y120000D03*
X320000Y30000D03*
X310000Y60000D03*
X400000Y60000D03*
X440000Y70000D03*
X510000Y70000D03*
X330000Y80000D03*
X430000Y80000D03*
X500000Y80000D03*
X520000Y90000D03*
X440000Y100000D03*
X390000Y110000D03*
X500000Y110000D03*
X510000Y110000D03*
X400000Y130000D03*
X520000Y130000D03*
X330000Y160000D03*
X390000Y180000D03*
X430000Y190000D03*
X610000Y190000D03*
X320000Y200000D03*
X600000Y200000D03*
X210000Y10000D03*
X140000Y20000D03*
X130000Y30000D03*
X120000Y50000D03*
X270000Y50000D03*
X110000Y60000D03*
X210000Y110000D03*
X270000Y110000D03*
X240000Y130000D03*
X250000Y140000D03*
X130000Y170000D03*
X140000Y170000D03*
X120000Y191000D03*
X250000Y200000D03*
X240000Y210000D03*
X300000Y210000D03*
X590000Y210000D03*
X580000Y220000D03*
X110000Y231000D03*
X240000Y230000D03*
X570000Y230000D03*
X310000Y240000D03*
X560000Y240000D03*
X140000Y250000D03*
X330000Y250000D03*
X550000Y250000D03*
X140000Y260000D03*
X350000Y260000D03*
X540000Y260000D03*
X90000Y270000D03*
X370000Y270000D03*
X390000Y280000D03*
X410000Y290000D03*
X431000Y290000D03*
X490000Y290000D03*
X110000Y300000D03*
X430000Y300000D03*
X450000Y310000D03*
X270000Y320000D03*
X300000Y340000D03*
X240000Y350000D03*
X80000Y360000D03*
X80000Y370000D03*
X120000Y340000D03*
X120000Y380000D03*
X570000Y90000D03*
X570000Y90000D03*
X570000Y120000D03*
X570000Y120000D03*
X420000Y380000D03*
X420000Y380000D03*
X400000Y360000D03*
X400000Y360000D03*
G54D15*
X60000Y100000D03*
X270000Y190000D03*
X490000Y280000D03*
X340000Y80000D03*
X460000Y100000D03*
G54D16*
X100000Y369989D03*
X290000Y220000D03*
X160000Y360000D03*
X90000Y200000D03*
X580000Y170000D03*
X550000Y80000D03*
X600000Y80000D03*
X540000Y30000D03*
X440000Y50000D03*
X410000Y90000D03*
X510000Y120000D03*
X300000Y80000D03*
X160000Y90000D03*
X370000Y180000D03*
X80000Y350000D03*
G54D17*
X98359Y368348D02*
X101641Y368348D01*
X101641Y371630D01*
X98359Y371630D01*
X98359Y368348D01*D02*
X17209Y367209D02*
X22791Y367209D01*
X22791Y372791D01*
X17209Y372791D01*
X17209Y367209D01*D02*
X108959Y278959D02*
X111041Y278959D01*
X111041Y281041D01*
X108959Y281041D01*
X108959Y278959D01*D02*
X288359Y218359D02*
X291641Y218359D01*
X291641Y221641D01*
X288359Y221641D01*
X288359Y218359D01*D02*
X158359Y358359D02*
X161641Y358359D01*
X161641Y361641D01*
X158359Y361641D01*
X158359Y358359D01*D02*
X88359Y198359D02*
X91641Y198359D01*
X91641Y201641D01*
X88359Y201641D01*
X88359Y198359D01*D02*
X578359Y168359D02*
X581641Y168359D01*
X581641Y171641D01*
X578359Y171641D01*
X578359Y168359D01*D02*
X548359Y78359D02*
X551641Y78359D01*
X551641Y81641D01*
X548359Y81641D01*
X548359Y78359D01*D02*
X598359Y78359D02*
X601641Y78359D01*
X601641Y81641D01*
X598359Y81641D01*
X598359Y78359D01*D02*
X538359Y28359D02*
X541641Y28359D01*
X541641Y31641D01*
X538359Y31641D01*
X538359Y28359D01*D02*
X438359Y48359D02*
X441641Y48359D01*
X441641Y51641D01*
X438359Y51641D01*
X438359Y48359D01*D02*
X408359Y88359D02*
X411641Y88359D01*
X411641Y91641D01*
X408359Y91641D01*
X408359Y88359D01*D02*
X508359Y118359D02*
X511641Y118359D01*
X511641Y121641D01*
X508359Y121641D01*
X508359Y118359D01*D02*
X298359Y78359D02*
X301641Y78359D01*
X301641Y81641D01*
X298359Y81641D01*
X298359Y78359D01*D02*
X158359Y88359D02*
X161641Y88359D01*
X161641Y91641D01*
X158359Y91641D01*
X158359Y88359D01*D02*
X368359Y178359D02*
X371641Y178359D01*
X371641Y181641D01*
X368359Y181641D01*
X368359Y178359D01*D02*
X78359Y348359D02*
X81641Y348359D01*
X81641Y351641D01*
X78359Y351641D01*
X78359Y348359D01*D02*
G54D18*
X20000Y350000D03*
X170000Y380000D03*
X190000Y380000D03*
G54D19*
X20000Y370000D03*
G54D20*
X20000Y360000D03*
X600000Y140000D03*
X570000Y140000D03*
X150000Y380000D03*
G54D21*
X120000Y280000D03*
X120000Y260000D03*
X110000Y260000D03*
X120000Y270000D03*
X110000Y270000D03*
G54D22*
X110000Y280000D03*

M02*
