M48
INCH,TZ
VER,1
FMAT,2
DETECT,ON
ATC,ON
T1C0.03150
T2C0.03500
T3C0.03917
T4C0.03937
T5C0.05906
T6C0.00100
%
T1
X60000Y40000
Y30000
X90000Y40000
Y30000
Y100000
X60000Y80000
Y90000
Y70000
Y50000
Y60000
X90000Y70000
Y80000
Y90000
Y50000
Y60000
X60000Y100000
X77833Y130000
X70000
X30000Y320000
X20000
X160000Y270000
X220000
Y300000
Y310000
Y320000
Y280000
Y290000
Y210000
Y240000
Y250000
Y260000
Y220000
Y230000
Y180000
Y190000
Y200000
Y150000
Y160000
Y170000
Y140000
Y130000
X160000Y300000
Y310000
Y320000
Y280000
Y290000
Y210000
Y240000
Y250000
Y260000
Y230000
Y220000
Y180000
Y200000
Y190000
Y150000
Y170000
Y160000
Y140000
Y130000
X300000Y190000
X270000Y170000
Y180000
Y160000
Y140000
Y150000
Y130000
Y120000
X300000Y130000
Y160000
Y170000
Y180000
Y140000
Y150000
Y120000
X270000Y190000
X340000Y210000
X380000
X520000Y280000
X490000Y270000
Y250000
Y260000
Y240000
Y220000
Y230000
Y210000
Y200000
Y190000
X520000Y220000
Y250000
Y270000
Y260000
Y240000
Y230000
Y210000
Y200000
Y190000
X490000Y280000
X480000Y300000
X520000
X460000Y240000
Y280000
X430000Y252167
Y260000
X60000Y360000
Y320000
Y290000
Y250000
X30000
X20000
X30000Y32167
Y40000
Y117833
Y110000
Y77833
Y70000
X200000Y50000
X190000
X250000
X240000Y40000
X230000Y50000
X280000Y70000
Y30000
X340000
Y20000
X370000
Y30000
Y80000
X340000Y50000
Y70000
Y60000
Y40000
X370000Y50000
Y70000
Y60000
Y40000
X340000Y80000
X460000Y30000
X490000
Y100000
X460000Y80000
Y90000
Y70000
Y50000
Y60000
Y40000
X490000
Y70000
Y80000
Y90000
Y50000
Y60000
X460000Y100000
X600000Y50000
X560000
X600000Y30000
X560000
X410000Y200000
X400000Y210000
X410000Y220000
X390000Y30000
X430000
X390000Y50000
X430000
X410000Y110000
Y150000
X530000
X520000Y160000
X530000Y170000
X320000Y30000
X310000Y60000
X400000
X440000Y70000
X510000
X330000Y80000
X430000
X500000
X520000Y90000
X440000Y100000
X390000Y110000
X500000
X510000
X400000Y130000
X520000
X330000Y160000
X390000Y180000
X430000Y190000
X610000
X320000Y200000
X600000
X210000Y10000
X140000Y20000
X130000Y30000
X120000Y50000
X270000
X110000Y60000
X210000Y110000
X270000
X240000Y130000
X250000Y140000
X130000Y170000
X140000
X120000Y191000
X250000Y200000
X240000Y210000
X300000
X590000
X580000Y220000
X110000Y231000
X240000Y230000
X570000
X310000Y240000
X560000
X140000Y250000
X330000
X550000
X140000Y260000
X350000
X540000
X90000Y270000
X370000
X390000Y280000
X410000Y290000
X431000
X490000
X110000Y300000
X430000
X450000Y310000
X270000Y320000
X300000Y340000
X240000Y350000
X120000Y380000
X570000Y90000
Y120000
X420000Y380000
X400000Y360000
T2
X100000Y359989
Y349989
X80000Y360000
Y370000
X120000Y340000
T3
X100000Y369989
T4
X230000Y360000
Y350000
X200000Y360000
Y350000
X250000Y330000
X260000Y320000
Y340000
X120000Y280000
X110000
X120000Y260000
X110000
X120000Y270000
X110000
X290000Y260000
Y230000
Y220000
Y250000
Y240000
Y290000
Y280000
Y270000
Y310000
Y300000
Y320000
Y360000
Y340000
Y330000
Y350000
Y370000
X160000Y360000
X170000
X90000Y200000
Y210000
X600000Y150000
X570000
X580000Y170000
X570000
X550000Y90000
Y80000
Y100000
X600000Y90000
Y80000
Y100000
X540000Y30000
Y40000
Y50000
X440000
Y40000
X410000Y90000
X420000
X410000Y80000
X420000
X440000Y120000
X510000
X490000
X500000
X480000
X460000
X470000
X450000
X300000Y70000
Y80000
Y60000
X170000Y70000
X160000
X170000Y90000
X160000
X170000Y80000
X160000
Y50000
X170000
Y60000
X160000
X370000Y110000
Y180000
Y160000
Y170000
Y150000
Y130000
Y140000
Y120000
X80000Y350000
T5
X20000Y350000
Y370000
X170000Y380000
X190000
T6
X20000Y360000
X600000Y140000
X570000
X150000Y380000
M30
